<svg xmlns="http://www.w3.org/2000/svg" xmlns:xlink="http://www.w3.org/1999/xlink" width="1080" zoomAndPan="magnify" viewBox="0 0 810 809.999993" height="1080" preserveAspectRatio="xMidYMid meet" version="1.0"><defs><clipPath id="56a50498d8"><path d="M 387 54.316406 L 412 54.316406 L 412 71 L 387 71 Z M 387 54.316406 " clip-rule="nonzero"/></clipPath><clipPath id="ececc45b72"><path d="M 430 54.316406 L 455 54.316406 L 455 71 L 430 71 Z M 430 54.316406 " clip-rule="nonzero"/></clipPath><clipPath id="e2ef941b77"><path d="M 585 108 L 593.53125 108 L 593.53125 135 L 585 135 Z M 585 108 " clip-rule="nonzero"/></clipPath><clipPath id="07c0ad8a47"><path d="M 536 38 L 720 38 L 720 213 L 536 213 Z M 536 38 " clip-rule="nonzero"/></clipPath><clipPath id="1c014ea937"><path d="M 629.164062 255.777344 L 504.683594 92.550781 L 625.789062 0.195312 L 750.269531 163.421875 Z M 629.164062 255.777344 " clip-rule="nonzero"/></clipPath><clipPath id="e80d491260"><path d="M 629.164062 255.777344 L 504.683594 92.550781 L 625.789062 0.195312 L 750.269531 163.421875 Z M 629.164062 255.777344 " clip-rule="nonzero"/></clipPath><clipPath id="c0e49c973b"><path d="M 629.164062 255.777344 L 504.683594 92.550781 L 625.789062 0.195312 L 750.269531 163.421875 Z M 629.164062 255.777344 " clip-rule="nonzero"/></clipPath><clipPath id="b9236666c4"><path d="M 566 50 L 712 50 L 712 202 L 566 202 Z M 566 50 " clip-rule="nonzero"/></clipPath><clipPath id="df294a2ab8"><path d="M 629.164062 255.777344 L 504.683594 92.550781 L 625.789062 0.195312 L 750.269531 163.421875 Z M 629.164062 255.777344 " clip-rule="nonzero"/></clipPath><clipPath id="7816cbf683"><path d="M 629.164062 255.777344 L 504.683594 92.550781 L 625.789062 0.195312 L 750.269531 163.421875 Z M 629.164062 255.777344 " clip-rule="nonzero"/></clipPath><clipPath id="05feb9d3f2"><path d="M 629.164062 255.777344 L 504.683594 92.550781 L 625.789062 0.195312 L 750.269531 163.421875 Z M 629.164062 255.777344 " clip-rule="nonzero"/></clipPath><clipPath id="91184c7791"><path d="M 545 46 L 712 46 L 712 205 L 545 205 Z M 545 46 " clip-rule="nonzero"/></clipPath><clipPath id="ccab29327c"><path d="M 629.164062 255.777344 L 504.683594 92.550781 L 625.789062 0.195312 L 750.269531 163.421875 Z M 629.164062 255.777344 " clip-rule="nonzero"/></clipPath><clipPath id="b3b3f0a132"><path d="M 629.164062 255.777344 L 504.683594 92.550781 L 625.789062 0.195312 L 750.269531 163.421875 Z M 629.164062 255.777344 " clip-rule="nonzero"/></clipPath><clipPath id="b3825009d7"><path d="M 629.164062 255.777344 L 504.683594 92.550781 L 625.789062 0.195312 L 750.269531 163.421875 Z M 629.164062 255.777344 " clip-rule="nonzero"/></clipPath></defs><path fill="#1d1d1b" d="M 91.679688 811.222656 L 105.578125 808.109375 C 104.738281 804.234375 104.027344 800.316406 103.238281 796.429688 C 102.5 792.527344 101.886719 788.597656 101.210938 784.671875 L 87.179688 787.046875 C 87.878906 791.085938 88.503906 795.140625 89.28125 799.167969 C 90.082031 803.167969 90.820312 807.210938 91.679688 811.222656 Z M 91.679688 811.222656 " fill-opacity="1" fill-rule="evenodd"/><path fill="#1d1d1b" d="M 81.9375 679.375 L 96.121094 680.289062 L 96.484375 674.335938 L 96.996094 668.382812 L 97.511719 662.441406 L 98.160156 656.515625 L 84.039062 654.863281 L 83.351562 660.964844 L 82.824219 667.105469 L 82.300781 673.234375 Z M 81.9375 679.375 " fill-opacity="1" fill-rule="evenodd"/><path fill="#1d1d1b" d="M 81.199219 723.511719 L 95.394531 723.089844 L 95.207031 711.15625 L 95.320312 699.210938 L 81.101562 698.898438 L 81 711.207031 Z M 81.199219 723.511719 " fill-opacity="1" fill-rule="evenodd"/><path fill="#1d1d1b" d="M 84.453125 767.386719 L 98.5625 765.613281 L 97.871094 759.683594 C 97.648438 757.707031 97.496094 755.730469 97.308594 753.742188 L 96.773438 747.800781 C 96.597656 745.824219 96.496094 743.835938 96.359375 741.847656 L 82.175781 742.886719 C 82.3125 744.925781 82.425781 746.976562 82.613281 749.027344 L 83.175781 755.15625 C 83.375 757.195312 83.527344 759.246094 83.75 761.285156 Z M 84.453125 767.386719 " fill-opacity="1" fill-rule="evenodd"/><path fill="#1d1d1b" d="M 107.792969 549.84375 L 121.164062 554.78125 C 122.527344 551.070312 123.800781 547.316406 125.238281 543.628906 C 126.703125 539.949219 128.078125 536.234375 129.605469 532.582031 L 116.523438 526.894531 C 114.945312 530.671875 113.507812 534.496094 112.007812 538.300781 C 110.519531 542.125 109.203125 545.992188 107.792969 549.84375 Z M 107.792969 549.84375 " fill-opacity="1" fill-rule="evenodd"/><path fill="#1d1d1b" d="M 95.222656 592.078125 L 109.003906 595.679688 C 109.90625 591.816406 110.96875 587.988281 112.019531 584.160156 C 112.558594 582.25 113.019531 580.320312 113.609375 578.421875 L 115.332031 572.730469 L 101.761719 568.378906 L 100 574.269531 C 99.398438 576.21875 98.910156 578.207031 98.347656 580.183594 C 97.261719 584.136719 96.160156 588.078125 95.222656 592.078125 Z M 95.222656 592.078125 " fill-opacity="1" fill-rule="evenodd"/><path fill="#1d1d1b" d="M 86.601562 635.191406 L 100.648438 637.441406 C 101.300781 633.527344 101.914062 629.585938 102.589844 625.683594 C 103.339844 621.78125 104.050781 617.878906 104.839844 613.976562 L 90.917969 610.964844 C 90.117188 614.980469 89.378906 619.019531 88.605469 623.046875 C 87.902344 627.074219 87.277344 631.136719 86.601562 635.191406 Z M 86.601562 635.191406 " fill-opacity="1" fill-rule="evenodd"/><path fill="#1d1d1b" d="M 176.257812 437.632812 L 185.140625 449.039062 C 188.015625 446.722656 190.941406 444.460938 194.007812 442.472656 C 195.496094 441.421875 197.085938 440.53125 198.621094 439.558594 C 200.222656 438.707031 201.761719 437.742188 203.386719 436.96875 L 197.058594 423.886719 C 195.171875 424.785156 193.394531 425.875 191.570312 426.875 C 189.804688 427.988281 187.992188 429.015625 186.277344 430.203125 C 182.789062 432.492188 179.484375 435.042969 176.257812 437.632812 Z M 176.257812 437.632812 " fill-opacity="1" fill-rule="evenodd"/><path fill="#1d1d1b" d="M 146.441406 470.535156 L 157.972656 479.078125 C 162.375 472.789062 167.117188 466.808594 172.242188 461.28125 L 161.9375 451.214844 C 156.308594 457.292969 151.167969 463.769531 146.441406 470.535156 Z M 146.441406 470.535156 " fill-opacity="1" fill-rule="evenodd"/><path fill="#1d1d1b" d="M 124.476562 508.746094 L 137.261719 515.136719 C 140.625 508.070312 144.226562 501.128906 148.128906 494.4375 L 135.945312 486.921875 C 131.792969 494.023438 128.003906 501.328125 124.476562 508.746094 Z M 124.476562 508.746094 " fill-opacity="1" fill-rule="evenodd"/><path fill="#1d1d1b" d="M 297.410156 444.308594 L 286.613281 453.804688 C 287.191406 454.464844 287.691406 455.191406 288.226562 455.867188 C 288.765625 456.554688 289.316406 457.230469 289.78125 457.96875 L 291.242188 460.117188 L 292.570312 462.34375 C 292.78125 462.71875 293.019531 463.082031 293.21875 463.457031 L 293.792969 464.609375 C 294.167969 465.382812 294.605469 466.121094 294.921875 466.898438 L 295.90625 469.234375 C 296.269531 470.011719 296.457031 470.8125 296.746094 471.613281 L 310.203125 466.910156 C 309.828125 465.871094 309.542969 464.785156 309.089844 463.785156 L 307.816406 460.742188 C 307.378906 459.730469 306.851562 458.78125 306.363281 457.792969 L 305.625 456.328125 C 305.363281 455.855469 305.078125 455.390625 304.8125 454.929688 L 303.148438 452.125 L 301.324219 449.449219 C 300.734375 448.539062 300.074219 447.6875 299.410156 446.835938 C 298.746094 446 298.109375 445.121094 297.410156 444.308594 Z M 297.410156 444.308594 " fill-opacity="1" fill-rule="evenodd"/><path fill="#1d1d1b" d="M 260.472656 418.535156 L 255.746094 432.316406 L 258.210938 433.242188 L 260.625 434.304688 L 261.835938 434.828125 L 263.023438 435.429688 L 265.390625 436.617188 C 268.464844 438.371094 271.53125 440.171875 274.34375 442.335938 L 282.664062 430.488281 C 279.296875 427.914062 275.671875 425.75 272.003906 423.6875 L 269.179688 422.261719 L 267.765625 421.546875 L 266.316406 420.910156 L 263.425781 419.648438 Z M 260.472656 418.535156 " fill-opacity="1" fill-rule="evenodd"/><path fill="#1d1d1b" d="M 215.871094 416.570312 L 219.460938 430.691406 C 226.089844 428.800781 233.042969 428.078125 239.898438 428.714844 L 241 414.132812 C 232.570312 413.355469 224.039062 414.242188 215.871094 416.570312 Z M 215.871094 416.570312 " fill-opacity="1" fill-rule="evenodd"/><path fill="#1d1d1b" d="M 246.890625 541.238281 L 247.117188 526.644531 C 243.636719 526.59375 240.160156 526.242188 236.746094 525.628906 C 233.355469 525.03125 230.015625 524.140625 226.765625 522.976562 L 222.039062 536.75 C 230.042969 539.613281 238.484375 541.113281 246.890625 541.238281 Z M 246.890625 541.238281 " fill-opacity="1" fill-rule="evenodd"/><path fill="#1d1d1b" d="M 290.066406 528.429688 L 281.898438 516.476562 C 276.496094 520.363281 270.15625 523.152344 263.476562 524.804688 L 266.800781 539.011719 C 275.007812 536.960938 283 533.507812 290.066406 528.429688 Z M 290.066406 528.429688 " fill-opacity="1" fill-rule="evenodd"/><path fill="#1d1d1b" d="M 312.992188 488.285156 L 298.808594 487.183594 L 298.585938 489.585938 L 298.132812 491.949219 C 298.035156 492.75 297.785156 493.523438 297.558594 494.300781 C 297.320312 495.074219 297.171875 495.863281 296.871094 496.625 C 295.78125 499.703125 294.371094 502.65625 292.59375 505.367188 L 304.402344 513.496094 C 306.851562 509.769531 308.792969 505.71875 310.28125 501.492188 C 310.679688 500.441406 310.929688 499.339844 311.242188 498.265625 C 311.554688 497.175781 311.878906 496.101562 312.054688 494.988281 L 312.65625 491.660156 Z M 312.992188 488.285156 " fill-opacity="1" fill-rule="evenodd"/><path fill="#1d1d1b" d="M 153.121094 455.242188 L 166.414062 450.074219 L 164.464844 444.574219 L 162.699219 438.980469 L 160.949219 433.390625 C 160.386719 431.527344 159.9375 429.613281 159.421875 427.738281 L 145.714844 431.589844 C 146.253906 433.589844 146.726562 435.59375 147.328125 437.582031 L 149.179688 443.484375 L 151.042969 449.386719 Z M 153.121094 455.242188 " fill-opacity="1" fill-rule="evenodd"/><path fill="#1d1d1b" d="M 172.980469 495.136719 L 184.714844 486.882812 C 180.535156 480.617188 176.835938 473.953125 173.53125 467.023438 L 160.75 473.425781 C 164.3125 480.90625 168.355469 488.195312 172.980469 495.136719 Z M 172.980469 495.136719 " fill-opacity="1" fill-rule="evenodd"/><path fill="#1d1d1b" d="M 203.949219 527.292969 L 211.78125 515.113281 C 205.863281 511.085938 200.410156 506.230469 195.472656 500.765625 L 185.066406 510.710938 C 190.679688 516.925781 196.996094 522.578125 203.949219 527.292969 Z M 203.949219 527.292969 " fill-opacity="1" fill-rule="evenodd"/><path fill="#1d1d1b" d="M 137.847656 323.742188 L 151.96875 325.332031 C 152.117188 323.382812 152.40625 321.429688 152.667969 319.480469 L 153.457031 313.636719 C 153.59375 312.664062 153.695312 311.6875 153.859375 310.710938 L 154.371094 307.808594 L 155.394531 301.996094 L 141.425781 299.253906 L 140.363281 305.347656 L 139.824219 308.398438 L 139.398438 311.460938 L 138.574219 317.601562 C 138.296875 319.640625 137.996094 321.691406 137.847656 323.742188 Z M 137.847656 323.742188 " fill-opacity="1" fill-rule="evenodd"/><path fill="#1d1d1b" d="M 136.308594 368.117188 L 150.519531 367.554688 C 150.394531 363.640625 150.207031 359.714844 150.316406 355.785156 C 150.394531 351.859375 150.316406 347.917969 150.59375 344.003906 L 136.398438 343.34375 C 136.109375 347.46875 136.171875 351.597656 136.109375 355.738281 C 135.972656 359.851562 136.171875 363.992188 136.308594 368.117188 Z M 136.308594 368.117188 " fill-opacity="1" fill-rule="evenodd"/><path fill="#1d1d1b" d="M 141.210938 412.128906 L 155.171875 409.316406 C 154.484375 405.464844 153.871094 401.585938 153.21875 397.722656 C 152.667969 393.84375 152.257812 389.941406 151.769531 386.054688 L 137.636719 387.589844 C 138.148438 391.695312 138.574219 395.808594 139.160156 399.898438 C 139.835938 403.976562 140.488281 408.050781 141.210938 412.128906 Z M 141.210938 412.128906 " fill-opacity="1" fill-rule="evenodd"/><path fill="#1d1d1b" d="M 178.285156 198.011719 L 190.566406 205.367188 C 192.554688 202.003906 194.507812 198.613281 196.535156 195.273438 L 202.886719 185.441406 L 191.207031 177.113281 L 184.539062 187.433594 C 182.414062 190.933594 180.375 194.496094 178.285156 198.011719 Z M 178.285156 198.011719 " fill-opacity="1" fill-rule="evenodd"/><path fill="#1d1d1b" d="M 159.222656 237.820312 L 172.382812 243.363281 C 173.746094 239.671875 175.394531 236.121094 176.933594 232.53125 C 177.746094 230.742188 178.449219 228.90625 179.335938 227.152344 L 181.898438 221.863281 L 169.191406 215.308594 L 166.515625 220.851562 C 165.589844 222.675781 164.839844 224.601562 164 226.464844 C 162.375 230.242188 160.648438 233.96875 159.222656 237.820312 Z M 159.222656 237.820312 " fill-opacity="1" fill-rule="evenodd"/><path fill="#1d1d1b" d="M 145.675781 279.792969 L 159.449219 283.433594 C 161.335938 275.792969 163.5625 268.25 166.003906 260.796875 L 152.558594 256.082031 C 149.980469 263.886719 147.652344 271.789062 145.675781 279.792969 Z M 145.675781 279.792969 " fill-opacity="1" fill-rule="evenodd"/><path fill="#1d1d1b" d="M 266.039062 101.035156 L 273.933594 113.179688 L 278.699219 109.9375 C 279.484375 109.375 280.296875 108.875 281.113281 108.386719 L 283.574219 106.898438 C 286.863281 104.910156 290.078125 102.835938 293.492188 101.070312 L 286.726562 88.226562 C 283.125 90.089844 279.710938 92.292969 276.234375 94.394531 L 273.644531 95.980469 C 272.769531 96.496094 271.90625 97.03125 271.082031 97.621094 Z M 266.039062 101.035156 " fill-opacity="1" fill-rule="evenodd"/><path fill="#1d1d1b" d="M 232.054688 128.574219 L 241.738281 139.28125 L 250.304688 131.464844 C 253.230469 128.960938 256.234375 126.523438 259.183594 124.058594 L 250.453125 112.527344 C 247.339844 115.140625 244.164062 117.695312 241.085938 120.355469 Z M 232.054688 128.574219 " fill-opacity="1" fill-rule="evenodd"/><path fill="#1d1d1b" d="M 202.851562 161.117188 L 213.980469 170.210938 C 215.171875 168.683594 216.332031 167.109375 217.558594 165.59375 L 221.3125 161.128906 L 225.0625 156.664062 L 228.992188 152.386719 L 218.636719 142.382812 L 214.507812 146.898438 L 210.566406 151.585938 L 206.628906 156.277344 C 205.328125 157.878906 204.101562 159.515625 202.851562 161.117188 Z M 202.851562 161.117188 " fill-opacity="1" fill-rule="evenodd"/><g clip-path="url(#56a50498d8)"><path fill="#1d1d1b" d="M 387.339844 56.296875 L 388.929688 70.816406 L 391.78125 70.453125 C 392.730469 70.34375 393.695312 70.292969 394.644531 70.203125 L 400.371094 69.730469 C 404.1875 69.34375 408.015625 69.292969 411.84375 69.128906 L 411.390625 54.535156 C 407.378906 54.707031 403.363281 54.769531 399.359375 55.171875 L 393.34375 55.671875 C 392.34375 55.757812 391.34375 55.820312 390.339844 55.933594 Z M 387.339844 56.296875 " fill-opacity="1" fill-rule="evenodd"/></g><path fill="#1d1d1b" d="M 344.851562 64.539062 L 348.539062 78.648438 C 355.921875 76.582031 363.386719 74.921875 370.90625 73.507812 L 368.402344 59.125 C 360.484375 60.613281 352.617188 62.375 344.851562 64.539062 Z M 344.851562 64.539062 " fill-opacity="1" fill-rule="evenodd"/><path fill="#1d1d1b" d="M 304.1875 79.324219 L 309.992188 92.65625 C 311.707031 91.777344 313.492188 91.117188 315.257812 90.339844 L 320.535156 88.101562 C 322.285156 87.3125 324.101562 86.6875 325.890625 86.027344 L 331.28125 84.039062 L 326.664062 70.230469 L 320.984375 72.320312 C 319.085938 73.03125 317.183594 73.695312 315.332031 74.519531 L 309.753906 76.882812 C 307.890625 77.695312 306 78.410156 304.1875 79.324219 Z M 304.1875 79.324219 " fill-opacity="1" fill-rule="evenodd"/><path fill="#1d1d1b" d="M 515.605469 69.40625 L 511.304688 83.324219 L 522.1875 87.125 L 532.917969 91.367188 L 538.269531 77.820312 L 527.027344 73.394531 Z M 515.605469 69.40625 " fill-opacity="1" fill-rule="evenodd"/><path fill="#1d1d1b" d="M 473.628906 58.972656 L 471.230469 73.367188 C 473.117188 73.707031 475.019531 73.980469 476.90625 74.371094 L 482.535156 75.582031 L 488.164062 76.796875 L 493.742188 78.246094 L 497.207031 64.078125 L 491.367188 62.5625 L 485.476562 61.289062 L 479.570312 60.023438 C 477.59375 59.636719 475.605469 59.335938 473.628906 58.972656 Z M 473.628906 58.972656 " fill-opacity="1" fill-rule="evenodd"/><g clip-path="url(#ececc45b72)"><path fill="#1d1d1b" d="M 430.804688 54.507812 L 430.355469 69.105469 L 436.09375 69.367188 C 438.007812 69.46875 439.933594 69.492188 441.835938 69.691406 C 445.652344 70.054688 449.476562 70.316406 453.292969 70.742188 L 454.84375 56.222656 C 450.855469 55.773438 446.851562 55.496094 442.835938 55.121094 C 440.835938 54.910156 438.835938 54.882812 436.820312 54.769531 Z M 430.804688 54.507812 " fill-opacity="1" fill-rule="evenodd"/></g><g clip-path="url(#e2ef941b77)"><path fill="#1d1d1b" d="M 593.355469 108.050781 L 585.363281 120.132812 C 586.175781 120.644531 586.949219 121.21875 587.714844 121.808594 L 590.039062 123.535156 L 594.679688 126.972656 C 596.257812 128.085938 597.707031 129.351562 599.222656 130.5625 L 603.710938 134.214844 L 612.703125 122.894531 L 607.964844 119.042969 C 606.386719 117.769531 604.835938 116.429688 603.171875 115.253906 L 598.28125 111.628906 L 595.832031 109.8125 C 595.03125 109.203125 594.207031 108.613281 593.355469 108.050781 Z M 593.355469 108.050781 " fill-opacity="1" fill-rule="evenodd"/></g><path fill="#1d1d1b" d="M 556.019531 85.976562 L 549.828125 99.132812 L 554.992188 101.695312 C 556.707031 102.574219 558.371094 103.546875 560.058594 104.472656 L 565.113281 107.261719 C 566.8125 108.175781 568.414062 109.25 570.066406 110.226562 L 577.269531 97.644531 C 575.53125 96.605469 573.84375 95.480469 572.066406 94.53125 L 566.75 91.589844 C 564.988281 90.628906 563.222656 89.601562 561.433594 88.691406 Z M 556.019531 85.976562 " fill-opacity="1" fill-rule="evenodd"/><g clip-path="url(#07c0ad8a47)"><g clip-path="url(#1c014ea937)"><g clip-path="url(#e80d491260)"><g clip-path="url(#c0e49c973b)"><path fill="#000000" d="M 577.464844 39.625 C 582.257812 37.609375 585.992188 38.335938 588.265625 39.332031 C 591.453125 40.691406 594.058594 42.675781 595.964844 45.097656 C 597.839844 44.457031 599.765625 43.960938 601.707031 43.570312 C 612.738281 41.433594 625.800781 41.203125 636.65625 42.925781 C 651.25 45.257812 662.386719 51.042969 669.035156 59.765625 C 669.503906 60.378906 669.953125 61.003906 670.367188 61.628906 C 676.011719 70.179688 677.535156 80.839844 674.964844 93.316406 C 672.808594 103.753906 667.605469 115.722656 659.5 128.964844 C 666.265625 131.597656 675.59375 135.488281 684.8125 140.191406 C 695.203125 145.511719 703.3125 150.785156 708.9375 155.894531 C 712.75 159.386719 715.46875 162.796875 717.230469 166.335938 C 719.503906 171.027344 720.070312 175.898438 718.753906 180.449219 C 716.902344 187.074219 712.519531 191.933594 706.109375 194.488281 C 696.863281 198.175781 683.753906 196.957031 666.019531 190.777344 C 656.066406 187.300781 644.890625 182.335938 632.597656 175.949219 C 634.835938 183.972656 635.136719 191.199219 633.484375 197.492188 C 631.484375 205.078125 625.570312 210.984375 618.382812 212.523438 C 611.765625 213.933594 605.101562 211.4375 600.566406 205.804688 C 596.660156 200.960938 594.410156 196.855469 592.257812 192.886719 C 589.984375 188.710938 587.832031 184.777344 583.5 179.378906 C 582.484375 178.121094 581.238281 176.132812 579.304688 173 C 578.484375 171.683594 577.382812 169.886719 576.988281 169.367188 C 576.976562 169.347656 576.960938 169.332031 576.960938 169.332031 C 576.476562 168.699219 575.386719 167.863281 574.328125 167.03125 C 574.035156 166.804688 573.722656 166.554688 573.425781 166.324219 C 566.726562 161.035156 561.1875 154.167969 557.339844 146.460938 C 557.164062 146.109375 557.003906 145.746094 556.828125 145.394531 C 550.6875 146.441406 546.476562 143.773438 544.621094 142.21875 C 538.960938 137.5 536.28125 128.539062 536.648438 115.558594 C 536.933594 105.640625 539.027344 94.644531 542.28125 86.160156 C 545.691406 77.285156 551.296875 67.160156 557.648438 58.40625 C 562.625 51.550781 570.097656 42.757812 577.464844 39.625 Z M 577.464844 39.625 " fill-opacity="1" fill-rule="nonzero"/></g></g></g></g><g clip-path="url(#b9236666c4)"><g clip-path="url(#df294a2ab8)"><g clip-path="url(#7816cbf683)"><g clip-path="url(#05feb9d3f2)"><path fill="#ffffff" d="M 591.023438 57.445312 C 585.796875 63.464844 581.523438 70.089844 578.085938 76.863281 C 572.53125 87.890625 569.207031 99.304688 567.792969 109.085938 C 566.738281 116.40625 566.707031 122.796875 567.558594 127.453125 C 567.570312 127.503906 567.566406 127.539062 567.59375 127.578125 C 568.199219 130.753906 569.46875 133.726562 571.175781 136.640625 C 571.355469 136.957031 571.539062 137.238281 571.722656 137.554688 C 575.886719 144.167969 582.3125 150.332031 588.527344 157.050781 C 588.902344 157.464844 589.277344 157.875 589.652344 158.285156 C 595.253906 164.441406 600.535156 171.085938 603.699219 179.011719 C 603.980469 179.734375 604.261719 180.460938 604.503906 181.214844 C 608.722656 193.699219 615.828125 199.285156 621.410156 201.757812 C 621.46875 201.714844 621.53125 201.636719 621.585938 201.59375 C 621.664062 201.535156 621.726562 201.457031 621.785156 201.414062 C 621.921875 201.277344 622.0625 201.140625 622.179688 201.019531 C 622.242188 200.941406 622.320312 200.882812 622.363281 200.820312 C 622.441406 200.726562 622.542969 200.621094 622.625 200.53125 C 622.6875 200.453125 622.730469 200.390625 622.804688 200.332031 C 622.929688 200.175781 623.054688 200.019531 623.179688 199.863281 C 623.21875 199.800781 623.246094 199.753906 623.300781 199.710938 C 623.386719 199.582031 623.492188 199.441406 623.578125 199.316406 C 623.621094 199.253906 623.664062 199.191406 623.6875 199.144531 C 623.816406 198.953125 623.910156 198.761719 624.039062 198.570312 C 624.125 198.445312 624.175781 198.316406 624.261719 198.1875 C 624.28125 198.175781 624.285156 198.140625 624.285156 198.140625 C 624.339844 198.011719 624.421875 197.882812 624.476562 197.753906 C 624.496094 197.738281 624.480469 197.71875 624.5 197.707031 C 624.621094 197.429688 624.746094 197.152344 624.855469 196.859375 C 624.859375 196.824219 624.882812 196.777344 624.886719 196.742188 C 624.933594 196.644531 624.964844 196.53125 624.996094 196.449219 C 625.019531 196.398438 625.042969 196.351562 625.03125 196.296875 C 625.078125 196.203125 625.09375 196.101562 625.140625 196.003906 C 625.164062 195.957031 625.167969 195.921875 625.179688 195.855469 C 625.214844 195.703125 625.265625 195.574219 625.285156 195.4375 C 625.285156 195.4375 625.285156 195.4375 625.289062 195.40625 C 625.367188 195.070312 625.460938 194.757812 625.523438 194.4375 C 625.535156 194.335938 625.5625 194.253906 625.578125 194.152344 C 625.628906 193.902344 625.683594 193.617188 625.734375 193.367188 C 625.746094 193.300781 625.773438 193.21875 625.765625 193.132812 C 625.8125 192.792969 625.871094 192.476562 625.882812 192.132812 C 625.878906 192.046875 625.90625 191.964844 625.902344 191.875 C 625.9375 191.605469 625.953125 191.351562 625.972656 191.09375 C 625.984375 190.996094 626 190.894531 625.980469 190.785156 C 626.003906 190.464844 626.015625 190.121094 626.023438 189.8125 C 626.027344 189.78125 626.03125 189.746094 626.039062 189.710938 C 626.042969 189.402344 626.035156 189.074219 626.027344 188.746094 C 626.027344 188.628906 626.023438 188.539062 626.023438 188.421875 C 626.003906 188.160156 626.023438 187.90625 626.003906 187.644531 C 626 187.558594 626.011719 187.457031 625.992188 187.351562 C 625.972656 187.003906 625.945312 186.691406 625.921875 186.34375 C 625.902344 186.238281 625.914062 186.136719 625.894531 186.03125 C 625.878906 185.769531 625.84375 185.523438 625.808594 185.28125 C 625.804688 185.160156 625.785156 185.054688 625.769531 184.914062 C 625.742188 184.601562 625.699219 184.300781 625.636719 183.984375 C 625.632812 183.898438 625.605469 183.824219 625.601562 183.738281 C 625.554688 183.441406 625.511719 183.140625 625.445312 182.859375 C 625.410156 182.734375 625.410156 182.613281 625.375 182.488281 C 625.339844 182.242188 625.269531 181.992188 625.234375 181.746094 C 625.214844 181.640625 625.191406 181.535156 625.171875 181.429688 C 625.097656 181.089844 625.035156 180.773438 624.960938 180.4375 C 624.941406 180.332031 624.90625 180.207031 624.886719 180.101562 C 624.832031 179.871094 624.761719 179.621094 624.707031 179.386719 C 624.671875 179.261719 624.652344 179.15625 624.617188 179.03125 C 624.539062 178.730469 624.457031 178.425781 624.363281 178.105469 C 624.339844 178.03125 624.316406 177.960938 624.289062 177.886719 C 624.210938 177.585938 624.125 177.316406 624.027344 177.027344 C 623.992188 176.902344 623.953125 176.8125 623.917969 176.6875 C 623.847656 176.4375 623.746094 176.179688 623.675781 175.929688 C 623.636719 175.839844 623.632812 175.753906 623.59375 175.660156 C 623.484375 175.320312 623.371094 175.011719 623.261719 174.671875 C 623.234375 174.597656 623.195312 174.507812 623.171875 174.4375 C 623.089844 174.167969 622.984375 173.910156 622.882812 173.65625 C 622.84375 173.566406 622.816406 173.492188 622.777344 173.402344 C 622.542969 172.734375 622.285156 172.082031 622.011719 171.441406 C 621.984375 171.371094 621.957031 171.332031 621.929688 171.257812 C 621.816406 170.953125 621.683594 170.660156 621.550781 170.367188 C 621.539062 170.347656 621.523438 170.328125 621.527344 170.292969 C 621.386719 169.949219 621.238281 169.636719 621.09375 169.289062 C 621.09375 169.289062 621.082031 169.269531 621.082031 169.269531 C 620.933594 168.957031 620.792969 168.613281 620.644531 168.300781 C 620.628906 168.28125 620.628906 168.28125 620.613281 168.261719 C 620.480469 167.96875 620.335938 167.65625 620.203125 167.363281 C 620.191406 167.3125 620.148438 167.253906 620.121094 167.214844 C 619.988281 166.921875 619.855469 166.628906 619.703125 166.351562 C 619.554688 166.039062 619.40625 165.726562 619.257812 165.449219 C 619.257812 165.449219 619.242188 165.429688 619.242188 165.429688 C 618.496094 163.9375 617.753906 162.5625 617.074219 161.355469 L 613.804688 155.996094 L 608.605469 147.867188 C 608.605469 147.867188 622.355469 153.78125 639.304688 160.675781 C 657.207031 167.941406 678.679688 176.242188 691.324219 179.753906 C 692.402344 180.054688 693.429688 180.332031 694.382812 180.542969 C 703.652344 182.570312 708.46875 179.351562 711.011719 174.746094 C 709.621094 156.433594 658.878906 137.566406 648.542969 133.898438 C 648.542969 133.898438 648.527344 133.878906 648.507812 133.894531 C 648.425781 133.867188 648.375 133.84375 648.308594 133.832031 C 648.277344 133.828125 648.261719 133.808594 648.226562 133.804688 C 648.179688 133.78125 648.128906 133.757812 648.078125 133.769531 C 648.042969 133.765625 647.996094 133.738281 647.960938 133.734375 C 647.929688 133.730469 647.894531 133.726562 647.878906 133.707031 C 647.832031 133.683594 647.78125 133.660156 647.730469 133.667969 C 647.714844 133.652344 647.695312 133.664062 647.679688 133.644531 C 647.058594 133.425781 646.730469 133.3125 646.730469 133.3125 L 639.269531 129.328125 L 638.035156 128.664062 C 639.386719 127.574219 640.667969 126.476562 641.917969 125.371094 C 656.171875 112.683594 663.609375 99.160156 667.402344 87.6875 C 671.03125 59.515625 646.902344 51.117188 625.023438 50.3125 C 624.992188 50.308594 624.972656 50.324219 624.957031 50.304688 C 624.800781 50.300781 624.648438 50.296875 624.492188 50.292969 C 624.460938 50.289062 624.40625 50.296875 624.375 50.292969 C 624.21875 50.289062 624.066406 50.285156 623.910156 50.28125 C 623.878906 50.277344 623.84375 50.273438 623.824219 50.289062 C 623.550781 50.285156 623.273438 50.28125 623 50.28125 C 622.933594 50.269531 622.847656 50.277344 622.777344 50.269531 C 622.65625 50.269531 622.554688 50.253906 622.449219 50.273438 C 622.347656 50.261719 622.261719 50.265625 622.140625 50.269531 C 622.039062 50.253906 621.933594 50.273438 621.832031 50.261719 C 621.714844 50.261719 621.59375 50.261719 621.472656 50.261719 C 621.386719 50.269531 621.316406 50.257812 621.230469 50.265625 C 621.023438 50.269531 620.835938 50.261719 620.628906 50.269531 C 620.609375 50.285156 620.59375 50.265625 620.578125 50.28125 C 619.699219 50.28125 618.835938 50.300781 617.972656 50.324219 C 617.921875 50.332031 617.855469 50.324219 617.800781 50.335938 C 617.628906 50.347656 617.421875 50.351562 617.246094 50.363281 C 617.195312 50.375 617.125 50.363281 617.074219 50.375 C 616.503906 50.382812 615.933594 50.425781 615.378906 50.453125 C 615.292969 50.460938 615.203125 50.464844 615.117188 50.472656 C 614.964844 50.46875 614.804688 50.496094 614.652344 50.492188 C 614.5625 50.5 614.445312 50.5 614.355469 50.503906 C 614.21875 50.519531 614.0625 50.519531 613.921875 50.535156 C 613.804688 50.535156 613.699219 50.554688 613.578125 50.554688 C 613.351562 50.578125 613.125 50.597656 612.882812 50.597656 C 612.761719 50.601562 612.65625 50.621094 612.515625 50.636719 C 612.398438 50.636719 612.257812 50.652344 612.152344 50.671875 C 612.03125 50.671875 611.90625 50.707031 611.785156 50.707031 C 611.664062 50.710938 611.558594 50.730469 611.417969 50.746094 C 611.28125 50.761719 611.105469 50.773438 610.96875 50.789062 C 610.828125 50.804688 610.6875 50.820312 610.546875 50.832031 C 610.375 50.84375 610.214844 50.875 610.042969 50.886719 C 609.9375 50.90625 609.851562 50.910156 609.746094 50.933594 C 609.605469 50.945312 609.464844 50.960938 609.324219 50.976562 C 609.21875 51 609.132812 51.003906 609.027344 51.023438 C 608.867188 51.054688 608.714844 51.050781 608.554688 51.082031 C 608.46875 51.085938 608.414062 51.097656 608.328125 51.101562 C 608.101562 51.121094 607.890625 51.164062 607.664062 51.183594 C 607.578125 51.1875 607.503906 51.214844 607.4375 51.203125 C 607.28125 51.234375 607.140625 51.25 606.980469 51.28125 C 606.894531 51.285156 606.824219 51.3125 606.734375 51.316406 C 606.578125 51.347656 606.4375 51.363281 606.277344 51.390625 C 606.207031 51.417969 606.140625 51.40625 606.066406 51.433594 C 605.855469 51.472656 605.628906 51.492188 605.417969 51.535156 C 605.363281 51.542969 605.3125 51.554688 605.257812 51.5625 C 605.101562 51.59375 604.941406 51.625 604.765625 51.636719 C 604.695312 51.660156 604.628906 51.652344 604.554688 51.675781 C 604.417969 51.691406 604.257812 51.722656 604.132812 51.753906 C 604.058594 51.78125 603.992188 51.769531 603.921875 51.796875 C 603.726562 51.820312 603.53125 51.878906 603.339844 51.90625 C 603.339844 51.90625 603.320312 51.921875 603.304688 51.902344 C 602.902344 51.96875 602.511719 52.050781 602.101562 52.152344 C 602.03125 52.175781 601.945312 52.183594 601.890625 52.191406 C 601.554688 52.265625 601.230469 52.359375 600.894531 52.4375 C 600.734375 52.464844 600.59375 52.515625 600.449219 52.566406 C 600.199219 52.632812 599.949219 52.703125 599.710938 52.792969 C 599.585938 52.828125 599.476562 52.878906 599.351562 52.914062 C 596.910156 53.6875 594.605469 54.714844 592.410156 55.964844 C 591.9375 56.417969 591.488281 56.941406 591.023438 57.445312 Z M 624.179688 104.976562 C 624.578125 105.21875 624.898438 105.519531 625.160156 105.863281 C 626.039062 107.015625 626.183594 108.632812 625.371094 109.949219 C 624.332031 111.648438 622.117188 112.160156 620.429688 111.140625 C 620.269531 111.050781 612.472656 106.507812 591.84375 102.414062 C 590.453125 102.140625 589.410156 101.089844 589.050781 99.785156 C 588.914062 99.285156 588.882812 98.730469 589.007812 98.179688 C 589.171875 97.359375 589.609375 96.660156 590.191406 96.15625 C 590.992188 95.457031 592.101562 95.125 593.242188 95.347656 C 615.511719 99.765625 623.847656 104.777344 624.179688 104.976562 Z M 599.367188 72.515625 C 621.527344 74.167969 630.902344 78.992188 631.285156 79.21875 C 631.75 79.46875 632.167969 79.816406 632.472656 80.21875 C 633.292969 81.292969 633.484375 82.816406 632.796875 84.097656 C 631.871094 85.863281 629.703125 86.515625 627.949219 85.609375 C 627.792969 85.519531 619.167969 81.242188 598.863281 79.722656 C 597.09375 79.585938 595.734375 78.199219 595.550781 76.488281 C 595.542969 76.28125 595.523438 76.054688 595.550781 75.851562 C 595.597656 75.242188 595.792969 74.664062 596.117188 74.175781 C 596.746094 73.089844 597.988281 72.417969 599.367188 72.515625 Z M 599.367188 72.515625 " fill-opacity="1" fill-rule="nonzero"/></g></g></g></g><g clip-path="url(#91184c7791)"><g clip-path="url(#ccab29327c)"><g clip-path="url(#b3b3f0a132)"><g clip-path="url(#b3825009d7)"><path fill="#cccccc" d="M 584.957031 47.070312 C 586.128906 47.570312 587.097656 48.164062 587.886719 48.804688 C 578.492188 54.242188 570.421875 63.277344 564.117188 75.511719 C 557.402344 88.511719 552.832031 105.398438 551.863281 120.6875 C 551.511719 126.109375 552.171875 131.699219 553.753906 137.191406 C 542.015625 136.65625 543.492188 106.457031 550.148438 89.167969 C 557.820312 69.160156 577.15625 43.710938 584.957031 47.070312 Z M 613.992188 155.882812 C 667.300781 187.617188 705.175781 197.714844 710.6875 178.171875 C 710.726562 178.023438 710.761719 177.875 710.800781 177.722656 C 710.828125 177.640625 710.84375 177.542969 710.855469 177.441406 C 710.878906 177.390625 710.871094 177.339844 710.894531 177.289062 C 711.039062 176.449219 711.085938 175.597656 711.011719 174.746094 C 708.46875 179.351562 703.652344 182.570312 694.589844 180.417969 C 693.636719 180.203125 692.609375 179.925781 691.53125 179.625 C 678.867188 176.128906 657.414062 167.816406 639.511719 160.550781 C 622.554688 153.6875 608.808594 147.738281 608.808594 147.738281 Z M 617.261719 161.242188 C 615.582031 158.246094 614.265625 156.28125 614.035156 155.941406 C 614.003906 155.902344 613.992188 155.882812 613.992188 155.882812 Z M 561.953125 108.144531 C 561.945312 108.210938 561.914062 108.292969 561.90625 108.359375 C 561.851562 108.644531 561.808594 108.949219 561.734375 109.25 C 561.703125 109.363281 561.703125 109.484375 561.671875 109.601562 C 561.636719 109.871094 561.578125 110.15625 561.527344 110.40625 C 561.511719 110.542969 561.492188 110.675781 561.457031 110.828125 C 561.402344 111.078125 561.367188 111.347656 561.335938 111.585938 C 561.300781 111.734375 561.296875 111.886719 561.257812 112.039062 C 561.226562 112.273438 561.195312 112.511719 561.144531 112.761719 C 561.09375 113.011719 561.074219 113.269531 561.042969 113.503906 C 560.988281 113.789062 560.96875 114.078125 560.929688 114.347656 C 560.898438 114.585938 560.867188 114.820312 560.855469 115.042969 C 560.832031 115.210938 560.808594 115.382812 560.785156 115.550781 C 560.753906 115.785156 560.742188 116.007812 560.695312 116.226562 C 560.671875 116.394531 560.667969 116.546875 560.648438 116.71875 C 560.613281 116.953125 560.601562 117.175781 560.570312 117.414062 C 560.566406 117.566406 560.53125 117.714844 560.527344 117.871094 C 560.496094 118.105469 560.476562 118.363281 560.464844 118.585938 C 560.445312 118.71875 560.441406 118.875 560.425781 119.007812 C 560.40625 119.265625 560.371094 119.535156 560.355469 119.789062 C 560.339844 119.890625 560.34375 120.011719 560.328125 120.113281 C 560.3125 120.488281 560.28125 120.847656 560.25 121.203125 C 560.199219 121.96875 560.1875 122.707031 560.167969 123.480469 C 560.179688 127.109375 560.695312 130.683594 561.621094 134.164062 C 562.382812 136.949219 563.394531 139.664062 564.675781 142.261719 C 567.304688 147.652344 570.90625 152.574219 575.15625 156.640625 C 575.449219 156.902344 575.722656 157.179688 576.011719 157.441406 C 576.320312 157.722656 576.625 158.007812 576.949219 158.273438 C 577.503906 158.761719 578.074219 159.234375 578.667969 159.691406 C 579.738281 160.542969 580.851562 161.363281 581.863281 162.253906 C 582.570312 162.902344 583.25 163.59375 583.800781 164.355469 C 585.078125 166.109375 588.722656 172.363281 590.0625 174.039062 C 596.175781 181.65625 598.492188 186.921875 601.558594 192.25 C 601.65625 192.417969 601.753906 192.585938 601.867188 192.773438 C 601.964844 192.941406 602.078125 193.128906 602.191406 193.316406 C 602.234375 193.375 602.257812 193.445312 602.300781 193.503906 C 602.570312 193.9375 602.835938 194.402344 603.105469 194.832031 C 604.238281 196.636719 605.519531 198.476562 607.125 200.464844 C 607.242188 200.617188 607.378906 200.757812 607.496094 200.910156 C 607.527344 200.949219 607.554688 200.988281 607.585938 201.027344 C 607.671875 201.140625 607.777344 201.242188 607.886719 201.339844 C 607.914062 201.378906 607.945312 201.417969 607.976562 201.421875 C 608.097656 201.542969 608.234375 201.679688 608.355469 201.800781 C 608.371094 201.820312 608.402344 201.859375 608.433594 201.863281 C 608.542969 201.964844 608.648438 202.0625 608.773438 202.148438 C 608.804688 202.1875 608.851562 202.210938 608.882812 202.25 C 608.988281 202.351562 609.113281 202.4375 609.222656 202.535156 C 609.234375 202.554688 609.25 202.574219 609.285156 202.578125 C 609.425781 202.683594 609.550781 202.769531 609.691406 202.875 C 609.738281 202.898438 609.753906 202.917969 609.800781 202.941406 C 609.914062 203.007812 610.023438 203.074219 610.136719 203.140625 C 610.183594 203.164062 610.199219 203.183594 610.25 203.207031 C 610.394531 203.277344 610.519531 203.363281 610.664062 203.4375 C 610.808594 203.507812 610.953125 203.578125 611.085938 203.628906 C 611.117188 203.636719 611.148438 203.671875 611.183594 203.679688 C 611.3125 203.730469 611.425781 203.796875 611.539062 203.828125 C 611.574219 203.832031 611.589844 203.851562 611.621094 203.859375 C 611.765625 203.929688 611.917969 203.964844 612.066406 204.003906 C 612.082031 204.023438 612.101562 204.007812 612.113281 204.027344 C 612.246094 204.078125 612.378906 204.097656 612.511719 204.148438 C 612.542969 204.152344 612.558594 204.171875 612.59375 204.179688 C 612.894531 204.253906 613.191406 204.328125 613.496094 204.367188 C 613.496094 204.367188 613.53125 204.375 613.53125 204.375 C 613.664062 204.390625 613.800781 204.410156 613.953125 204.414062 C 613.953125 204.414062 613.988281 204.417969 613.988281 204.417969 C 614.3125 204.445312 614.621094 204.453125 614.929688 204.457031 C 614.929688 204.457031 614.929688 204.457031 614.945312 204.445312 C 615.152344 204.4375 615.363281 204.429688 615.554688 204.40625 C 615.605469 204.394531 615.660156 204.386719 615.710938 204.375 C 615.90625 204.351562 616.097656 204.324219 616.289062 204.300781 C 616.324219 204.304688 616.363281 204.273438 616.394531 204.277344 C 616.554688 204.25 616.714844 204.21875 616.890625 204.171875 C 616.945312 204.164062 617.015625 204.140625 617.070312 204.128906 C 617.246094 204.085938 617.425781 204.039062 617.621094 203.980469 C 617.675781 203.96875 617.746094 203.945312 617.785156 203.917969 C 617.929688 203.867188 618.054688 203.832031 618.183594 203.765625 C 618.257812 203.738281 618.328125 203.714844 618.367188 203.683594 C 618.53125 203.621094 618.710938 203.542969 618.863281 203.460938 C 618.933594 203.433594 618.992188 203.390625 619.0625 203.367188 C 619.171875 203.3125 619.304688 203.246094 619.414062 203.191406 C 619.472656 203.148438 619.542969 203.121094 619.601562 203.078125 C 619.75 202.996094 619.917969 202.898438 620.050781 202.796875 C 620.109375 202.75 620.183594 202.691406 620.257812 202.667969 C 620.351562 202.59375 620.480469 202.527344 620.578125 202.453125 C 620.636719 202.410156 620.710938 202.351562 620.769531 202.308594 C 620.902344 202.207031 621.058594 202.089844 621.191406 201.988281 C 621.269531 201.929688 621.324219 201.882812 621.386719 201.804688 C 621.425781 201.777344 621.464844 201.75 621.484375 201.734375 C 615.886719 199.242188 608.777344 193.691406 604.574219 181.191406 C 604.3125 180.453125 604.050781 179.710938 603.769531 178.984375 C 600.621094 171.082031 595.328125 164.417969 589.722656 158.261719 C 589.351562 157.851562 588.976562 157.4375 588.601562 157.027344 C 582.386719 150.308594 575.945312 144.125 571.792969 137.53125 C 571.59375 137.226562 571.425781 136.929688 571.246094 136.613281 C 569.519531 133.714844 568.273438 130.726562 567.667969 127.550781 C 567.65625 127.5 567.660156 127.464844 567.632812 127.425781 C 566.777344 122.773438 566.8125 116.382812 567.863281 109.0625 C 569.28125 99.28125 572.566406 87.863281 578.15625 76.839844 C 581.59375 70.066406 585.871094 63.4375 591.097656 57.421875 C 591.546875 56.898438 592.007812 56.394531 592.492188 55.875 C 592.0625 56.109375 591.652344 56.363281 591.21875 56.632812 C 587.359375 59 583.90625 62.054688 580.839844 65.578125 C 570.769531 77.046875 564.730469 93.472656 561.953125 108.144531 Z M 638.007812 128.625 L 639.242188 129.292969 L 646.699219 133.273438 C 647.128906 132.644531 647.539062 132.027344 647.945312 131.414062 C 648.09375 131.207031 648.207031 131 648.335938 130.8125 C 648.597656 130.398438 648.875 130.007812 649.136719 129.597656 C 649.308594 129.34375 649.460938 129.105469 649.617188 128.835938 C 649.835938 128.488281 650.074219 128.125 650.292969 127.773438 C 650.46875 127.488281 650.640625 127.238281 650.796875 126.964844 C 651.011719 126.652344 651.191406 126.332031 651.40625 126.015625 C 651.582031 125.730469 651.757812 125.445312 651.933594 125.160156 C 652.109375 124.875 652.304688 124.574219 652.464844 124.269531 C 652.640625 123.984375 652.835938 123.683594 652.996094 123.378906 C 653.152344 123.105469 653.328125 122.820312 653.488281 122.550781 C 653.667969 122.230469 653.84375 121.945312 654.023438 121.625 C 654.160156 121.367188 654.3125 121.132812 654.449219 120.875 C 654.632812 120.554688 654.8125 120.234375 654.992188 119.917969 C 655.125 119.695312 655.257812 119.472656 655.371094 119.261719 C 655.570312 118.929688 655.757812 118.574219 655.9375 118.253906 C 656.03125 118.0625 656.140625 117.886719 656.253906 117.679688 C 656.460938 117.3125 656.644531 116.957031 656.847656 116.589844 C 656.917969 116.445312 657.003906 116.320312 657.078125 116.175781 C 657.285156 115.773438 657.511719 115.355469 657.722656 114.953125 C 657.746094 114.90625 657.769531 114.859375 657.792969 114.808594 C 657.996094 114.441406 658.167969 114.070312 658.371094 113.703125 C 658.441406 113.554688 658.53125 113.398438 658.601562 113.25 C 658.71875 113.042969 658.816406 112.816406 658.929688 112.609375 C 659.007812 112.429688 659.117188 112.253906 659.191406 112.074219 C 659.265625 111.898438 659.375 111.722656 659.453125 111.542969 C 659.546875 111.351562 659.640625 111.15625 659.734375 110.964844 C 659.789062 110.832031 659.875 110.707031 659.925781 110.574219 C 660.308594 109.769531 660.671875 108.976562 661.039062 108.183594 C 661.082031 108.117188 661.089844 108.050781 661.132812 107.988281 C 661.253906 107.710938 661.378906 107.4375 661.484375 107.175781 C 661.507812 107.128906 661.53125 107.078125 661.535156 107.046875 C 664.757812 99.675781 666.605469 93.238281 667.332031 87.558594 C 663.558594 99.015625 656.121094 112.539062 641.847656 125.242188 C 640.65625 126.421875 639.355469 127.535156 638.007812 128.625 Z M 638.007812 128.625 " fill-opacity="1" fill-rule="nonzero"/></g></g></g></g></svg>