<svg xmlns="http://www.w3.org/2000/svg" xmlns:xlink="http://www.w3.org/1999/xlink" width="1080" zoomAndPan="magnify" viewBox="0 0 810 809.999993" height="1080" preserveAspectRatio="xMidYMid meet" version="1.0"><defs><g/><clipPath id="40929dc99c"><path d="M 119 56 L 691 56 L 691 648 L 119 648 Z M 119 56 " clip-rule="nonzero"/></clipPath><clipPath id="6820c0f5e3"><path d="M 415.722656 60.550781 L 422.46875 66.457031 C 428.902344 72.085938 438.175781 73.070312 445.644531 68.917969 L 453.296875 64.664062 C 460.429688 60.695312 469.398438 62.609375 474.292969 69.144531 L 479.800781 76.5 C 484.929688 83.347656 493.792969 86.257812 501.980469 83.78125 L 510.207031 81.292969 C 518.035156 78.921875 526.414062 82.667969 529.867188 90.082031 L 533.832031 98.589844 C 537.449219 106.359375 545.511719 111.0625 554.054688 110.386719 L 562.542969 109.71875 C 570.714844 109.074219 578.136719 114.488281 580.015625 122.46875 L 582.199219 131.742188 C 584.167969 140.101562 591.074219 146.386719 599.582031 147.558594 L 608.027344 148.71875 C 616.171875 149.839844 622.3125 156.691406 622.535156 164.910156 L 622.800781 174.492188 C 623.035156 183.09375 628.492188 190.679688 636.570312 193.644531 L 644.671875 196.617188 C 652.414062 199.457031 657 207.4375 655.554688 215.554688 L 653.878906 224.957031 C 652.371094 233.445312 656.140625 242 663.421875 246.613281 L 670.859375 251.328125 C 677.835938 255.75 680.671875 264.515625 677.605469 272.1875 L 674.101562 280.941406 C 670.894531 288.957031 672.820312 298.109375 678.980469 304.152344 L 685.425781 310.472656 C 691.328125 316.261719 692.289062 325.429688 687.707031 332.316406 L 682.589844 340.015625 C 677.808594 347.203125 677.808594 356.558594 682.589844 363.75 L 687.707031 371.449219 C 692.289062 378.335938 691.328125 387.503906 685.425781 393.292969 L 678.980469 399.613281 C 672.820312 405.65625 670.894531 414.808594 674.101562 422.820312 L 677.605469 431.578125 C 680.671875 439.246094 677.835938 448.011719 670.859375 452.433594 L 663.421875 457.148438 C 656.140625 461.761719 652.371094 470.320312 653.878906 478.804688 L 655.554688 488.210938 C 657 496.324219 652.414062 504.308594 644.671875 507.148438 L 636.570312 510.121094 C 628.492188 513.082031 623.035156 520.671875 622.800781 529.273438 L 622.535156 538.855469 C 622.3125 547.074219 616.171875 553.921875 608.027344 555.042969 L 599.582031 556.207031 C 591.074219 557.375 584.167969 563.660156 582.199219 572.019531 L 580.015625 581.292969 C 578.136719 589.273438 570.714844 594.6875 562.542969 594.042969 L 554.054688 593.375 C 545.511719 592.703125 537.449219 597.40625 533.832031 605.171875 L 529.867188 613.683594 C 526.414062 621.09375 518.035156 624.839844 510.207031 622.472656 L 501.980469 619.984375 C 493.792969 617.507812 484.929688 620.414062 479.800781 627.261719 L 474.292969 634.617188 C 469.398438 641.152344 460.429688 643.066406 453.296875 639.101562 L 445.644531 634.847656 C 438.175781 630.691406 428.902344 631.675781 422.46875 637.304688 L 415.722656 643.210938 C 409.582031 648.585938 400.417969 648.585938 394.277344 643.210938 L 387.53125 637.304688 C 381.097656 631.675781 371.824219 630.691406 364.355469 634.847656 L 356.703125 639.101562 C 349.566406 643.066406 340.601562 641.152344 335.707031 634.617188 L 330.199219 627.261719 C 325.070312 620.414062 316.207031 617.507812 308.019531 619.984375 L 299.792969 622.472656 C 291.964844 624.839844 283.585938 621.09375 280.132812 613.683594 L 276.167969 605.171875 C 272.550781 597.40625 264.488281 592.703125 255.945312 593.375 L 247.457031 594.042969 C 239.285156 594.6875 231.863281 589.273438 229.984375 581.292969 L 227.800781 572.019531 C 225.832031 563.660156 218.925781 557.375 210.417969 556.207031 L 201.96875 555.042969 C 193.828125 553.921875 187.6875 547.074219 187.460938 538.855469 L 187.199219 529.273438 C 186.964844 520.671875 181.507812 513.082031 173.429688 510.121094 L 165.328125 507.148438 C 157.585938 504.308594 153 496.324219 154.445312 488.210938 L 156.121094 478.804688 C 157.628906 470.320312 153.859375 461.761719 146.578125 457.148438 L 139.140625 452.433594 C 132.160156 448.011719 129.328125 439.246094 132.394531 431.578125 L 135.898438 422.820312 C 139.105469 414.808594 137.179688 405.65625 131.019531 399.613281 L 124.574219 393.292969 C 118.671875 387.503906 117.710938 378.335938 122.292969 371.449219 L 127.410156 363.75 C 132.191406 356.558594 132.191406 347.203125 127.410156 340.015625 L 122.292969 332.316406 C 117.710938 325.429688 118.671875 316.261719 124.574219 310.472656 L 131.019531 304.152344 C 137.179688 298.109375 139.105469 288.957031 135.898438 280.941406 L 132.394531 272.1875 C 129.328125 264.515625 132.160156 255.75 139.140625 251.328125 L 146.578125 246.613281 C 153.859375 242 157.628906 233.445312 156.121094 224.957031 L 154.445312 215.554688 C 153 207.4375 157.585938 199.457031 165.328125 196.617188 L 173.429688 193.644531 C 181.507812 190.679688 186.964844 183.09375 187.199219 174.492188 L 187.460938 164.910156 C 187.6875 156.691406 193.828125 149.839844 201.96875 148.71875 L 210.417969 147.558594 C 218.925781 146.386719 225.832031 140.101562 227.800781 131.742188 L 229.984375 122.46875 C 231.863281 114.488281 239.285156 109.074219 247.457031 109.71875 L 255.945312 110.386719 C 264.488281 111.0625 272.550781 106.359375 276.167969 98.589844 L 280.132812 90.082031 C 283.585938 82.667969 291.964844 78.921875 299.792969 81.292969 L 308.019531 83.78125 C 316.207031 86.257812 325.070312 83.347656 330.199219 76.5 L 335.707031 69.144531 C 340.601562 62.609375 349.566406 60.695312 356.703125 64.664062 L 364.355469 68.917969 C 371.824219 73.070312 381.097656 72.085938 387.53125 66.457031 L 394.277344 60.550781 C 400.417969 55.179688 409.582031 55.179688 415.722656 60.550781 Z M 415.722656 60.550781 " clip-rule="nonzero"/></clipPath><clipPath id="3ffb8075b4"><path d="M 119 56 L 691 56 L 691 648 L 119 648 Z M 119 56 " clip-rule="nonzero"/></clipPath><clipPath id="108a02f7d4"><path d="M 415.71875 60.554688 L 422.464844 66.460938 C 428.898438 72.089844 438.171875 73.074219 445.644531 68.917969 L 453.292969 64.664062 C 460.429688 60.699219 469.394531 62.613281 474.289062 69.148438 L 479.796875 76.503906 C 484.925781 83.351562 493.789062 86.257812 501.976562 83.78125 L 510.207031 81.292969 C 518.03125 78.925781 526.410156 82.671875 529.863281 90.082031 L 533.828125 98.59375 C 537.445312 106.359375 545.507812 111.0625 554.050781 110.390625 L 562.539062 109.71875 C 570.710938 109.074219 578.132812 114.492188 580.011719 122.472656 L 582.195312 131.746094 C 584.164062 140.101562 591.070312 146.386719 599.578125 147.558594 L 608.023438 148.722656 C 616.167969 149.84375 622.308594 156.691406 622.53125 164.910156 L 622.796875 174.492188 C 623.03125 183.09375 628.488281 190.683594 636.566406 193.644531 L 644.667969 196.617188 C 652.40625 199.457031 656.996094 207.4375 655.550781 215.554688 L 653.875 224.960938 C 652.363281 233.445312 656.132812 242.003906 663.414062 246.617188 L 670.855469 251.328125 C 677.832031 255.75 680.667969 264.519531 677.597656 272.1875 L 674.09375 280.945312 C 670.890625 288.957031 672.8125 298.109375 678.976562 304.152344 L 685.417969 310.472656 C 691.324219 316.261719 692.28125 325.429688 687.703125 332.316406 L 682.585938 340.015625 C 677.804688 347.203125 677.804688 356.558594 682.585938 363.746094 L 687.703125 371.449219 C 692.28125 378.335938 691.324219 387.5 685.417969 393.292969 L 678.976562 399.613281 C 672.8125 405.652344 670.890625 414.808594 674.09375 422.820312 L 677.597656 431.574219 C 680.667969 439.246094 677.832031 448.011719 670.855469 452.433594 L 663.414062 457.148438 C 656.132812 461.761719 652.363281 470.316406 653.875 478.804688 L 655.550781 488.207031 C 656.996094 496.324219 652.40625 504.304688 644.667969 507.144531 L 636.566406 510.117188 C 628.488281 513.082031 623.03125 520.667969 622.796875 529.269531 L 622.53125 538.851562 C 622.308594 547.070312 616.167969 553.917969 608.023438 555.039062 L 599.578125 556.203125 C 591.070312 557.375 584.164062 563.660156 582.195312 572.015625 L 580.011719 581.292969 C 578.132812 589.269531 570.710938 594.6875 562.539062 594.042969 L 554.050781 593.371094 C 545.507812 592.699219 537.445312 597.402344 533.828125 605.167969 L 529.863281 613.679688 C 526.410156 621.089844 518.03125 624.835938 510.207031 622.46875 L 501.976562 619.980469 C 493.789062 617.503906 484.925781 620.414062 479.796875 627.261719 L 474.289062 634.617188 C 469.398438 641.148438 460.429688 643.0625 453.292969 639.097656 L 445.644531 634.84375 C 438.171875 630.6875 428.898438 631.675781 422.464844 637.304688 L 415.71875 643.207031 C 409.582031 648.582031 400.414062 648.582031 394.273438 643.207031 L 387.527344 637.304688 C 381.097656 631.675781 371.824219 630.6875 364.351562 634.84375 L 356.699219 639.097656 C 349.566406 643.0625 340.597656 641.148438 335.707031 634.617188 L 330.199219 627.261719 C 325.070312 620.414062 316.207031 617.503906 308.015625 619.980469 L 299.789062 622.46875 C 291.960938 624.835938 283.585938 621.089844 280.132812 613.679688 L 276.167969 605.167969 C 272.546875 597.402344 264.484375 592.699219 255.941406 593.371094 L 247.453125 594.042969 C 239.28125 594.6875 231.863281 589.269531 229.984375 581.292969 L 227.800781 572.015625 C 225.832031 563.660156 218.925781 557.375 210.417969 556.203125 L 201.96875 555.039062 C 193.824219 553.917969 187.6875 547.070312 187.460938 538.851562 L 187.199219 529.269531 C 186.960938 520.667969 181.507812 513.082031 173.429688 510.117188 L 165.324219 507.144531 C 157.585938 504.304688 153 496.324219 154.445312 488.207031 L 156.121094 478.804688 C 157.628906 470.316406 153.859375 461.761719 146.578125 457.148438 L 139.140625 452.433594 C 132.160156 448.011719 129.328125 439.246094 132.394531 431.574219 L 135.898438 422.820312 C 139.105469 414.808594 137.179688 405.652344 131.019531 399.613281 L 124.574219 393.292969 C 118.671875 387.5 117.710938 378.335938 122.292969 371.449219 L 127.410156 363.746094 C 132.191406 356.558594 132.191406 347.203125 127.410156 340.015625 L 122.292969 332.316406 C 117.710938 325.429688 118.671875 316.261719 124.574219 310.472656 L 131.019531 304.152344 C 137.179688 298.109375 139.105469 288.957031 135.898438 280.945312 L 132.394531 272.1875 C 129.328125 264.519531 132.160156 255.75 139.140625 251.328125 L 146.578125 246.617188 C 153.859375 242.003906 157.628906 233.445312 156.121094 224.960938 L 154.445312 215.554688 C 153 207.4375 157.585938 199.457031 165.324219 196.617188 L 173.429688 193.644531 C 181.507812 190.683594 186.960938 183.09375 187.199219 174.492188 L 187.460938 164.910156 C 187.6875 156.691406 193.824219 149.84375 201.96875 148.722656 L 210.417969 147.558594 C 218.925781 146.386719 225.832031 140.101562 227.800781 131.746094 L 229.984375 122.472656 C 231.863281 114.492188 239.28125 109.074219 247.453125 109.71875 L 255.941406 110.390625 C 264.484375 111.0625 272.546875 106.359375 276.167969 98.59375 L 280.132812 90.082031 C 283.585938 82.671875 291.960938 78.925781 299.789062 81.292969 L 308.015625 83.78125 C 316.207031 86.257812 325.070312 83.351562 330.199219 76.503906 L 335.707031 69.148438 C 340.597656 62.613281 349.566406 60.699219 356.699219 64.664062 L 364.351562 68.917969 C 371.824219 73.074219 381.097656 72.089844 387.527344 66.460938 L 394.273438 60.554688 C 400.414062 55.179688 409.582031 55.179688 415.71875 60.554688 Z M 415.71875 60.554688 " clip-rule="nonzero"/></clipPath></defs><g clip-path="url(#40929dc99c)"><g clip-path="url(#6820c0f5e3)"><path fill="#ed97df" d="M 114.402344 51.167969 L 695.597656 51.167969 L 695.597656 652.796875 L 114.402344 652.796875 Z M 114.402344 51.167969 " fill-opacity="1" fill-rule="nonzero"/></g></g><g clip-path="url(#3ffb8075b4)"><g clip-path="url(#108a02f7d4)"><path stroke-linecap="butt" transform="matrix(0.75, 0, 0, 0.75, 114.401607, 51.169105)" fill="none" stroke-linejoin="miter" d="M 401.756186 12.51411 L 410.750977 20.38911 C 419.329102 27.894318 431.693685 29.206818 441.657227 23.665152 L 451.855143 17.993277 C 461.370768 12.706819 473.329101 15.258902 479.849935 23.972444 L 487.193685 33.779735 C 494.032226 42.909943 505.849934 46.784943 516.766601 43.48286 L 527.740559 40.165152 C 538.172851 37.008902 549.344725 42.003693 553.948892 51.883901 L 559.23535 63.23286 C 564.058267 73.587026 574.808267 79.857859 586.198892 78.962026 L 597.5166 78.066193 C 608.412433 77.206818 618.308266 84.430776 620.813474 95.071401 L 623.724933 107.435984 C 626.349933 118.576609 635.558266 126.956817 646.902016 128.519317 L 658.162432 130.0714 C 669.021807 131.566192 677.209307 140.6964 677.506182 151.654733 L 677.860349 164.430775 C 678.172849 175.899525 685.44889 186.019316 696.219723 189.967233 L 707.021807 193.930775 C 717.339515 197.717233 723.459306 208.357858 721.532223 219.180774 L 719.297848 231.722441 C 717.282223 243.034941 722.308265 254.446399 732.016598 260.59744 L 741.938473 266.87869 C 751.240556 272.774523 755.021806 284.467232 750.928056 294.69119 L 746.256181 306.368273 C 741.985348 317.050564 744.547848 329.253689 752.766598 337.310981 L 761.355139 345.738064 C 769.230139 353.456814 770.506181 365.680772 764.402014 374.863064 L 757.579098 385.128689 C 751.204098 394.712022 751.204098 407.18598 757.579098 416.769313 L 764.402014 427.040146 C 770.506181 436.222438 769.230139 448.441188 761.355139 456.165146 L 752.766598 464.592229 C 744.547848 472.644312 741.985348 484.852646 746.256181 495.534937 L 750.928056 507.206812 C 755.021806 517.435978 751.240556 529.123478 741.938473 535.019312 L 732.016598 541.30577 C 722.308265 547.456811 717.282223 558.863061 719.297848 570.180769 L 721.532223 582.717228 C 723.459306 593.540144 717.339515 604.180769 707.021807 607.967227 L 696.219723 611.930769 C 685.44889 615.883894 678.172849 625.998477 677.860349 637.467227 L 677.506182 650.243268 C 677.209307 661.201601 669.021807 670.33181 658.162432 671.826601 L 646.902016 673.378685 C 635.558266 674.941185 626.349933 683.321393 623.724933 694.462018 L 620.813474 706.831809 C 618.308266 717.467226 608.412433 724.691184 597.5166 723.831809 L 586.198892 722.941184 C 574.808267 722.040142 564.058267 728.310976 559.23535 738.665142 L 553.948892 750.0141 C 549.344725 759.894308 538.172851 764.8891 527.740559 761.73285 L 516.766601 758.415142 C 505.849934 755.113058 494.032226 758.993267 487.193685 768.123475 L 479.849935 777.930767 C 473.329101 786.6391 461.370768 789.191183 451.855143 783.904725 L 441.657227 778.23285 C 431.693685 772.691183 419.329102 774.008892 410.750977 781.5141 L 401.756186 789.383891 C 393.573894 796.550558 381.349936 796.550558 373.162436 789.383891 L 364.167645 781.5141 C 355.594728 774.008892 343.230145 772.691183 333.266603 778.23285 L 323.063479 783.904725 C 313.553062 789.191183 301.594729 786.6391 295.073896 777.930767 L 287.730146 768.123475 C 280.891604 758.993267 269.073896 755.113058 258.152021 758.415142 L 247.183271 761.73285 C 236.745771 764.8891 225.579105 759.894308 220.974938 750.0141 L 215.68848 738.665142 C 210.860355 728.310976 200.110355 722.040142 188.71973 722.941184 L 177.402022 723.831809 C 166.506189 724.691184 156.615564 717.467226 154.110356 706.831809 L 151.198898 694.462018 C 148.573898 683.321393 139.365564 674.941185 128.021815 673.378685 L 116.75619 671.826601 C 105.896815 670.33181 97.714523 661.201601 97.41244 650.243268 L 97.063482 637.467227 C 96.745773 625.998477 89.47494 615.883894 78.704107 611.930769 L 67.896815 607.967227 C 57.579107 604.180769 51.464524 593.540144 53.391607 582.717228 L 55.625982 570.180769 C 57.636399 558.863061 52.610357 547.456811 42.902024 541.30577 L 32.985357 535.019312 C 23.678066 529.123478 19.902024 517.435978 23.990566 507.21202 L 28.662441 495.534937 C 32.938482 484.852646 30.370774 472.644312 22.157233 464.592229 L 13.563483 456.165146 C 5.693691 448.441188 4.412441 436.222438 10.521816 427.040146 L 17.344733 416.769313 C 23.719733 407.18598 23.719733 394.712022 17.344733 385.128689 L 10.521816 374.863064 C 4.412441 365.680772 5.693691 353.456814 13.563483 345.738064 L 22.157233 337.310981 C 30.370774 329.253689 32.938482 317.050564 28.662441 306.368273 L 23.990566 294.69119 C 19.902024 284.467232 23.678066 272.774523 32.985357 266.87869 L 42.902024 260.59744 C 52.610357 254.446399 57.636399 243.034941 55.625982 231.722441 L 53.391607 219.180774 C 51.464524 208.357858 57.579107 197.717233 67.896815 193.930775 L 78.704107 189.967233 C 89.47494 186.019316 96.745773 175.899525 97.063482 164.430775 L 97.41244 151.654733 C 97.714523 140.6964 105.896815 131.566192 116.75619 130.0714 L 128.021815 128.519317 C 139.365564 126.956817 148.573898 118.576609 151.198898 107.435984 L 154.110356 95.071401 C 156.615564 84.430776 166.506189 77.206818 177.402022 78.066193 L 188.71973 78.962026 C 200.110355 79.857859 210.860355 73.587026 215.68848 63.23286 L 220.974938 51.883901 C 225.579105 42.003693 236.745771 37.008902 247.183271 40.165152 L 258.152021 43.48286 C 269.073896 46.784943 280.891604 42.909943 287.730146 33.779735 L 295.073896 23.972444 C 301.594729 15.258902 313.553062 12.706819 323.063479 17.993277 L 333.266603 23.665152 C 343.230145 29.206818 355.594728 27.894318 364.167645 20.38911 L 373.162436 12.51411 C 381.349936 5.347444 393.573894 5.347444 401.756186 12.51411 Z M 401.756186 12.51411 " stroke="#000000" stroke-width="34" stroke-opacity="1" stroke-miterlimit="4"/></g></g><path stroke-linecap="butt" transform="matrix(0.91313, -0.212149, 0.212149, 0.91313, -17.05026, 324.822366)" fill="none" stroke-linejoin="miter" d="M 247.951039 108.810621 C 239.900324 108.809616 232.604434 107.161609 226.064312 103.862541 C 219.556004 100.592254 214.408387 95.700223 210.624578 89.191451 C 206.870123 82.685221 204.990308 74.64671 204.993251 65.077802 C 204.993758 57.784155 205.977918 51.651616 207.943846 46.688303 C 209.941014 41.719415 212.486112 37.724846 215.571964 34.698652 C 218.661302 31.639044 221.913927 29.460113 225.334842 28.158743 C 228.755757 26.857373 231.828718 26.206678 234.553724 26.206658 C 236.915818 26.203601 238.780972 26.645491 240.142957 27.522323 C 241.504941 28.399155 242.185702 29.519838 242.185241 30.884371 C 242.185722 32.244845 241.654586 33.426195 240.596832 34.425305 C 239.537563 35.394118 238.446927 36.663651 237.328042 38.238904 C 236.207639 39.78386 235.644883 42.279725 235.646948 45.732445 C 235.643958 50.698355 237.008214 54.67717 239.733772 57.676063 C 242.48811 60.643142 246.271876 62.125409 251.084127 62.126922 C 255.566877 62.128883 259.230336 60.704193 262.07762 57.857855 C 264.920846 55.010573 266.345551 51.290435 266.345504 46.687438 C 266.343974 43.085118 265.37641 39.497918 263.438754 35.924896 C 261.529879 32.32006 259.365835 28.506215 256.943505 24.478358 C 254.553072 20.42369 252.388253 16.079209 250.449047 11.444916 C 248.541738 6.78381 247.587059 1.668127 247.58907 -3.90119 C 247.588499 -9.625111 248.862017 -15.01452 251.405564 -20.07036 C 253.947595 -25.156498 257.883999 -29.302666 263.211658 -32.513867 C 268.540916 -35.750364 275.291969 -37.373173 283.46699 -37.373233 C 290.790935 -37.374243 296.650384 -36.098467 301.039107 -33.555908 C 305.458127 -31.014866 308.65237 -27.731689 310.620894 -23.70232 C 312.619716 -19.674467 313.62036 -15.437901 313.617825 -10.989507 C 313.620447 -5.384891 312.120745 -0.163534 309.121835 4.679565 C 306.155765 9.491793 302.128186 13.201825 297.0441 15.806546 C 296.315846 16.805208 295.136541 17.001784 293.502123 16.39533 C 291.895544 15.761122 290.564391 14.733171 289.50555 13.306478 C 288.445765 11.883843 288.355826 10.61381 289.231672 9.495435 C 290.108462 8.373001 290.793753 6.859569 291.27537 4.95231 C 291.789826 3.01418 291.882086 1.033573 291.549035 -0.994514 C 291.244765 -3.054414 290.44495 -4.767435 289.139587 -6.127345 C 287.839227 -7.490371 285.888224 -8.170376 283.283464 -8.172364 C 280.194601 -8.171322 277.502467 -7.171199 275.198945 -5.173882 C 272.897964 -3.205918 271.747743 0.124536 271.748281 4.817483 C 271.625994 8.934326 272.716383 13.097629 275.020391 17.303333 C 277.319397 21.512153 280.01231 25.885214 283.102245 30.427517 C 286.190664 34.939522 288.912928 39.738633 291.277155 44.826735 C 293.638267 49.909835 294.818882 55.36035 294.819945 61.17422 C 294.816923 70.375212 292.803084 78.582851 288.776257 85.788077 C 284.751973 92.963947 279.226152 98.593161 272.201911 102.68072 C 265.207968 106.766762 257.126735 108.812044 247.951039 108.810621 Z M 334.809597 101.000491 C 327.362289 100.998507 321.276042 99.336365 316.552742 96.005947 C 311.862281 92.644658 308.362735 88.20825 306.062221 82.698608 C 303.760191 77.158668 302.611927 71.163825 302.612428 64.717194 C 302.611863 58.146257 303.700407 51.546015 305.88212 44.917411 C 308.060717 38.283805 311.193289 32.184122 315.28078 26.614303 C 319.366755 21.014187 324.317161 16.517535 330.131057 13.128407 C 335.974677 9.703406 342.561575 7.995402 349.88552 7.994392 C 358.817607 7.99483 365.328915 10.294738 369.414443 14.897234 C 373.502512 19.470375 375.546257 24.796303 375.543792 30.883137 C 375.545883 36.213846 374.514138 40.525792 372.455732 43.824917 C 370.429222 47.09723 367.943994 49.471563 365.007222 50.95386 C 362.103863 52.439642 359.288122 53.180043 356.563115 53.180063 C 353.354948 53.179054 350.931198 52.637331 349.293751 51.546774 C 347.693202 50.42629 346.890103 49.242961 346.887571 48.001791 C 346.891105 46.881811 347.220407 45.961575 347.889539 45.235794 C 348.583393 44.477257 349.297502 43.539476 350.02469 42.416509 C 350.781233 41.296083 351.158508 39.616977 351.157459 37.37513 C 351.155956 35.6508 350.596018 34.138957 349.478589 32.835544 C 348.386457 31.533729 346.402615 30.884595 343.528007 30.884081 C 339.319163 30.881589 336.065803 32.713841 333.764809 36.375837 C 331.495712 40.011021 330.358604 44.187262 330.360658 48.910506 C 330.357669 53.876416 331.660305 57.917916 334.263565 61.038122 C 336.866251 64.123971 340.24401 66.230591 344.39061 67.347979 C 348.538809 68.440072 353.036687 68.56105 357.879241 67.71403 C 362.721222 66.832653 367.489742 64.941744 372.181685 62.036301 C 376.907985 59.130283 381.010634 55.133963 384.489631 50.047341 C 385.459406 48.561503 386.745391 48.034649 388.349471 48.458661 C 389.983849 48.881157 391.317791 49.712973 392.346295 50.957226 C 393.40604 52.195904 393.575352 53.437321 392.846113 54.679592 C 384.671141 69.814762 375.679519 81.320792 365.872189 89.193623 C 356.060801 97.065512 345.709624 101.00041 334.809597 101.000491 Z M 457.93239 50.045976 C 458.93152 48.56268 460.234682 48.035539 461.838763 48.459552 C 463.443786 48.879505 464.776785 49.715381 465.83653 50.954058 C 466.895332 52.196794 467.047465 53.438498 466.288872 54.678228 C 465.045678 56.678054 463.565673 59.568271 461.838854 63.35511 C 460.111461 67.107593 458.037921 71.134718 455.619176 75.432426 C 453.193913 79.702952 450.362281 83.789231 447.123336 87.695322 C 443.914688 91.599895 440.297953 94.793644 436.27313 97.276568 C 432.244248 99.75855 427.686257 101.001079 422.6001 101.000097 C 417.518002 101.000058 413.474223 100.047728 410.477825 98.140934 C 407.510207 96.202326 405.375425 93.717141 404.072536 90.689437 C 402.772188 87.632378 402.121493 84.559417 402.120451 81.470554 C 402.120935 77.141464 402.770333 72.873302 404.072704 68.66701 C 405.374502 64.426363 406.890881 60.385294 408.613723 56.541919 C 410.370922 52.697971 411.900909 49.16913 413.202739 45.959456 C 414.503053 42.719485 415.156744 39.979519 415.154753 37.741731 C 415.153694 36.770409 414.443417 35.334862 413.021747 33.426031 C 411.598561 31.486902 409.025916 29.83684 405.299751 28.474902 C 404.178317 30.926527 402.846683 33.804158 401.305793 37.103739 C 399.759902 40.406435 398.198513 43.628529 396.624744 46.775023 C 395.084388 49.925002 393.826512 52.55882 392.859232 54.678363 C 392.100718 56.286007 390.87336 56.873538 389.17933 56.450017 C 387.515598 56.024979 386.12303 55.132486 385.001625 53.772536 C 383.91146 52.407011 383.729029 51.166823 384.455274 50.047915 C 386.212955 47.56444 388.135374 43.929992 390.221588 39.148629 C 392.342159 34.366692 394.204645 29.867024 395.810278 25.662744 C 393.962548 25.053788 392.476506 24.011241 391.358095 22.527929 C 390.238167 21.014319 389.676146 18.590807 389.679205 15.263336 C 389.677134 12.657633 390.360875 10.08293 391.721369 7.541399 C 393.082805 4.995809 395.007058 2.863319 397.486951 1.137983 C 399.969387 -0.616708 402.877784 -1.49814 406.209313 -1.494138 C 412.053481 -1.496717 417.666739 -0.37653 423.058149 1.864251 C 428.445501 4.104089 432.882517 6.935929 436.36108 10.357886 C 439.843128 13.746429 441.586209 17.107408 441.586266 20.439881 C 441.585788 23.921955 440.935331 27.218795 439.633009 30.338519 C 438.329171 33.427946 437.000241 36.588546 435.635273 39.830607 C 434.273791 43.039256 433.591764 46.564044 433.592309 50.409974 C 433.590321 53.014734 434.453474 55.191647 436.179881 56.948829 C 437.904772 58.675715 440.886788 59.539645 445.126872 59.536562 C 447.971183 59.538592 450.347714 58.644816 452.255524 56.85929 C 454.196173 55.042893 456.088776 52.770436 457.93239 50.045976 Z M 546.47996 50.04608 C 547.206205 48.927171 548.370835 48.51757 549.976966 48.822279 C 551.613395 49.125471 553.021585 49.803423 554.199651 50.864252 C 555.381776 51.926024 555.591963 53.19405 554.836442 54.678332 C 553.111592 58.40146 550.853112 62.248725 548.071005 66.213897 C 545.28484 70.178126 541.802536 73.492942 537.624093 76.158347 C 533.475947 78.822235 528.361573 80.157948 522.274739 80.155483 L 520.050071 80.156245 C 515.478922 86.482102 510.000171 91.540462 503.611646 95.322263 C 497.222178 99.108124 490.54537 101.000576 483.585281 101.000564 C 475.286898 100.997631 468.416821 98.216527 462.965702 92.642248 C 457.516183 87.042674 454.792177 79.415487 454.79057 69.755688 C 454.791526 62.79154 456.063827 55.694979 458.6053 48.456944 C 461.149316 41.189555 464.705647 34.499587 469.279295 28.383926 C 473.880782 22.240509 479.270648 17.306947 485.444836 13.582295 C 491.65338 9.857069 498.477247 7.994505 505.924554 7.996489 C 511.011655 7.993412 515.597507 9.024626 519.688055 11.082956 C 523.773029 13.110046 527.026472 16.488256 529.450272 21.209469 C 531.871613 25.904443 533.085061 32.171102 533.081557 40.011621 C 533.083065 46.578499 532.158514 52.951614 530.312906 59.12785 L 531.58343 59.12786 C 534.308437 59.127839 536.911439 58.419293 539.394324 56.994102 C 541.876265 55.57297 544.241164 53.256239 546.47996 50.04608 Z M 494.209154 62.491122 C 497.298017 62.49008 500.023769 61.566213 502.386409 59.719523 C 504.747533 57.842534 506.609839 55.571593 507.969267 52.905757 C 509.331812 50.244922 510.01252 47.609624 510.014507 45.004864 C 510.014487 42.279858 509.21275 39.967488 507.607124 38.058696 C 506.004039 36.12055 503.397278 35.151299 499.794957 35.152829 C 496.8304 35.152806 494.196852 36.029649 491.893372 37.787416 C 489.593378 39.51177 487.791463 41.706906 486.48857 44.368766 C 485.188794 47.035628 484.537358 49.729061 484.537378 52.454068 C 484.537398 55.179075 485.280344 57.541953 486.763099 59.5377 C 488.247454 61.508152 490.72708 62.490645 494.209154 62.491122 Z M 557.99436 101.001256 C 551.428425 100.998705 546.840324 99.167007 544.23506 95.503047 C 541.633853 91.84003 540.330729 87.285072 540.330689 81.835059 C 540.332693 77.112758 540.920929 71.966256 542.103515 66.39744 C 543.282985 60.823622 544.797079 55.374604 546.642681 50.045384 C 552.969983 31.944167 558.329138 16.757975 562.717318 4.498984 C 567.13928 -7.794938 571.395301 -17.073015 575.482265 -23.340249 C 579.569229 -29.607483 584.091607 -32.740548 589.05846 -32.741617 C 592.903447 -32.738103 595.325223 -31.285652 596.322843 -28.380206 C 597.324522 -25.473817 596.384817 -21.097709 593.508729 -15.254999 C 588.452914 -4.964936 584.092838 4.558471 580.430389 13.307106 C 576.766996 22.059799 573.876992 30.337661 571.758489 38.148809 C 570.756883 41.723407 570.045011 45.155704 569.620042 48.457876 C 569.198559 51.726634 569.605934 54.392279 570.847171 56.451695 C 572.08935 58.507052 574.570781 59.53702 578.296464 59.538483 C 581.504631 59.539492 584.320823 58.705083 586.744098 57.039316 C 589.164913 55.347311 591.358687 53.012211 593.32665 50.047136 C 594.32578 48.56384 595.629886 48.03264 597.233966 48.456652 C 598.867401 48.883207 600.201342 49.715023 601.23079 50.955217 C 602.289592 52.197953 602.454845 53.438428 601.730608 54.677584 C 600.487413 56.67741 598.99023 59.567914 597.234057 63.352211 C 595.505721 67.108752 593.433124 71.131818 591.009378 75.432642 C 588.589117 79.700053 585.757484 83.786332 582.518539 87.692422 C 579.308948 91.601054 575.692213 94.794803 571.66739 97.277728 C 567.638508 99.759709 563.08146 100.99818 557.99436 101.001256 Z M 621.805473 118.66708 C 615.358841 118.666579 609.620954 116.922813 604.594927 113.440783 C 599.569473 109.993109 595.634819 105.164716 592.790966 98.955605 C 589.942111 92.74961 588.52118 85.497892 588.519111 77.202625 C 588.519585 68.878004 590.185809 59.828142 593.514666 50.048039 C 599.842911 31.942763 605.201123 16.76063 609.590246 4.49758 C 614.011266 -7.792283 618.263228 -17.071303 622.350192 -23.338537 C 626.441214 -29.604828 630.964535 -32.741952 635.930446 -32.738962 C 639.776376 -32.739507 642.198151 -31.287056 643.195771 -28.38161 C 644.197451 -25.475221 643.257745 -21.099113 640.381658 -15.256403 C 635.324899 -4.962282 630.965767 4.557067 627.302374 13.309761 C 623.639925 22.058395 620.748977 30.340316 618.626416 38.150521 C 615.541606 49.531634 614.769222 58.177427 616.311148 64.079782 C 617.857134 69.98308 622.292099 72.934224 629.620103 72.934157 C 633.341727 72.934678 636.218063 72.191244 638.247224 70.711974 C 640.306108 69.196831 641.927096 67.485837 643.106128 65.57805 C 644.287702 63.640909 645.391173 61.929461 646.4206 60.444648 C 647.479382 58.962377 648.947768 58.221229 650.825759 58.221202 C 653.671012 58.219174 655.898536 60.084226 657.502099 63.806355 C 659.135017 67.531025 659.952521 72.058716 659.955555 77.385367 C 659.95302 81.833761 659.257455 86.484761 657.862629 91.328364 C 656.502159 96.171393 654.309599 100.637154 651.280889 104.724702 C 648.25218 108.81225 644.31853 112.154819 639.473994 114.759583 C 634.629459 117.364347 628.740266 118.665493 621.805473 118.66708 Z M 621.805473 118.66708 " stroke="#cb7f00" stroke-width="23.71653" stroke-opacity="1" stroke-miterlimit="4"/><path stroke-linecap="butt" transform="matrix(0.91313, -0.212149, 0.212149, 0.91313, -17.05026, 324.822366)" fill="none" stroke-linejoin="miter" d="M 186.485474 238.809908 C 178.913861 238.80899 172.740902 237.280705 167.954422 234.222226 C 163.202872 231.197529 159.737227 227.278063 157.557488 222.463828 C 155.376232 217.619296 154.288596 212.652393 154.285519 207.565293 C 154.286501 202.479136 155.316242 197.623436 157.376626 192.990075 C 159.401137 188.32699 162.278234 184.542169 166.003858 181.634668 C 169.727022 178.700929 174.07203 177.233525 179.034825 177.231513 C 180.882518 177.233003 181.80558 177.973637 181.807126 179.458416 C 181.805086 183.573252 183.576948 186.902417 187.117711 189.449028 C 190.663476 191.992523 194.975379 193.263819 200.062479 193.260742 C 205.875406 193.263738 212.067787 190.749672 218.63868 185.722602 C 225.204572 180.698648 230.670965 172.600131 235.028798 161.429223 C 236.635373 157.220884 238.268722 152.860484 239.932902 148.348966 C 241.629921 143.806576 243.281226 139.553017 244.886815 135.588287 C 246.127477 132.347291 247.760892 130.048838 249.788945 128.684813 C 251.846352 127.32333 254.237559 126.642578 256.962566 126.642558 C 260.932802 126.640949 263.442522 127.549153 264.504845 129.365942 C 265.561593 131.15149 265.774107 133.587914 265.137387 136.67833 C 264.535474 139.674164 263.351918 143.369049 261.596724 147.756753 C 259.870884 152.146999 258.008889 156.736616 256.012624 161.517488 C 254.041655 166.299959 252.347464 170.830172 250.923821 175.098123 C 249.500178 179.366074 248.789657 182.939855 248.789143 185.814463 C 248.790683 188.146259 249.503539 190.159917 250.923652 191.854494 C 252.346307 193.519716 254.617215 194.351047 257.735432 194.352547 C 261.824972 194.352988 265.532421 192.959908 268.86184 190.17425 C 272.221557 187.387076 275.176262 183.71012 277.718781 179.13744 C 280.25884 174.538521 282.214643 169.453076 283.57807 163.879218 C 284.939038 158.279122 285.619973 152.752038 285.61899 147.306083 C 285.620958 141.976316 284.651887 137.088295 282.712721 132.637959 C 280.806394 128.156752 277.462757 124.522304 272.676808 121.737732 C 267.923698 118.922288 261.265529 117.512279 252.696355 117.514878 C 246.85313 117.513399 241.267693 118.482997 235.936928 120.418672 C 230.607762 122.32905 226.2643 125.281234 222.906542 129.275223 C 219.576622 133.241456 217.908911 138.449447 217.908411 144.896078 C 217.908431 147.621084 218.590003 149.879868 219.955014 151.664312 C 221.315024 153.451871 222.994618 154.342604 224.991913 154.344629 C 226.355911 154.494691 226.691264 155.813186 225.994855 158.295111 C 225.327226 160.745222 223.842958 163.561724 221.542993 166.74056 C 219.241512 169.889099 216.29161 172.64315 212.688288 175.005831 C 209.115263 177.366995 205.088933 178.549097 200.606182 178.547136 C 195.520025 178.546154 191.237477 177.277401 187.756366 174.731815 C 184.304609 172.188772 181.701679 168.846194 179.944459 164.69908 C 178.217537 160.550449 177.357107 156.115455 177.355052 151.392211 C 177.354006 143.4608 179.129108 135.967711 182.668182 128.910116 C 186.212914 121.828167 191.206545 115.561965 197.657195 110.113395 C 204.103212 104.629526 211.749885 100.348625 220.59098 97.260691 C 229.458314 94.170297 239.236897 92.626309 249.926728 92.628728 C 261.823372 92.629188 271.831888 94.201575 279.942272 97.35212 C 288.057657 100.499549 294.564686 104.843284 299.471476 110.385211 C 304.377692 115.892782 307.90379 122.2219 310.051656 129.364446 C 312.231418 136.480179 313.319322 144.005309 313.320368 151.93672 C 313.323449 161.866368 311.838225 171.647018 308.870642 181.271496 C 305.904658 190.870678 301.848794 199.545022 296.69899 207.293583 C 291.553244 215.043088 285.61867 221.253239 278.898096 225.91186 C 272.208476 230.547727 265.155632 232.861881 257.737679 232.862439 C 250.045819 232.863528 243.961791 230.547388 239.481536 225.913075 C 235.029119 221.251007 232.549696 215.07523 232.035149 207.383858 C 226.826293 217.043741 220.315524 224.702834 212.505956 230.366141 C 204.695815 235.995092 196.020968 238.809366 186.485474 238.809908 Z M 405.962961 180.048411 C 406.690149 178.925443 407.853837 178.519901 409.456852 178.819608 C 411.09328 179.1228 412.500528 179.804811 413.682653 180.866583 C 414.861662 181.923354 415.074964 183.196381 414.319444 184.680663 C 412.590534 188.402848 410.337056 192.246998 407.549948 196.215285 C 404.767842 200.180457 401.285538 203.495273 397.107094 206.160678 C 392.958948 208.824566 387.841458 210.155278 381.757741 210.157814 L 379.534015 210.154517 C 374.961923 216.484433 369.480056 221.537791 363.090588 225.323652 C 356.706122 229.106396 350.029314 230.998848 343.065167 230.997893 C 334.7699 230.999962 327.896707 228.213856 322.448704 222.644579 C 316.999184 217.045005 314.272063 209.412817 314.273572 199.758019 C 314.274527 192.793871 315.543712 185.692308 318.088301 178.459275 C 320.632317 171.191886 324.188648 164.501918 328.758238 158.385314 C 333.360667 152.237839 338.750533 147.304276 344.92878 143.580567 C 351.132322 139.858457 357.960248 137.996836 365.408499 137.994761 C 370.494656 137.995743 375.081451 139.022898 379.166998 141.084344 C 383.25603 143.112377 386.510416 146.486529 388.933274 151.2118 C 391.355557 155.902715 392.564947 162.168432 392.565502 170.009893 C 392.566066 176.58083 391.641515 182.953945 389.795907 189.130181 L 391.066431 189.130191 C 393.791438 189.13017 396.395384 188.417565 398.877325 186.996433 C 401.360209 185.571243 403.720106 183.257627 405.962961 180.048411 Z M 353.693098 192.489395 C 356.781018 192.492411 359.502711 191.567601 361.865352 189.720911 C 364.226476 187.843922 366.088781 185.572981 367.452269 182.908088 C 368.815756 180.243195 369.495521 177.611955 369.49345 175.006252 C 369.49343 172.281246 368.692636 169.964818 367.087009 168.056026 C 365.482981 166.121938 362.880279 165.15363 359.278901 165.151101 C 356.310285 165.150136 353.675795 166.031037 351.377317 167.785688 C 349.077322 169.510042 347.275407 171.705178 345.971571 174.371097 C 344.668679 177.032957 344.020359 179.731392 344.021322 182.45234 C 344.021342 185.177347 344.760229 187.539282 346.242041 189.539088 C 347.727339 191.505482 350.211025 192.488917 353.693098 192.489395 Z M 531.690247 180.045233 C 532.44679 178.924807 533.627655 178.518978 535.234729 178.819628 C 536.836801 179.123394 538.230929 179.806634 539.409938 180.863405 C 540.592063 181.925177 540.801307 183.197261 540.046729 184.677484 C 538.320936 188.404671 536.063399 192.247878 533.281292 196.21305 C 530.494184 200.181337 527.01188 203.496154 522.83438 206.1575 C 518.686234 208.821388 513.584979 210.155871 507.531559 210.156891 C 505.534265 210.154867 503.611836 209.793784 501.762098 209.064581 C 497.161186 215.242354 492.28785 220.419981 487.142091 224.597463 C 481.994815 228.744647 476.695699 230.820288 471.246628 230.81627 C 468.640926 230.818341 466.192087 229.924281 463.890111 228.140322 C 461.58756 226.322007 459.819961 223.066556 458.578253 218.376142 C 457.335971 213.651372 457.092618 206.947026 457.849136 198.259046 C 454.610198 206.584176 451.038453 213.137948 447.1339 217.920363 C 443.227831 222.67248 439.322592 226.02165 435.416012 227.958812 C 431.511973 229.866618 427.830478 230.816552 424.381818 230.81956 C 419.415907 230.81657 415.342082 229.275469 412.16317 226.184081 C 409.016155 223.06588 406.729077 219.026669 405.307883 214.059271 C 403.885745 209.095933 403.203951 203.615863 403.261558 197.62312 C 403.32265 191.596963 404.097145 185.740831 405.578811 180.044718 C 406.69973 175.201646 408.155234 170.299417 409.938147 165.332085 C 411.754474 160.368238 413.771646 155.810395 415.97966 151.664788 C 418.217972 147.517663 420.549998 144.200829 422.974796 141.718343 C 425.395535 139.234914 427.907814 137.996223 430.513517 137.994153 C 432.357151 137.9947 433.779568 138.556177 434.781712 139.674525 C 435.778854 140.795989 436.277907 142.717195 436.277927 145.442201 C 436.277449 148.924275 435.569428 152.708252 434.144802 156.796305 C 432.720176 160.884357 431.327364 165.001191 429.966366 169.146805 C 428.604426 173.296478 427.921166 177.231655 427.924704 180.954223 C 427.924226 184.436296 428.753346 187.238426 430.421124 189.35844 C 432.08427 191.443155 434.600343 192.489727 437.958111 192.49127 C 442.531754 192.488681 446.059348 190.857033 448.53872 187.587265 C 451.021578 184.284084 452.703503 180.653652 453.582323 176.686908 C 454.305999 173.719363 454.672378 170.96398 454.672397 168.42293 C 454.669301 165.876879 454.730941 163.273145 454.853258 160.610784 C 455.005872 157.946906 455.503404 154.995267 456.349912 151.756809 C 458.108601 146.065167 460.288488 142.353645 462.891744 140.631303 C 465.494426 138.874604 468.899103 137.99297 473.107946 137.995463 C 480.91911 137.996424 484.82343 142.218868 484.824964 150.663736 C 484.823998 153.632352 483.977777 156.887988 482.282241 160.429701 C 480.615486 163.9396 478.953077 167.467619 477.286895 171.011874 C 475.621657 174.55207 474.78753 177.866128 474.788572 180.954991 C 474.788094 184.437065 475.622216 187.236079 477.285935 189.35515 C 478.952196 191.444866 481.464211 192.490496 484.826981 192.488922 C 488.184749 192.490465 491.062601 191.777329 493.454593 190.356688 C 495.876882 188.934531 497.963812 187.040895 499.718499 184.680783 C 499.203956 181.831959 498.768334 179.048527 498.404458 176.324542 C 498.040581 173.600558 497.857342 170.798761 497.858799 167.920094 C 497.857816 162.474139 498.508942 157.462029 499.810291 152.891881 C 501.115125 148.28832 503.157873 144.596271 505.940421 141.807616 C 508.726085 139.023962 512.223339 137.633382 516.433125 137.631815 C 521.275673 137.631811 524.317535 139.840063 525.561828 144.261572 C 526.800546 148.65184 526.391464 154.721206 524.333638 162.473727 C 522.30611 170.224731 518.745991 179.048475 513.661398 188.946844 C 514.26587 189.07017 514.812658 189.12876 515.295818 189.129789 C 515.813335 189.130244 516.309614 189.130042 516.796833 189.132014 C 519.552137 189.130477 522.156083 188.417872 524.608669 186.994198 C 527.09061 185.573066 529.451451 183.255391 531.690247 180.045233 Z M 606.835861 248.667215 C 598.661784 248.663217 591.746196 246.243714 586.082867 241.398704 C 580.450409 236.586534 576.696158 230.153075 574.820115 222.098328 C 572.975969 214.016769 573.535371 205.146101 576.50238 195.487267 C 577.621773 191.884422 578.74141 188.538306 579.861291 185.448918 C 580.982771 182.334235 581.541429 179.653469 581.544439 177.412566 C 581.541913 175.324379 580.892478 173.71902 579.591132 172.599604 C 578.285726 171.479244 576.576283 170.919528 574.458742 170.919512 C 570.886718 170.919525 567.571658 172.446548 564.512618 175.50464 C 561.486418 178.53186 559.031352 182.470344 557.157425 187.313862 C 555.308219 192.124622 554.384456 197.33434 554.383962 202.933954 L 554.385005 211.288873 C 554.386047 214.377736 554.005768 217.45073 553.252285 220.509741 C 552.523525 223.535995 551.070622 226.051778 548.891405 228.048031 C 546.710671 230.013986 543.457317 230.999222 539.128227 230.998738 C 534.799137 230.998254 531.452038 229.698718 529.092876 227.092956 C 526.728711 224.49031 525.547915 221.268523 525.54737 217.422593 C 525.547854 213.093503 526.049669 207.674528 527.048755 201.164727 C 528.047842 194.654926 529.588965 187.616543 531.681187 180.047406 C 533.798661 172.719418 536.131247 165.864917 538.672714 159.473898 C 541.217297 153.087881 543.819432 147.908761 546.486293 143.942481 C 549.148152 139.979318 551.662158 137.996679 554.024251 137.993622 C 556.504706 137.996675 558.140844 138.706197 558.926722 140.129363 C 559.742897 141.551012 560.154585 143.203804 560.154612 145.081794 C 560.154625 148.653817 561.015523 150.877262 562.741363 151.753073 C 564.496558 152.631425 566.860218 151.572098 569.82734 148.578209 C 573.309357 145.246214 576.896774 142.657389 580.589592 140.811733 C 584.311189 138.934264 588.234408 137.993433 592.349243 137.995473 C 598.042866 137.996419 602.251409 139.675766 604.97393 143.037573 C 607.699937 146.365966 609.061938 150.391313 609.063992 155.114557 C 609.062984 158.322724 608.654172 161.260753 607.838498 163.924584 C 607.04812 166.590015 606.154878 169.329938 605.158772 172.144354 C 604.156147 174.931588 603.417053 178.186445 602.93243 181.9111 C 602.17331 187.71947 602.44751 192.155157 603.746915 195.216274 C 605.049805 198.243979 606.940694 200.287492 609.424584 201.343699 C 611.907531 202.403964 614.449355 202.934619 617.054115 202.936607 C 621.020292 202.934054 624.03311 202.192385 626.092568 200.711598 C 628.151453 199.196454 629.755262 197.485748 630.903997 195.579478 C 632.085571 193.642336 633.20622 191.930601 634.265002 190.44833 C 635.324727 188.962001 636.779993 188.222082 638.623628 188.222629 C 641.503237 188.220028 643.742364 190.053552 645.346952 193.716029 C 646.951541 197.378506 647.756377 201.813418 647.752402 207.022938 C 647.753926 211.472275 647.042126 216.119503 645.621061 220.965566 C 644.19688 225.806627 641.865869 230.334334 638.624913 234.543685 C 635.418313 238.752463 631.20973 242.155215 626.001338 244.761001 C 620.79389 247.362728 614.408417 248.664075 606.835861 248.667215 Z M 680.105133 187.674477 C 676.502812 187.676008 674.70237 184.874936 674.702864 179.275321 C 674.699794 173.341205 675.262747 166.499071 676.383607 158.747035 C 677.503523 150.999057 679.077697 143.155558 681.104243 135.224654 C 683.163628 127.26288 685.553492 119.904064 688.28101 113.154151 C 691.034767 106.401779 694.016463 100.951501 697.225153 96.807377 C 700.465084 92.657678 703.812496 90.586326 707.261156 90.583318 C 714.58916 90.583251 718.251717 94.612634 718.250712 102.663349 C 718.252777 106.116068 717.542454 110.609636 716.117858 116.152171 C 714.696747 121.661293 712.771522 127.609416 710.350302 133.998426 C 707.929082 140.387437 705.32333 146.742131 702.539279 153.072512 C 699.756171 159.398834 696.892998 165.167543 693.954762 170.375524 C 691.050883 175.58293 688.386808 179.776584 685.96348 182.952426 C 683.541752 186.102972 681.588969 187.676989 680.105133 187.674477 Z M 668.208019 232.86103 C 663.998233 232.862597 660.335739 231.31867 657.216479 228.228308 C 654.129116 225.111132 652.58418 221.449681 652.586672 217.240838 C 652.587156 212.911748 654.130796 209.232076 657.216648 206.205881 C 660.33534 203.148815 663.998021 201.616998 668.206864 201.61949 C 672.536898 201.615916 676.215339 203.146436 679.244076 206.202934 C 682.300651 209.231676 683.828696 212.910593 683.828212 217.239683 C 683.829778 221.449469 682.298971 225.110733 679.242965 228.229419 C 676.215739 231.316291 672.537109 232.861514 668.208019 232.86103 Z M 668.208019 232.86103 " stroke="#cb7f00" stroke-width="23.71653" stroke-opacity="1" stroke-miterlimit="4"/><g fill="#f4c846" fill-opacity="1"><g transform="translate(192.224728, 373.405537)"><g><path d="M 40.203125 -1.8125 C 32.847656 -0.101562 25.847656 -0.0625 19.203125 -1.6875 C 12.554688 -3.3125 6.816406 -6.691406 1.984375 -11.828125 C -2.847656 -16.972656 -6.273438 -23.90625 -8.296875 -32.625 C -9.847656 -39.300781 -10.242188 -45.113281 -9.484375 -50.0625 C -8.722656 -55.019531 -7.25 -59.210938 -5.0625 -62.640625 C -2.882812 -66.078125 -0.378906 -68.75 2.453125 -70.65625 C 5.296875 -72.570312 7.96875 -73.820312 10.46875 -74.40625 C 12.625 -74.894531 14.410156 -74.890625 15.828125 -74.390625 C 17.253906 -73.890625 18.113281 -73.015625 18.40625 -71.765625 C 18.695312 -70.523438 18.46875 -69.335938 17.71875 -68.203125 C 16.96875 -67.078125 16.242188 -65.6875 15.546875 -64.03125 C 14.859375 -62.382812 14.882812 -59.976562 15.625 -56.8125 C 16.675781 -52.28125 18.765625 -48.941406 21.890625 -46.796875 C 25.015625 -44.648438 28.78125 -44.085938 33.1875 -45.109375 C 37.269531 -46.054688 40.3125 -48.132812 42.3125 -51.34375 C 44.3125 -54.5625 44.820312 -58.265625 43.84375 -62.453125 C 43.082031 -65.734375 41.441406 -68.8125 38.921875 -71.6875 C 36.410156 -74.570312 33.625 -77.597656 30.5625 -80.765625 C 27.5 -83.929688 24.59375 -87.429688 21.84375 -91.265625 C 19.101562 -95.109375 17.144531 -99.578125 15.96875 -104.671875 C 14.75 -109.878906 14.757812 -115.078125 16 -120.265625 C 17.25 -125.453125 19.960938 -130.078125 24.140625 -134.140625 C 28.328125 -138.210938 34.160156 -141.117188 41.640625 -142.859375 C 48.316406 -144.410156 53.9375 -144.488281 58.5 -143.09375 C 63.0625 -141.707031 66.675781 -139.382812 69.34375 -136.125 C 72.007812 -132.875 73.816406 -129.210938 74.765625 -125.140625 C 75.941406 -120.046875 75.679688 -114.972656 73.984375 -109.921875 C 72.296875 -104.878906 69.410156 -100.625 65.328125 -97.15625 C 64.867188 -96.101562 63.832031 -95.6875 62.21875 -95.90625 C 60.601562 -96.132812 59.164062 -96.785156 57.90625 -97.859375 C 56.644531 -98.929688 56.289062 -100.070312 56.84375 -101.28125 C 57.40625 -102.488281 57.707031 -104.019531 57.75 -105.875 C 57.789062 -107.738281 57.453125 -109.566406 56.734375 -111.359375 C 56.015625 -113.160156 54.914062 -114.546875 53.4375 -115.515625 C 51.957031 -116.492188 50.03125 -116.707031 47.65625 -116.15625 C 44.820312 -115.5 42.566406 -114.019531 40.890625 -111.71875 C 39.222656 -109.425781 38.890625 -106.128906 39.890625 -101.828125 C 40.648438 -98.054688 42.523438 -94.488281 45.515625 -91.125 C 48.503906 -87.769531 51.894531 -84.351562 55.6875 -80.875 C 59.476562 -77.40625 62.988281 -73.597656 66.21875 -69.453125 C 69.445312 -65.304688 71.679688 -60.570312 72.921875 -55.25 C 74.867188 -46.863281 74.757812 -38.960938 72.59375 -31.546875 C 70.4375 -24.128906 66.59375 -17.804688 61.0625 -12.578125 C 55.539062 -7.347656 48.585938 -3.757812 40.203125 -1.8125 Z M 40.203125 -1.8125 "/></g></g></g><g fill="#f4c846" fill-opacity="1"><g transform="translate(280.20303, 352.965424)"><g><path d="M 29.890625 -6.9375 C 23.097656 -5.363281 17.191406 -5.601562 12.171875 -7.65625 C 7.160156 -9.71875 3.023438 -13.023438 -0.234375 -17.578125 C -3.503906 -22.128906 -5.820312 -27.347656 -7.1875 -33.234375 C -8.582031 -39.234375 -8.992188 -45.492188 -8.421875 -52.015625 C -7.847656 -58.535156 -6.28125 -64.773438 -3.71875 -70.734375 C -1.164062 -76.703125 2.40625 -81.859375 7 -86.203125 C 11.601562 -90.554688 17.242188 -93.507812 23.921875 -95.0625 C 32.078125 -96.957031 38.507812 -96.242188 43.21875 -92.921875 C 47.925781 -89.609375 50.925781 -85.175781 52.21875 -79.625 C 53.351562 -74.75 53.332031 -70.59375 52.15625 -67.15625 C 50.976562 -63.726562 49.21875 -61.023438 46.875 -59.046875 C 44.53125 -57.066406 42.113281 -55.789062 39.625 -55.21875 C 36.6875 -54.53125 34.359375 -54.523438 32.640625 -55.203125 C 30.929688 -55.878906 29.945312 -56.785156 29.6875 -57.921875 C 29.445312 -58.941406 29.554688 -59.859375 30.015625 -60.671875 C 30.484375 -61.492188 30.941406 -62.492188 31.390625 -63.671875 C 31.835938 -64.859375 31.820312 -66.472656 31.34375 -68.515625 C 30.976562 -70.097656 30.144531 -71.363281 28.84375 -72.3125 C 27.550781 -73.257812 25.601562 -73.429688 23 -72.828125 C 19.144531 -71.929688 16.554688 -69.570312 15.234375 -65.75 C 13.921875 -61.925781 13.765625 -57.863281 14.765625 -53.5625 C 15.816406 -49.019531 17.859375 -45.609375 20.890625 -43.328125 C 23.929688 -41.054688 27.460938 -39.851562 31.484375 -39.71875 C 35.515625 -39.582031 39.644531 -40.421875 43.875 -42.234375 C 48.113281 -44.054688 52.078125 -46.796875 55.765625 -50.453125 C 59.453125 -54.117188 62.34375 -58.644531 64.4375 -64.03125 C 65.019531 -65.59375 66.09375 -66.347656 67.65625 -66.296875 C 69.21875 -66.242188 70.613281 -65.757812 71.84375 -64.84375 C 73.070312 -63.9375 73.476562 -62.835938 73.0625 -61.546875 C 68.800781 -45.992188 63.03125 -33.582031 55.75 -24.3125 C 48.476562 -15.050781 39.859375 -9.257812 29.890625 -6.9375 Z M 29.890625 -6.9375 "/></g></g></g><g fill="#f4c846" fill-opacity="1"><g transform="translate(351.536786, 336.392359)"><g><path d="M 60.1875 -63.046875 C 60.78125 -64.609375 61.851562 -65.359375 63.40625 -65.296875 C 64.96875 -65.242188 66.363281 -64.757812 67.59375 -63.84375 C 68.820312 -62.9375 69.226562 -61.84375 68.8125 -60.5625 C 68.101562 -58.488281 67.351562 -55.539062 66.5625 -51.71875 C 65.78125 -47.894531 64.738281 -43.769531 63.4375 -39.34375 C 62.144531 -34.925781 60.4375 -30.585938 58.3125 -26.328125 C 56.195312 -22.078125 53.5625 -18.394531 50.40625 -15.28125 C 47.257812 -12.164062 43.363281 -10.070312 38.71875 -9 C 34.082031 -7.914062 30.203125 -7.9375 27.078125 -9.0625 C 23.953125 -10.1875 21.472656 -12 19.640625 -14.5 C 17.804688 -17 16.5625 -19.664062 15.90625 -22.5 C 14.988281 -26.445312 14.675781 -30.484375 14.96875 -34.609375 C 15.257812 -38.742188 15.789062 -42.75 16.5625 -46.625 C 17.332031 -50.507812 17.96875 -54.0625 18.46875 -57.28125 C 18.976562 -60.507812 18.992188 -63.140625 18.515625 -65.171875 C 18.304688 -66.078125 17.34375 -67.253906 15.625 -68.703125 C 13.914062 -70.160156 11.222656 -71.113281 7.546875 -71.5625 C 7.054688 -69.0625 6.445312 -66.144531 5.71875 -62.8125 C 5 -59.488281 4.265625 -56.21875 3.515625 -53 C 2.773438 -49.789062 2.175781 -47.117188 1.71875 -44.984375 C 1.382812 -43.359375 0.410156 -42.5625 -1.203125 -42.59375 C -2.828125 -42.632812 -4.289062 -43.15625 -5.59375 -44.15625 C -6.90625 -45.164062 -7.34375 -46.265625 -6.90625 -47.453125 C -5.851562 -50.078125 -4.867188 -53.789062 -3.953125 -58.59375 C -3.046875 -63.40625 -2.300781 -67.910156 -1.71875 -72.109375 C -3.550781 -72.273438 -5.132812 -72.914062 -6.46875 -74.03125 C -7.800781 -75.15625 -8.820312 -77.25 -9.53125 -80.3125 C -10.082031 -82.6875 -10.003906 -85.175781 -9.296875 -87.78125 C -8.585938 -90.394531 -7.285156 -92.753906 -5.390625 -94.859375 C -3.503906 -96.972656 -1.035156 -98.382812 2.015625 -99.09375 C 7.347656 -100.332031 12.710938 -100.503906 18.109375 -99.609375 C 23.515625 -98.722656 28.160156 -97.09375 32.046875 -94.71875 C 35.941406 -92.34375 38.25 -89.625 38.96875 -86.5625 C 39.695312 -83.394531 39.796875 -80.253906 39.265625 -77.140625 C 38.734375 -74.035156 38.1875 -70.863281 37.625 -67.625 C 37.070312 -64.394531 37.203125 -61.03125 38.015625 -57.53125 C 38.566406 -55.144531 39.816406 -53.34375 41.765625 -52.125 C 43.722656 -50.90625 46.628906 -50.742188 50.484375 -51.640625 C 53.085938 -52.253906 55.070312 -53.582031 56.4375 -55.625 C 57.8125 -57.675781 59.0625 -60.148438 60.1875 -63.046875 Z M 60.1875 -63.046875 "/></g></g></g><g fill="#f4c846" fill-opacity="1"><g transform="translate(418.624493, 320.805785)"><g><path d="M 73.9375 -66.234375 C 74.382812 -67.398438 75.375 -68.007812 76.90625 -68.0625 C 78.445312 -68.125 79.867188 -67.800781 81.171875 -67.09375 C 82.472656 -66.382812 82.9375 -65.273438 82.5625 -63.765625 C 81.769531 -60.003906 80.519531 -56.015625 78.8125 -51.796875 C 77.113281 -47.578125 74.648438 -43.8125 71.421875 -40.5 C 68.191406 -37.1875 63.800781 -34.882812 58.25 -33.59375 L 56.21875 -33.125 C 53.363281 -26.363281 49.421875 -20.578125 44.390625 -15.765625 C 39.367188 -10.960938 33.6875 -7.828125 27.34375 -6.359375 C 19.757812 -4.585938 12.882812 -5.671875 6.71875 -9.609375 C 0.550781 -13.546875 -3.554688 -19.929688 -5.609375 -28.765625 C -7.085938 -35.109375 -7.429688 -41.863281 -6.640625 -49.03125 C -5.859375 -56.195312 -4.023438 -63.066406 -1.140625 -69.640625 C 1.742188 -76.222656 5.617188 -81.867188 10.484375 -86.578125 C 15.359375 -91.285156 21.195312 -94.429688 28 -96.015625 C 32.644531 -97.085938 37.050781 -97.125 41.21875 -96.125 C 45.394531 -95.132812 49.082031 -92.742188 52.28125 -88.953125 C 55.476562 -85.160156 57.910156 -79.691406 59.578125 -72.546875 C 60.960938 -66.546875 61.472656 -60.523438 61.109375 -54.484375 L 62.296875 -54.75 C 64.785156 -55.332031 67.007812 -56.535156 68.96875 -58.359375 C 70.9375 -60.191406 72.59375 -62.816406 73.9375 -66.234375 Z M 28.859375 -43.765625 C 31.691406 -44.421875 33.984375 -45.847656 35.734375 -48.046875 C 37.492188 -50.242188 38.710938 -52.703125 39.390625 -55.421875 C 40.066406 -58.148438 40.128906 -60.703125 39.578125 -63.078125 C 38.992188 -65.566406 37.765625 -67.519531 35.890625 -68.9375 C 34.015625 -70.351562 31.4375 -70.675781 28.15625 -69.90625 C 25.4375 -69.28125 23.210938 -67.929688 21.484375 -65.859375 C 19.765625 -63.785156 18.59375 -61.390625 17.96875 -58.671875 C 17.34375 -55.960938 17.320312 -53.363281 17.90625 -50.875 C 18.476562 -48.382812 19.648438 -46.390625 21.421875 -44.890625 C 23.203125 -43.398438 25.679688 -43.023438 28.859375 -43.765625 Z M 28.859375 -43.765625 "/></g></g></g><g fill="#f4c846" fill-opacity="1"><g transform="translate(499.469412, 302.02298)"><g><path d="M 14.4375 -3.359375 C 8.4375 -1.960938 3.859375 -2.65625 0.703125 -5.4375 C -2.453125 -8.226562 -4.609375 -12.113281 -5.765625 -17.09375 C -6.765625 -21.40625 -7.316406 -26.234375 -7.421875 -31.578125 C -7.535156 -36.921875 -7.304688 -42.226562 -6.734375 -47.5 C -4.804688 -65.351562 -3.132812 -80.351562 -1.71875 -92.5 C -0.300781 -104.65625 1.609375 -114.023438 4.015625 -120.609375 C 6.429688 -127.191406 9.898438 -131.007812 14.421875 -132.0625 C 17.929688 -132.882812 20.445312 -132.066406 21.96875 -129.609375 C 23.5 -127.160156 23.582031 -122.972656 22.21875 -117.046875 C 19.757812 -106.578125 17.785156 -96.957031 16.296875 -88.1875 C 14.804688 -79.425781 13.925781 -71.253906 13.65625 -63.671875 C 13.519531 -60.179688 13.597656 -56.890625 13.890625 -53.796875 C 14.191406 -50.710938 15.128906 -48.363281 16.703125 -46.75 C 18.273438 -45.144531 20.757812 -44.738281 24.15625 -45.53125 C 27.09375 -46.21875 29.488281 -47.582031 31.34375 -49.625 C 33.195312 -51.664062 34.710938 -54.257812 35.890625 -57.40625 C 36.484375 -58.96875 37.5625 -59.71875 39.125 -59.65625 C 40.6875 -59.601562 42.082031 -59.117188 43.3125 -58.203125 C 44.539062 -57.296875 44.941406 -56.203125 44.515625 -54.921875 C 43.816406 -52.847656 43.070312 -49.898438 42.28125 -46.078125 C 41.488281 -42.253906 40.445312 -38.128906 39.15625 -33.703125 C 37.863281 -29.285156 36.160156 -24.945312 34.046875 -20.6875 C 31.929688 -16.4375 29.296875 -12.753906 26.140625 -9.640625 C 22.984375 -6.523438 19.082031 -4.429688 14.4375 -3.359375 Z M 14.4375 -3.359375 "/></g></g></g><g fill="#f4c846" fill-opacity="1"><g transform="translate(542.269652, 292.079145)"><g><path d="M 33.640625 9.1875 C 27.753906 10.550781 22.148438 10.179688 16.828125 8.078125 C 11.503906 5.972656 6.882812 2.394531 2.96875 -2.65625 C -0.945312 -7.71875 -3.785156 -14.039062 -5.546875 -21.625 C -7.304688 -29.21875 -7.703125 -37.84375 -6.734375 -47.5 C -4.804688 -65.351562 -3.132812 -80.351562 -1.71875 -92.5 C -0.300781 -104.65625 1.609375 -114.023438 4.015625 -120.609375 C 6.429688 -127.191406 9.898438 -131.007812 14.421875 -132.0625 C 17.929688 -132.882812 20.445312 -132.066406 21.96875 -129.609375 C 23.5 -127.160156 23.582031 -122.972656 22.21875 -117.046875 C 19.757812 -106.578125 17.785156 -96.957031 16.296875 -88.1875 C 14.804688 -79.425781 13.925781 -71.253906 13.65625 -63.671875 C 13.25 -52.597656 14.378906 -44.535156 17.046875 -39.484375 C 19.710938 -34.429688 24.390625 -32.6875 31.078125 -34.25 C 34.472656 -35.03125 36.945312 -36.316406 38.5 -38.109375 C 40.050781 -39.910156 41.160156 -41.8125 41.828125 -43.8125 C 42.492188 -45.820312 43.148438 -47.617188 43.796875 -49.203125 C 44.441406 -50.785156 45.613281 -51.769531 47.3125 -52.15625 C 49.914062 -52.769531 52.347656 -51.546875 54.609375 -48.484375 C 56.878906 -45.429688 58.578125 -41.46875 59.703125 -36.59375 C 60.648438 -32.53125 61.007812 -28.144531 60.78125 -23.4375 C 60.5625 -18.726562 59.5 -14.179688 57.59375 -9.796875 C 55.695312 -5.421875 52.816406 -1.535156 48.953125 1.859375 C 45.085938 5.265625 39.984375 7.707031 33.640625 9.1875 Z M 33.640625 9.1875 "/></g></g></g><g fill="#f4c846" fill-opacity="1"><g transform="translate(179.640604, 501.44367)"><g><path d="M 24.234375 1.890625 C 17.335938 3.492188 11.382812 3.414062 6.375 1.65625 C 1.363281 -0.101562 -2.640625 -2.960938 -5.640625 -6.921875 C -8.640625 -10.878906 -10.675781 -15.179688 -11.75 -19.828125 C -12.832031 -24.472656 -12.929688 -29.132812 -12.046875 -33.8125 C -11.171875 -38.488281 -9.34375 -42.550781 -6.5625 -46 C -3.789062 -49.445312 -0.140625 -51.695312 4.390625 -52.75 C 6.085938 -53.144531 7.09375 -52.664062 7.40625 -51.3125 C 8.28125 -47.570312 10.597656 -44.914062 14.359375 -43.34375 C 18.117188 -41.769531 22.320312 -41.519531 26.96875 -42.59375 C 32.289062 -43.832031 37.421875 -47.441406 42.359375 -53.421875 C 47.296875 -59.410156 50.5625 -67.960938 52.15625 -79.078125 C 52.738281 -83.265625 53.3125 -87.601562 53.875 -92.09375 C 54.4375 -96.582031 55.039062 -100.804688 55.6875 -104.765625 C 56.132812 -107.972656 57.144531 -110.414062 58.71875 -112.09375 C 60.289062 -113.769531 62.328125 -114.898438 64.828125 -115.484375 C 68.441406 -116.328125 70.921875 -116.039062 72.265625 -114.625 C 73.609375 -113.207031 74.332031 -111.015625 74.4375 -108.046875 C 74.488281 -105.203125 74.1875 -101.585938 73.53125 -97.203125 C 72.882812 -92.816406 72.164062 -88.234375 71.375 -83.453125 C 70.582031 -78.671875 69.984375 -74.175781 69.578125 -69.96875 C 69.179688 -65.757812 69.285156 -62.351562 69.890625 -59.75 C 70.390625 -57.59375 71.46875 -55.898438 73.125 -54.671875 C 74.789062 -53.453125 77.039062 -53.171875 79.875 -53.828125 C 83.601562 -54.703125 86.695312 -56.765625 89.15625 -60.015625 C 91.625 -63.273438 93.53125 -67.265625 94.875 -71.984375 C 96.226562 -76.710938 96.9375 -81.769531 97 -87.15625 C 97.070312 -92.539062 96.53125 -97.726562 95.375 -102.71875 C 94.238281 -107.582031 92.316406 -111.847656 89.609375 -115.515625 C 86.910156 -119.179688 83.082031 -121.78125 78.125 -123.3125 C 73.164062 -124.851562 66.78125 -124.71875 58.96875 -122.90625 C 53.65625 -121.664062 48.769531 -119.601562 44.3125 -116.71875 C 39.851562 -113.832031 36.515625 -110.222656 34.296875 -105.890625 C 32.078125 -101.554688 31.65625 -96.445312 33.03125 -90.5625 C 33.601562 -88.070312 34.703125 -86.148438 36.328125 -84.796875 C 37.953125 -83.441406 39.671875 -82.976562 41.484375 -83.40625 C 42.753906 -83.570312 43.34375 -82.453125 43.25 -80.046875 C 43.15625 -77.640625 42.394531 -74.742188 40.96875 -71.359375 C 39.539062 -67.984375 37.4375 -64.835938 34.65625 -61.921875 C 31.875 -59.015625 28.441406 -57.085938 24.359375 -56.140625 C 19.722656 -55.054688 15.550781 -55.304688 11.84375 -56.890625 C 8.132812 -58.484375 5.046875 -60.988281 2.578125 -64.40625 C 0.109375 -67.832031 -1.625 -71.695312 -2.625 -76 C -4.3125 -83.25 -4.285156 -90.472656 -2.546875 -97.671875 C -0.816406 -104.878906 2.40625 -111.660156 7.125 -118.015625 C 11.851562 -124.367188 17.9375 -129.898438 25.375 -134.609375 C 32.820312 -139.316406 41.414062 -142.800781 51.15625 -145.0625 C 62.019531 -147.59375 71.492188 -148.273438 79.578125 -147.109375 C 87.671875 -145.941406 94.535156 -143.359375 100.171875 -139.359375 C 105.816406 -135.367188 110.382812 -130.34375 113.875 -124.28125 C 117.375 -118.226562 119.96875 -111.582031 121.65625 -104.34375 C 123.757812 -95.28125 124.472656 -86.046875 123.796875 -76.640625 C 123.117188 -67.234375 121.25 -58.441406 118.1875 -50.265625 C 115.132812 -42.097656 111.039062 -35.179688 105.90625 -29.515625 C 100.78125 -23.859375 94.828125 -20.238281 88.046875 -18.65625 C 81.015625 -17.03125 74.96875 -17.863281 69.90625 -21.15625 C 64.84375 -24.457031 61.269531 -29.566406 59.1875 -36.484375 C 56.488281 -26.554688 52.171875 -18.179688 46.234375 -11.359375 C 40.296875 -4.546875 32.960938 -0.128906 24.234375 1.890625 Z M 24.234375 1.890625 "/></g></g></g><g fill="#f4c846" fill-opacity="1"><g transform="translate(317.89222, 469.323492)"><g><path d="M 73.9375 -66.234375 C 74.382812 -67.398438 75.375 -68.007812 76.90625 -68.0625 C 78.445312 -68.125 79.867188 -67.800781 81.171875 -67.09375 C 82.472656 -66.382812 82.9375 -65.273438 82.5625 -63.765625 C 81.769531 -60.003906 80.519531 -56.015625 78.8125 -51.796875 C 77.113281 -47.578125 74.648438 -43.8125 71.421875 -40.5 C 68.191406 -37.1875 63.800781 -34.882812 58.25 -33.59375 L 56.21875 -33.125 C 53.363281 -26.363281 49.421875 -20.578125 44.390625 -15.765625 C 39.367188 -10.960938 33.6875 -7.828125 27.34375 -6.359375 C 19.757812 -4.585938 12.882812 -5.671875 6.71875 -9.609375 C 0.550781 -13.546875 -3.554688 -19.929688 -5.609375 -28.765625 C -7.085938 -35.109375 -7.429688 -41.863281 -6.640625 -49.03125 C -5.859375 -56.195312 -4.023438 -63.066406 -1.140625 -69.640625 C 1.742188 -76.222656 5.617188 -81.867188 10.484375 -86.578125 C 15.359375 -91.285156 21.195312 -94.429688 28 -96.015625 C 32.644531 -97.085938 37.050781 -97.125 41.21875 -96.125 C 45.394531 -95.132812 49.082031 -92.742188 52.28125 -88.953125 C 55.476562 -85.160156 57.910156 -79.691406 59.578125 -72.546875 C 60.960938 -66.546875 61.472656 -60.523438 61.109375 -54.484375 L 62.296875 -54.75 C 64.785156 -55.332031 67.007812 -56.535156 68.96875 -58.359375 C 70.9375 -60.191406 72.59375 -62.816406 73.9375 -66.234375 Z M 28.859375 -43.765625 C 31.691406 -44.421875 33.984375 -45.847656 35.734375 -48.046875 C 37.492188 -50.242188 38.710938 -52.703125 39.390625 -55.421875 C 40.066406 -58.148438 40.128906 -60.703125 39.578125 -63.078125 C 38.992188 -65.566406 37.765625 -67.519531 35.890625 -68.9375 C 34.015625 -70.351562 31.4375 -70.675781 28.15625 -69.90625 C 25.4375 -69.28125 23.210938 -67.929688 21.484375 -65.859375 C 19.765625 -63.785156 18.59375 -61.390625 17.96875 -58.671875 C 17.34375 -55.960938 17.320312 -53.363281 17.90625 -50.875 C 18.476562 -48.382812 19.648438 -46.390625 21.421875 -44.890625 C 23.203125 -43.398438 25.679688 -43.023438 28.859375 -43.765625 Z M 28.859375 -43.765625 "/></g></g></g><g fill="#f4c846" fill-opacity="1"><g transform="translate(398.737154, 450.540684)"><g><path d="M 107.921875 -74.125 C 108.359375 -75.300781 109.34375 -75.914062 110.875 -75.96875 C 112.414062 -76.019531 113.835938 -75.691406 115.140625 -74.984375 C 116.441406 -74.273438 116.90625 -73.164062 116.53125 -71.65625 C 115.75 -67.894531 114.503906 -63.90625 112.796875 -59.6875 C 111.085938 -55.46875 108.617188 -51.703125 105.390625 -48.390625 C 102.160156 -45.078125 97.769531 -42.773438 92.21875 -41.484375 C 90.40625 -41.066406 88.570312 -41 86.71875 -41.28125 C 83.84375 -34.632812 80.5 -28.867188 76.6875 -23.984375 C 72.875 -19.109375 68.476562 -16.09375 63.5 -14.9375 C 61.113281 -14.375 58.679688 -14.671875 56.203125 -15.828125 C 53.722656 -16.984375 51.414062 -19.578125 49.28125 -23.609375 C 47.144531 -27.648438 45.503906 -33.71875 44.359375 -41.8125 C 43.171875 -33.53125 41.296875 -26.796875 38.734375 -21.609375 C 36.179688 -16.429688 33.328125 -12.550781 30.171875 -9.96875 C 27.023438 -7.382812 23.867188 -5.722656 20.703125 -4.984375 C 16.160156 -3.929688 12.113281 -4.484375 8.5625 -6.640625 C 5.019531 -8.796875 2.070312 -11.988281 -0.28125 -16.21875 C -2.632812 -20.445312 -4.421875 -25.3125 -5.640625 -30.8125 C -6.867188 -36.320312 -7.40625 -41.84375 -7.25 -47.375 C -7.25 -52.019531 -6.957031 -56.796875 -6.375 -61.703125 C -5.789062 -66.617188 -4.921875 -71.210938 -3.765625 -75.484375 C -2.609375 -79.753906 -1.191406 -83.273438 0.484375 -86.046875 C 2.171875 -88.816406 4.207031 -90.484375 6.59375 -91.046875 C 8.289062 -91.429688 9.710938 -91.21875 10.859375 -90.40625 C 12.003906 -89.601562 12.863281 -87.960938 13.4375 -85.484375 C 14.175781 -82.304688 14.328125 -78.695312 13.890625 -74.65625 C 13.460938 -70.625 13.066406 -66.5625 12.703125 -62.46875 C 12.335938 -58.382812 12.550781 -54.644531 13.34375 -51.25 C 14.070312 -48.082031 15.421875 -45.710938 17.390625 -44.140625 C 19.367188 -42.566406 21.890625 -42.132812 24.953125 -42.84375 C 29.140625 -43.820312 32.015625 -46.078125 33.578125 -49.609375 C 35.148438 -53.140625 35.910156 -56.804688 35.859375 -60.609375 C 35.910156 -63.484375 35.664062 -66.082031 35.125 -68.40625 C 34.582031 -70.726562 34.085938 -73.117188 33.640625 -75.578125 C 33.191406 -78.035156 33.019531 -80.832031 33.125 -83.96875 C 33.5 -89.539062 34.691406 -93.394531 36.703125 -95.53125 C 38.710938 -97.664062 41.640625 -99.179688 45.484375 -100.078125 C 52.628906 -101.734375 57.097656 -98.710938 58.890625 -91.015625 C 59.523438 -88.296875 59.445312 -85.144531 58.65625 -81.5625 C 57.875 -77.976562 57.09375 -74.394531 56.3125 -70.8125 C 55.53125 -67.238281 55.472656 -64.035156 56.140625 -61.203125 C 56.867188 -58.035156 58.21875 -55.664062 60.1875 -54.09375 C 62.164062 -52.519531 64.691406 -52.085938 67.765625 -52.796875 C 70.816406 -53.503906 73.289062 -54.765625 75.1875 -56.578125 C 77.09375 -58.398438 78.585938 -60.570312 79.671875 -63.09375 C 78.617188 -65.59375 77.632812 -68.046875 76.71875 -70.453125 C 75.800781 -72.867188 75.039062 -75.378906 74.4375 -77.984375 C 73.28125 -82.960938 72.804688 -87.6875 73.015625 -92.15625 C 73.234375 -96.625 74.316406 -100.425781 76.265625 -103.5625 C 78.222656 -106.695312 81.128906 -108.710938 84.984375 -109.609375 C 89.398438 -110.640625 92.640625 -109.273438 94.703125 -105.515625 C 96.765625 -101.753906 97.6875 -96.117188 97.46875 -88.609375 C 97.25 -81.097656 95.867188 -72.273438 93.328125 -62.140625 C 93.921875 -62.160156 94.441406 -62.222656 94.890625 -62.328125 C 95.347656 -62.429688 95.804688 -62.535156 96.265625 -62.640625 C 98.753906 -63.222656 100.976562 -64.425781 102.9375 -66.25 C 104.90625 -68.082031 106.566406 -70.707031 107.921875 -74.125 Z M 107.921875 -74.125 "/></g></g></g><g fill="#f4c846" fill-opacity="1"><g transform="translate(513.550536, 423.865941)"><g><path d="M 76.265625 -0.71875 C 68.796875 1.007812 61.972656 0.269531 55.796875 -2.9375 C 49.617188 -6.15625 44.820312 -11.242188 41.40625 -18.203125 C 38 -25.171875 36.632812 -33.394531 37.3125 -42.875 C 37.5625 -46.382812 37.867188 -49.671875 38.234375 -52.734375 C 38.597656 -55.804688 38.546875 -58.363281 38.078125 -60.40625 C 37.628906 -62.332031 36.6875 -63.664062 35.25 -64.40625 C 33.820312 -65.144531 32.144531 -65.289062 30.21875 -64.84375 C 26.9375 -64.082031 24.226562 -61.992188 22.09375 -58.578125 C 19.96875 -55.160156 18.566406 -51.039062 17.890625 -46.21875 C 17.222656 -41.40625 17.484375 -36.453125 18.671875 -31.359375 L 20.4375 -23.71875 C 21.09375 -20.894531 21.398438 -18.015625 21.359375 -15.078125 C 21.328125 -12.148438 20.535156 -9.550781 18.984375 -7.28125 C 17.429688 -5.007812 14.671875 -3.410156 10.703125 -2.484375 C 6.734375 -1.566406 3.394531 -2.046875 0.6875 -3.921875 C -2.007812 -5.804688 -3.765625 -8.503906 -4.578125 -12.015625 C -5.503906 -15.972656 -6.203125 -21.023438 -6.671875 -27.171875 C -7.148438 -33.328125 -7.226562 -40.085938 -6.90625 -47.453125 C -6.539062 -54.578125 -5.867188 -61.328125 -4.890625 -67.703125 C -3.921875 -74.078125 -2.640625 -79.351562 -1.046875 -83.53125 C 0.535156 -87.71875 2.40625 -90.0625 4.5625 -90.5625 C 6.820312 -91.09375 8.46875 -90.789062 9.5 -89.65625 C 10.539062 -88.519531 11.257812 -87.101562 11.65625 -85.40625 C 12.425781 -82.125 13.695312 -80.269531 15.46875 -79.84375 C 17.238281 -79.425781 19.160156 -80.894531 21.234375 -84.25 C 23.703125 -88.039062 26.4375 -91.175781 29.4375 -93.65625 C 32.4375 -96.144531 35.804688 -97.820312 39.546875 -98.6875 C 44.753906 -99.90625 48.957031 -99.273438 52.15625 -96.796875 C 55.363281 -94.316406 57.46875 -90.925781 58.46875 -86.625 C 59.144531 -83.675781 59.398438 -80.898438 59.234375 -78.296875 C 59.066406 -75.691406 58.820312 -73.007812 58.5 -70.25 C 58.1875 -67.5 58.195312 -64.367188 58.53125 -60.859375 C 59.09375 -55.378906 60.289062 -51.390625 62.125 -48.890625 C 63.957031 -46.390625 66.117188 -44.921875 68.609375 -44.484375 C 71.097656 -44.046875 73.53125 -44.101562 75.90625 -44.65625 C 79.53125 -45.5 82.117188 -46.816406 83.671875 -48.609375 C 85.234375 -50.410156 86.347656 -52.3125 87.015625 -54.3125 C 87.679688 -56.320312 88.332031 -58.113281 88.96875 -59.6875 C 89.613281 -61.269531 90.789062 -62.257812 92.5 -62.65625 C 95.09375 -63.257812 97.515625 -62.0625 99.765625 -59.0625 C 102.023438 -56.0625 103.707031 -52.191406 104.8125 -47.453125 C 105.757812 -43.367188 106.09375 -38.96875 105.8125 -34.25 C 105.53125 -29.53125 104.363281 -24.90625 102.3125 -20.375 C 100.269531 -15.84375 97.144531 -11.832031 92.9375 -8.34375 C 88.738281 -4.863281 83.179688 -2.320312 76.265625 -0.71875 Z M 76.265625 -0.71875 "/></g></g></g><g fill="#f4c846" fill-opacity="1"><g transform="translate(622.419446, 398.572286)"><g><path d="M 21.390625 -46.6875 C 18.097656 -45.914062 15.859375 -48.070312 14.671875 -53.15625 C 13.410156 -58.601562 12.46875 -64.984375 11.84375 -72.296875 C 11.21875 -79.609375 10.992188 -87.101562 11.171875 -94.78125 C 11.359375 -102.46875 11.976562 -109.6875 13.03125 -116.4375 C 14.09375 -123.1875 15.65625 -128.800781 17.71875 -133.28125 C 19.789062 -137.757812 22.410156 -140.363281 25.578125 -141.09375 C 32.253906 -142.644531 36.445312 -139.738281 38.15625 -132.375 C 38.894531 -129.207031 39.195312 -124.953125 39.0625 -119.609375 C 38.9375 -114.273438 38.445312 -108.4375 37.59375 -102.09375 C 36.738281 -95.75 35.707031 -89.390625 34.5 -83.015625 C 33.289062 -76.648438 31.910156 -70.78125 30.359375 -65.40625 C 28.804688 -60.03125 27.257812 -55.644531 25.71875 -52.25 C 24.1875 -48.851562 22.742188 -47 21.390625 -46.6875 Z M 20.09375 -2.875 C 16.238281 -1.976562 12.566406 -2.613281 9.078125 -4.78125 C 5.597656 -6.957031 3.410156 -9.976562 2.515625 -13.84375 C 1.597656 -17.789062 2.226562 -21.476562 4.40625 -24.90625 C 6.59375 -28.34375 9.613281 -30.507812 13.46875 -31.40625 C 17.425781 -32.320312 21.113281 -31.710938 24.53125 -29.578125 C 27.957031 -27.453125 30.128906 -24.414062 31.046875 -20.46875 C 31.941406 -16.601562 31.328125 -12.929688 29.203125 -9.453125 C 27.085938 -5.984375 24.050781 -3.789062 20.09375 -2.875 Z M 20.09375 -2.875 "/></g></g></g><g fill="#f4c846" fill-opacity="1"><g transform="translate(673.215931, 386.770672)"><g/></g></g></svg>