<svg xmlns="http://www.w3.org/2000/svg" xmlns:xlink="http://www.w3.org/1999/xlink" width="1366" zoomAndPan="magnify" viewBox="0 0 1024.5 142.499996" height="190" preserveAspectRatio="xMidYMid meet" version="1.0"><defs><clipPath id="3205098207"><path d="M 1.542969 0 L 1022.460938 0 L 1022.460938 142 L 1.542969 142 Z M 1.542969 0 " clip-rule="nonzero"/></clipPath><clipPath id="b7395d1683"><path d="M 1.542969 0 L 52.539062 0 L 52.539062 127.800781 L 1.542969 127.800781 Z M 1.542969 0 " clip-rule="nonzero"/></clipPath><clipPath id="2489c28cdf"><path d="M -34.210938 -45.703125 L -21.40625 -27.011719 L -2.738281 -39.796875 L 2.480469 -17.71875 L 24.484375 -22.867188 L 21.410156 -0.390625 L 43.777344 2.792969 L 32.824219 22.636719 L 52.539062 33.71875 L 35.191406 48.25 L 49.585938 65.738281 L 28.179688 72.996094 L 35.3125 94.523438 L 12.742188 93.523438 L 11.652344 116.1875 L -9.035156 107.066406 L -18.203125 127.800781 L -34.210938 111.792969 L -50.222656 127.800781 L -59.390625 107.066406 L -80.078125 116.1875 L -81.167969 93.523438 L -103.738281 94.523438 L -96.605469 72.996094 L -118.011719 65.738281 L -103.617188 48.25 L -120.964844 33.71875 L -101.253906 22.636719 L -112.203125 2.792969 L -89.835938 -0.390625 L -92.910156 -22.867188 L -70.90625 -17.71875 L -65.6875 -39.796875 L -47.019531 -27.011719 Z M -34.210938 -45.703125 " clip-rule="nonzero"/></clipPath><clipPath id="b2a39ddca7"><path d="M 1.542969 0 L 52.425781 0 L 52.425781 127.6875 L 1.542969 127.6875 Z M 1.542969 0 " clip-rule="nonzero"/></clipPath><clipPath id="c37af8928f"><path d="M -34.21875 -45.703125 L -21.410156 -27.015625 L -2.746094 -39.796875 L 2.472656 -17.722656 L 24.476562 -22.871094 L 21.402344 -0.390625 L 43.769531 2.789062 L 32.816406 22.632812 L 52.53125 33.714844 L 35.179688 48.246094 L 49.578125 65.730469 L 28.171875 72.988281 L 35.304688 94.515625 L 12.734375 93.515625 L 11.644531 116.175781 L -9.039062 107.054688 L -18.210938 127.792969 L -34.21875 111.78125 L -50.226562 127.792969 L -59.394531 107.054688 L -80.082031 116.175781 L -81.171875 93.515625 L -103.742188 94.515625 L -96.605469 72.988281 L -118.011719 65.730469 L -103.617188 48.246094 L -120.964844 33.714844 L -101.253906 22.632812 L -112.203125 2.789062 L -89.835938 -0.390625 L -92.910156 -22.871094 L -70.90625 -17.722656 L -65.6875 -39.796875 L -47.023438 -27.015625 Z M -34.21875 -45.703125 " clip-rule="nonzero"/></clipPath><clipPath id="5ddaa07aa8"><path d="M 223.457031 0 L 396.964844 0 L 396.964844 127.800781 L 223.457031 127.800781 Z M 223.457031 0 " clip-rule="nonzero"/></clipPath><clipPath id="de02abea57"><path d="M 310.210938 -45.703125 L 323.019531 -27.011719 L 341.683594 -39.796875 L 346.902344 -17.71875 L 368.90625 -22.867188 L 365.832031 -0.390625 L 388.203125 2.792969 L 377.25 22.636719 L 396.964844 33.71875 L 379.613281 48.25 L 394.011719 65.738281 L 372.605469 72.996094 L 379.738281 94.523438 L 357.167969 93.523438 L 356.078125 116.1875 L 335.390625 107.066406 L 326.222656 127.800781 L 310.210938 111.792969 L 294.203125 127.800781 L 285.03125 107.066406 L 264.347656 116.1875 L 263.253906 93.523438 L 240.683594 94.523438 L 247.820312 72.996094 L 226.414062 65.738281 L 240.808594 48.25 L 223.457031 33.71875 L 243.171875 22.636719 L 232.21875 2.792969 L 254.589844 -0.390625 L 251.515625 -22.867188 L 273.519531 -17.71875 L 278.738281 -39.796875 L 297.402344 -27.011719 Z M 310.210938 -45.703125 " clip-rule="nonzero"/></clipPath><clipPath id="a1f378ff00"><path d="M 223.457031 0 L 396.851562 0 L 396.851562 127.6875 L 223.457031 127.6875 Z M 223.457031 0 " clip-rule="nonzero"/></clipPath><clipPath id="6f291ad910"><path d="M 310.207031 -45.703125 L 323.011719 -27.015625 L 341.679688 -39.796875 L 346.898438 -17.722656 L 368.898438 -22.871094 L 365.824219 -0.390625 L 388.191406 2.789062 L 377.242188 22.632812 L 396.953125 33.714844 L 379.605469 48.246094 L 394 65.730469 L 372.597656 72.988281 L 379.730469 94.515625 L 357.160156 93.515625 L 356.070312 116.175781 L 335.382812 107.054688 L 326.214844 127.792969 L 310.207031 111.78125 L 294.199219 127.792969 L 285.03125 107.054688 L 264.34375 116.175781 L 263.253906 93.515625 L 240.683594 94.515625 L 247.816406 72.988281 L 226.414062 65.730469 L 240.808594 48.246094 L 223.457031 33.714844 L 243.171875 22.632812 L 232.21875 2.789062 L 254.589844 -0.390625 L 251.515625 -22.871094 L 273.515625 -17.722656 L 278.734375 -39.796875 L 297.398438 -27.015625 Z M 310.207031 -45.703125 " clip-rule="nonzero"/></clipPath><clipPath id="4101ec4d47"><path d="M 338.636719 0 L 512.144531 0 L 512.144531 127.800781 L 338.636719 127.800781 Z M 338.636719 0 " clip-rule="nonzero"/></clipPath><clipPath id="f152fd878d"><path d="M 425.390625 -45.703125 L 438.195312 -27.011719 L 456.863281 -39.796875 L 462.082031 -17.71875 L 484.085938 -22.867188 L 481.011719 -0.390625 L 503.378906 2.792969 L 492.429688 22.636719 L 512.144531 33.71875 L 494.792969 48.25 L 509.1875 65.738281 L 487.78125 72.996094 L 494.917969 94.523438 L 472.347656 93.523438 L 471.253906 116.1875 L 450.566406 107.066406 L 441.398438 127.800781 L 425.390625 111.792969 L 409.378906 127.800781 L 400.210938 107.066406 L 379.523438 116.1875 L 378.433594 93.523438 L 355.863281 94.523438 L 362.996094 72.996094 L 341.589844 65.738281 L 355.988281 48.25 L 338.636719 33.71875 L 358.351562 22.636719 L 347.398438 2.792969 L 369.769531 -0.390625 L 366.695312 -22.867188 L 388.699219 -17.71875 L 393.917969 -39.796875 L 412.582031 -27.011719 Z M 425.390625 -45.703125 " clip-rule="nonzero"/></clipPath><clipPath id="447c9d2054"><path d="M 338.636719 0 L 512.027344 0 L 512.027344 127.6875 L 338.636719 127.6875 Z M 338.636719 0 " clip-rule="nonzero"/></clipPath><clipPath id="6b6a903baa"><path d="M 425.386719 -45.703125 L 438.191406 -27.015625 L 456.855469 -39.796875 L 462.074219 -17.722656 L 484.078125 -22.871094 L 481.003906 -0.390625 L 503.371094 2.789062 L 492.421875 22.632812 L 512.132812 33.714844 L 494.785156 48.246094 L 509.179688 65.730469 L 487.773438 72.988281 L 494.90625 94.515625 L 472.339844 93.515625 L 471.246094 116.175781 L 450.5625 107.054688 L 441.394531 127.792969 L 425.386719 111.78125 L 409.375 127.792969 L 400.207031 107.054688 L 379.523438 116.175781 L 378.429688 93.515625 L 355.863281 94.515625 L 362.996094 72.988281 L 341.589844 65.730469 L 355.984375 48.246094 L 338.636719 33.714844 L 358.347656 22.632812 L 347.398438 2.789062 L 369.765625 -0.390625 L 366.691406 -22.871094 L 388.695312 -17.722656 L 393.914062 -39.796875 L 412.578125 -27.015625 Z M 425.386719 -45.703125 " clip-rule="nonzero"/></clipPath><clipPath id="ee36c8bf85"><path d="M 683.0625 0 L 856.566406 0 L 856.566406 127.800781 L 683.0625 127.800781 Z M 683.0625 0 " clip-rule="nonzero"/></clipPath><clipPath id="c71e2bfca2"><path d="M 769.8125 -45.703125 L 782.621094 -27.011719 L 801.289062 -39.796875 L 806.507812 -17.71875 L 828.507812 -22.867188 L 825.4375 -0.390625 L 847.804688 2.792969 L 836.851562 22.636719 L 856.566406 33.71875 L 839.214844 48.25 L 853.613281 65.738281 L 832.207031 72.996094 L 839.339844 94.523438 L 816.769531 93.523438 L 815.679688 116.1875 L 794.992188 107.066406 L 785.824219 127.800781 L 769.8125 111.792969 L 753.804688 127.800781 L 744.636719 107.066406 L 723.949219 116.1875 L 722.855469 93.523438 L 700.285156 94.523438 L 707.421875 72.996094 L 686.015625 65.738281 L 700.410156 48.25 L 683.0625 33.71875 L 702.773438 22.636719 L 691.824219 2.792969 L 714.191406 -0.390625 L 711.117188 -22.867188 L 733.121094 -17.71875 L 738.339844 -39.796875 L 757.007812 -27.011719 Z M 769.8125 -45.703125 " clip-rule="nonzero"/></clipPath><clipPath id="78590c38d2"><path d="M 683.0625 0 L 856.453125 0 L 856.453125 127.6875 L 683.0625 127.6875 Z M 683.0625 0 " clip-rule="nonzero"/></clipPath><clipPath id="bcc7bb3f95"><path d="M 769.808594 -45.703125 L 782.617188 -27.015625 L 801.28125 -39.796875 L 806.5 -17.722656 L 828.5 -22.871094 L 825.429688 -0.390625 L 847.796875 2.789062 L 836.84375 22.632812 L 856.558594 33.714844 L 839.207031 48.246094 L 853.601562 65.730469 L 832.199219 72.988281 L 839.332031 94.515625 L 816.761719 93.515625 L 815.671875 116.175781 L 794.984375 107.054688 L 785.816406 127.792969 L 769.808594 111.78125 L 753.800781 127.792969 L 744.632812 107.054688 L 723.945312 116.175781 L 722.855469 93.515625 L 700.285156 94.515625 L 707.417969 72.988281 L 686.015625 65.730469 L 700.410156 48.246094 L 683.0625 33.714844 L 702.773438 22.632812 L 691.824219 2.789062 L 714.191406 -0.390625 L 711.117188 -22.871094 L 733.117188 -17.722656 L 738.335938 -39.796875 L 757.003906 -27.015625 Z M 769.808594 -45.703125 " clip-rule="nonzero"/></clipPath><clipPath id="9906064f1d"><path d="M 108.648438 0 L 282.15625 0 L 282.15625 127.800781 L 108.648438 127.800781 Z M 108.648438 0 " clip-rule="nonzero"/></clipPath><clipPath id="4da6898700"><path d="M 195.402344 -45.703125 L 208.210938 -27.011719 L 226.875 -39.796875 L 232.09375 -17.71875 L 254.097656 -22.867188 L 251.023438 -0.390625 L 273.394531 2.792969 L 262.441406 22.636719 L 282.15625 33.71875 L 264.804688 48.25 L 279.203125 65.738281 L 257.796875 72.996094 L 264.929688 94.523438 L 242.359375 93.523438 L 241.269531 116.1875 L 220.582031 107.066406 L 211.414062 127.800781 L 195.402344 111.792969 L 179.394531 127.800781 L 170.226562 107.066406 L 149.539062 116.1875 L 148.445312 93.523438 L 125.875 94.523438 L 133.011719 72.996094 L 111.605469 65.738281 L 126 48.25 L 108.648438 33.71875 L 128.363281 22.636719 L 117.414062 2.792969 L 139.78125 -0.390625 L 136.707031 -22.867188 L 158.710938 -17.71875 L 163.929688 -39.796875 L 182.597656 -27.011719 Z M 195.402344 -45.703125 " clip-rule="nonzero"/></clipPath><clipPath id="5a7bd40898"><path d="M 108.648438 0 L 282.042969 0 L 282.042969 127.6875 L 108.648438 127.6875 Z M 108.648438 0 " clip-rule="nonzero"/></clipPath><clipPath id="ade1d97c3a"><path d="M 195.398438 -45.703125 L 208.203125 -27.015625 L 226.871094 -39.796875 L 232.089844 -17.722656 L 254.089844 -22.871094 L 251.015625 -0.390625 L 273.386719 2.789062 L 262.433594 22.632812 L 282.148438 33.714844 L 264.796875 48.246094 L 279.191406 65.730469 L 257.789062 72.988281 L 264.921875 94.515625 L 242.351562 93.515625 L 241.261719 116.175781 L 220.574219 107.054688 L 211.40625 127.792969 L 195.398438 111.78125 L 179.390625 127.792969 L 170.222656 107.054688 L 149.535156 116.175781 L 148.445312 93.515625 L 125.875 94.515625 L 133.007812 72.988281 L 111.605469 65.730469 L 126 48.246094 L 108.648438 33.714844 L 128.363281 22.632812 L 117.410156 2.789062 L 139.78125 -0.390625 L 136.707031 -22.871094 L 158.707031 -17.722656 L 163.925781 -39.796875 L 182.59375 -27.015625 Z M 195.398438 -45.703125 " clip-rule="nonzero"/></clipPath><clipPath id="ec41faf920"><path d="M 453.074219 0 L 626.582031 0 L 626.582031 127.800781 L 453.074219 127.800781 Z M 453.074219 0 " clip-rule="nonzero"/></clipPath><clipPath id="a118d6be5e"><path d="M 539.828125 -45.703125 L 552.636719 -27.011719 L 571.300781 -39.796875 L 576.519531 -17.71875 L 598.523438 -22.867188 L 595.449219 -0.390625 L 617.820312 2.792969 L 606.867188 22.636719 L 626.582031 33.71875 L 609.230469 48.25 L 623.625 65.738281 L 602.21875 72.996094 L 609.355469 94.523438 L 586.785156 93.523438 L 585.691406 116.1875 L 565.007812 107.066406 L 555.835938 127.800781 L 539.828125 111.792969 L 523.820312 127.800781 L 514.648438 107.066406 L 493.960938 116.1875 L 492.871094 93.523438 L 470.300781 94.523438 L 477.433594 72.996094 L 456.027344 65.738281 L 470.425781 48.25 L 453.074219 33.71875 L 472.789062 22.636719 L 461.835938 2.792969 L 484.207031 -0.390625 L 481.132812 -22.867188 L 503.136719 -17.71875 L 508.355469 -39.796875 L 527.019531 -27.011719 Z M 539.828125 -45.703125 " clip-rule="nonzero"/></clipPath><clipPath id="d6e5990860"><path d="M 453.074219 0 L 626.464844 0 L 626.464844 127.6875 L 453.074219 127.6875 Z M 453.074219 0 " clip-rule="nonzero"/></clipPath><clipPath id="63f16b4726"><path d="M 539.824219 -45.703125 L 552.628906 -27.015625 L 571.292969 -39.796875 L 576.511719 -17.722656 L 598.515625 -22.871094 L 595.441406 -0.390625 L 617.808594 2.789062 L 606.859375 22.632812 L 626.570312 33.714844 L 609.222656 48.246094 L 623.617188 65.730469 L 602.210938 72.988281 L 609.347656 94.515625 L 586.777344 93.515625 L 585.6875 116.175781 L 565 107.054688 L 555.832031 127.792969 L 539.824219 111.78125 L 523.816406 127.792969 L 514.644531 107.054688 L 493.960938 116.175781 L 492.867188 93.515625 L 470.300781 94.515625 L 477.433594 72.988281 L 456.027344 65.730469 L 470.425781 48.246094 L 453.074219 33.714844 L 472.789062 22.632812 L 461.835938 2.789062 L 484.203125 -0.390625 L 481.128906 -22.871094 L 503.132812 -17.722656 L 508.351562 -39.796875 L 527.015625 -27.015625 Z M 539.824219 -45.703125 " clip-rule="nonzero"/></clipPath><clipPath id="326d82f837"><path d="M 568.253906 0 L 741.757812 0 L 741.757812 127.800781 L 568.253906 127.800781 Z M 568.253906 0 " clip-rule="nonzero"/></clipPath><clipPath id="fd4087a3ac"><path d="M 655.003906 -45.703125 L 667.8125 -27.011719 L 686.480469 -39.796875 L 691.699219 -17.71875 L 713.703125 -22.867188 L 710.628906 -0.390625 L 732.996094 2.792969 L 722.042969 22.636719 L 741.757812 33.71875 L 724.410156 48.25 L 738.804688 65.738281 L 717.398438 72.996094 L 724.53125 94.523438 L 701.960938 93.523438 L 700.871094 116.1875 L 680.183594 107.066406 L 671.015625 127.800781 L 655.003906 111.792969 L 638.996094 127.800781 L 629.828125 107.066406 L 609.140625 116.1875 L 608.050781 93.523438 L 585.480469 94.523438 L 592.613281 72.996094 L 571.207031 65.738281 L 585.601562 48.25 L 568.253906 33.71875 L 587.964844 22.636719 L 577.015625 2.792969 L 599.382812 -0.390625 L 596.308594 -22.867188 L 618.3125 -17.71875 L 623.53125 -39.796875 L 642.199219 -27.011719 Z M 655.003906 -45.703125 " clip-rule="nonzero"/></clipPath><clipPath id="4e0694e17c"><path d="M 568.253906 0 L 741.644531 0 L 741.644531 127.6875 L 568.253906 127.6875 Z M 568.253906 0 " clip-rule="nonzero"/></clipPath><clipPath id="6433143fb9"><path d="M 655 -45.703125 L 667.808594 -27.015625 L 686.472656 -39.796875 L 691.691406 -17.722656 L 713.691406 -22.871094 L 710.621094 -0.390625 L 732.988281 2.789062 L 722.035156 22.632812 L 741.75 33.714844 L 724.398438 48.246094 L 738.796875 65.730469 L 717.390625 72.988281 L 724.523438 94.515625 L 701.953125 93.515625 L 700.863281 116.175781 L 680.179688 107.054688 L 671.007812 127.792969 L 655 111.78125 L 638.992188 127.792969 L 629.824219 107.054688 L 609.136719 116.175781 L 608.046875 93.515625 L 585.476562 94.515625 L 592.613281 72.988281 L 571.207031 65.730469 L 585.601562 48.246094 L 568.253906 33.714844 L 587.964844 22.632812 L 577.015625 2.789062 L 599.382812 -0.390625 L 596.308594 -22.871094 L 618.3125 -17.722656 L 623.53125 -39.796875 L 642.195312 -27.015625 Z M 655 -45.703125 " clip-rule="nonzero"/></clipPath><clipPath id="ed676b2b41"><path d="M 912.675781 0 L 1022.460938 0 L 1022.460938 127.800781 L 912.675781 127.800781 Z M 912.675781 0 " clip-rule="nonzero"/></clipPath><clipPath id="774cfc4a3e"><path d="M 999.429688 -45.703125 L 1012.238281 -27.011719 L 1030.902344 -39.796875 L 1036.121094 -17.71875 L 1058.125 -22.867188 L 1055.050781 -0.390625 L 1077.421875 2.792969 L 1066.46875 22.636719 L 1086.183594 33.71875 L 1068.832031 48.25 L 1083.230469 65.738281 L 1061.824219 72.996094 L 1068.957031 94.523438 L 1046.386719 93.523438 L 1045.296875 116.1875 L 1024.609375 107.066406 L 1015.4375 127.800781 L 999.429688 111.792969 L 983.421875 127.800781 L 974.25 107.066406 L 953.566406 116.1875 L 952.472656 93.523438 L 929.902344 94.523438 L 937.039062 72.996094 L 915.632812 65.738281 L 930.027344 48.25 L 912.675781 33.71875 L 932.390625 22.636719 L 921.4375 2.792969 L 943.808594 -0.390625 L 940.734375 -22.867188 L 962.738281 -17.71875 L 967.957031 -39.796875 L 986.621094 -27.011719 Z M 999.429688 -45.703125 " clip-rule="nonzero"/></clipPath><clipPath id="d7165910f3"><path d="M 912.675781 0 L 1022.460938 0 L 1022.460938 127.6875 L 912.675781 127.6875 Z M 912.675781 0 " clip-rule="nonzero"/></clipPath><clipPath id="4fda1c6558"><path d="M 999.425781 -45.703125 L 1012.230469 -27.015625 L 1030.898438 -39.796875 L 1036.117188 -17.722656 L 1058.117188 -22.871094 L 1055.042969 -0.390625 L 1077.410156 2.789062 L 1066.460938 22.632812 L 1086.171875 33.714844 L 1068.824219 48.246094 L 1083.21875 65.730469 L 1061.816406 72.988281 L 1068.949219 94.515625 L 1046.378906 93.515625 L 1045.289062 116.175781 L 1024.601562 107.054688 L 1015.433594 127.792969 L 999.425781 111.78125 L 983.417969 127.792969 L 974.25 107.054688 L 953.5625 116.175781 L 952.472656 93.515625 L 929.902344 94.515625 L 937.035156 72.988281 L 915.632812 65.730469 L 930.027344 48.246094 L 912.675781 33.714844 L 932.390625 22.632812 L 921.4375 2.789062 L 943.808594 -0.390625 L 940.734375 -22.871094 L 962.734375 -17.722656 L 967.953125 -39.796875 L 986.617188 -27.015625 Z M 999.425781 -45.703125 " clip-rule="nonzero"/></clipPath><clipPath id="01c2c3ad34"><path d="M 1.542969 0 L 167.347656 0 L 167.347656 127.800781 L 1.542969 127.800781 Z M 1.542969 0 " clip-rule="nonzero"/></clipPath><clipPath id="8513c1b7ab"><path d="M 80.59375 -45.703125 L 93.402344 -27.011719 L 112.070312 -39.796875 L 117.289062 -17.71875 L 139.289062 -22.867188 L 136.21875 -0.390625 L 158.585938 2.792969 L 147.632812 22.636719 L 167.347656 33.71875 L 149.996094 48.25 L 164.394531 65.738281 L 142.988281 72.996094 L 150.121094 94.523438 L 127.550781 93.523438 L 126.460938 116.1875 L 105.773438 107.066406 L 96.605469 127.800781 L 80.59375 111.792969 L 64.585938 127.800781 L 55.417969 107.066406 L 34.730469 116.1875 L 33.640625 93.523438 L 11.066406 94.523438 L 18.203125 72.996094 L -3.203125 65.738281 L 11.191406 48.25 L -6.15625 33.71875 L 13.554688 22.636719 L 2.605469 2.792969 L 24.972656 -0.390625 L 21.898438 -22.867188 L 43.902344 -17.71875 L 49.121094 -39.796875 L 67.789062 -27.011719 Z M 80.59375 -45.703125 " clip-rule="nonzero"/></clipPath><clipPath id="820e5f3417"><path d="M 1.542969 0 L 167.234375 0 L 167.234375 127.6875 L 1.542969 127.6875 Z M 1.542969 0 " clip-rule="nonzero"/></clipPath><clipPath id="d89614d174"><path d="M 80.589844 -45.703125 L 93.398438 -27.015625 L 112.0625 -39.796875 L 117.28125 -17.722656 L 139.28125 -22.871094 L 136.210938 -0.390625 L 158.578125 2.789062 L 147.625 22.632812 L 167.339844 33.714844 L 149.988281 48.246094 L 164.382812 65.730469 L 142.980469 72.988281 L 150.113281 94.515625 L 127.542969 93.515625 L 126.453125 116.175781 L 105.765625 107.054688 L 96.597656 127.792969 L 80.589844 111.78125 L 64.582031 127.792969 L 55.414062 107.054688 L 34.726562 116.175781 L 33.636719 93.515625 L 11.066406 94.515625 L 18.199219 72.988281 L -3.203125 65.730469 L 11.191406 48.246094 L -6.15625 33.714844 L 13.554688 22.632812 L 2.605469 2.789062 L 24.972656 -0.390625 L 21.898438 -22.871094 L 43.898438 -17.722656 L 49.117188 -39.796875 L 67.785156 -27.015625 Z M 80.589844 -45.703125 " clip-rule="nonzero"/></clipPath><clipPath id="52d6948b11"><path d="M 338.265625 0 L 511.773438 0 L 511.773438 127.800781 L 338.265625 127.800781 Z M 338.265625 0 " clip-rule="nonzero"/></clipPath><clipPath id="40ba2cb5ce"><path d="M 425.019531 -45.703125 L 437.828125 -27.011719 L 456.492188 -39.796875 L 461.710938 -17.71875 L 483.714844 -22.867188 L 480.640625 -0.390625 L 503.011719 2.792969 L 492.058594 22.636719 L 511.773438 33.71875 L 494.421875 48.25 L 508.820312 65.738281 L 487.414062 72.996094 L 494.546875 94.523438 L 471.976562 93.523438 L 470.886719 116.1875 L 450.199219 107.066406 L 441.027344 127.800781 L 425.019531 111.792969 L 409.011719 127.800781 L 399.839844 107.066406 L 379.15625 116.1875 L 378.0625 93.523438 L 355.492188 94.523438 L 362.625 72.996094 L 341.222656 65.738281 L 355.617188 48.25 L 338.265625 33.71875 L 357.980469 22.636719 L 347.027344 2.792969 L 369.398438 -0.390625 L 366.324219 -22.867188 L 388.328125 -17.71875 L 393.546875 -39.796875 L 412.210938 -27.011719 Z M 425.019531 -45.703125 " clip-rule="nonzero"/></clipPath><clipPath id="2274e05eb0"><path d="M 338.265625 0 L 511.65625 0 L 511.65625 127.6875 L 338.265625 127.6875 Z M 338.265625 0 " clip-rule="nonzero"/></clipPath><clipPath id="10e7cc92a5"><path d="M 425.015625 -45.703125 L 437.820312 -27.015625 L 456.484375 -39.796875 L 461.703125 -17.722656 L 483.707031 -22.871094 L 480.632812 -0.390625 L 503 2.789062 L 492.050781 22.632812 L 511.761719 33.714844 L 494.414062 48.246094 L 508.808594 65.730469 L 487.402344 72.988281 L 494.539062 94.515625 L 471.96875 93.515625 L 470.878906 116.175781 L 450.191406 107.054688 L 441.023438 127.792969 L 425.015625 111.78125 L 409.007812 127.792969 L 399.835938 107.054688 L 379.152344 116.175781 L 378.0625 93.515625 L 355.492188 94.515625 L 362.625 72.988281 L 341.21875 65.730469 L 355.617188 48.246094 L 338.265625 33.714844 L 357.980469 22.632812 L 347.027344 2.789062 L 369.394531 -0.390625 L 366.324219 -22.871094 L 388.324219 -17.722656 L 393.542969 -39.796875 L 412.207031 -27.015625 Z M 425.015625 -45.703125 " clip-rule="nonzero"/></clipPath><clipPath id="4d903eeaf8"><path d="M 453.445312 0 L 626.949219 0 L 626.949219 127.800781 L 453.445312 127.800781 Z M 453.445312 0 " clip-rule="nonzero"/></clipPath><clipPath id="ef00adb42b"><path d="M 540.199219 -45.703125 L 553.003906 -27.011719 L 571.671875 -39.796875 L 576.890625 -17.71875 L 598.894531 -22.867188 L 595.820312 -0.390625 L 618.1875 2.792969 L 607.238281 22.636719 L 626.949219 33.71875 L 609.601562 48.25 L 623.996094 65.738281 L 602.589844 72.996094 L 609.726562 94.523438 L 587.152344 93.523438 L 586.0625 116.1875 L 565.375 107.066406 L 556.207031 127.800781 L 540.199219 111.792969 L 524.1875 127.800781 L 515.019531 107.066406 L 494.332031 116.1875 L 493.242188 93.523438 L 470.671875 94.523438 L 477.804688 72.996094 L 456.398438 65.738281 L 470.796875 48.25 L 453.445312 33.71875 L 473.160156 22.636719 L 462.207031 2.792969 L 484.574219 -0.390625 L 481.503906 -22.867188 L 503.503906 -17.71875 L 508.722656 -39.796875 L 527.390625 -27.011719 Z M 540.199219 -45.703125 " clip-rule="nonzero"/></clipPath><clipPath id="e66f57eb5a"><path d="M 453.445312 0 L 626.835938 0 L 626.835938 127.6875 L 453.445312 127.6875 Z M 453.445312 0 " clip-rule="nonzero"/></clipPath><clipPath id="bc7bc16c24"><path d="M 540.191406 -45.703125 L 553 -27.015625 L 571.664062 -39.796875 L 576.882812 -17.722656 L 598.886719 -22.871094 L 595.8125 -0.390625 L 618.179688 2.789062 L 607.226562 22.632812 L 626.941406 33.714844 L 609.589844 48.246094 L 623.988281 65.730469 L 602.582031 72.988281 L 609.714844 94.515625 L 587.148438 93.515625 L 586.054688 116.175781 L 565.371094 107.054688 L 556.199219 127.792969 L 540.191406 111.78125 L 524.183594 127.792969 L 515.015625 107.054688 L 494.332031 116.175781 L 493.238281 93.515625 L 470.667969 94.515625 L 477.804688 72.988281 L 456.398438 65.730469 L 470.792969 48.246094 L 453.445312 33.714844 L 473.15625 22.632812 L 462.207031 2.789062 L 484.574219 -0.390625 L 481.5 -22.871094 L 503.503906 -17.722656 L 508.722656 -39.796875 L 527.386719 -27.015625 Z M 540.191406 -45.703125 " clip-rule="nonzero"/></clipPath><clipPath id="4f62904a28"><path d="M 797.867188 0 L 971.375 0 L 971.375 127.800781 L 797.867188 127.800781 Z M 797.867188 0 " clip-rule="nonzero"/></clipPath><clipPath id="88be9abcc1"><path d="M 884.621094 -45.703125 L 897.429688 -27.011719 L 916.09375 -39.796875 L 921.3125 -17.71875 L 943.316406 -22.867188 L 940.242188 -0.390625 L 962.613281 2.792969 L 951.660156 22.636719 L 971.375 33.71875 L 954.023438 48.25 L 968.421875 65.738281 L 947.015625 72.996094 L 954.148438 94.523438 L 931.578125 93.523438 L 930.488281 116.1875 L 909.800781 107.066406 L 900.632812 127.800781 L 884.621094 111.792969 L 868.613281 127.800781 L 859.445312 107.066406 L 838.757812 116.1875 L 837.664062 93.523438 L 815.09375 94.523438 L 822.230469 72.996094 L 800.824219 65.738281 L 815.21875 48.25 L 797.867188 33.71875 L 817.582031 22.636719 L 806.632812 2.792969 L 829 -0.390625 L 825.925781 -22.867188 L 847.929688 -17.71875 L 853.148438 -39.796875 L 871.816406 -27.011719 Z M 884.621094 -45.703125 " clip-rule="nonzero"/></clipPath><clipPath id="fceb78ec16"><path d="M 797.867188 0 L 971.261719 0 L 971.261719 127.6875 L 797.867188 127.6875 Z M 797.867188 0 " clip-rule="nonzero"/></clipPath><clipPath id="3cab7e276d"><path d="M 884.617188 -45.703125 L 897.421875 -27.015625 L 916.089844 -39.796875 L 921.308594 -17.722656 L 943.308594 -22.871094 L 940.234375 -0.390625 L 962.605469 2.789062 L 951.652344 22.632812 L 971.367188 33.714844 L 954.015625 48.246094 L 968.410156 65.730469 L 947.007812 72.988281 L 954.140625 94.515625 L 931.570312 93.515625 L 930.480469 116.175781 L 909.792969 107.054688 L 900.625 127.792969 L 884.617188 111.78125 L 868.609375 127.792969 L 859.441406 107.054688 L 838.753906 116.175781 L 837.664062 93.515625 L 815.09375 94.515625 L 822.226562 72.988281 L 800.824219 65.730469 L 815.21875 48.246094 L 797.867188 33.714844 L 817.582031 22.632812 L 806.628906 2.789062 L 829 -0.390625 L 825.925781 -22.871094 L 847.925781 -17.722656 L 853.144531 -39.796875 L 871.8125 -27.015625 Z M 884.617188 -45.703125 " clip-rule="nonzero"/></clipPath><clipPath id="00c985ec98"><path d="M 223.457031 0 L 396.964844 0 L 396.964844 127.800781 L 223.457031 127.800781 Z M 223.457031 0 " clip-rule="nonzero"/></clipPath><clipPath id="cb96877751"><path d="M 310.210938 -45.703125 L 323.019531 -27.011719 L 341.683594 -39.796875 L 346.902344 -17.71875 L 368.90625 -22.867188 L 365.832031 -0.390625 L 388.203125 2.792969 L 377.25 22.636719 L 396.964844 33.71875 L 379.613281 48.25 L 394.011719 65.738281 L 372.605469 72.996094 L 379.738281 94.523438 L 357.167969 93.523438 L 356.078125 116.1875 L 335.390625 107.066406 L 326.222656 127.800781 L 310.210938 111.792969 L 294.203125 127.800781 L 285.03125 107.066406 L 264.347656 116.1875 L 263.253906 93.523438 L 240.683594 94.523438 L 247.820312 72.996094 L 226.414062 65.738281 L 240.808594 48.25 L 223.457031 33.71875 L 243.171875 22.636719 L 232.21875 2.792969 L 254.589844 -0.390625 L 251.515625 -22.867188 L 273.519531 -17.71875 L 278.738281 -39.796875 L 297.402344 -27.011719 Z M 310.210938 -45.703125 " clip-rule="nonzero"/></clipPath><clipPath id="afd9dfd1f1"><path d="M 223.457031 0 L 396.851562 0 L 396.851562 127.6875 L 223.457031 127.6875 Z M 223.457031 0 " clip-rule="nonzero"/></clipPath><clipPath id="70a97275cb"><path d="M 310.207031 -45.703125 L 323.011719 -27.015625 L 341.679688 -39.796875 L 346.898438 -17.722656 L 368.898438 -22.871094 L 365.824219 -0.390625 L 388.191406 2.789062 L 377.242188 22.632812 L 396.953125 33.714844 L 379.605469 48.246094 L 394 65.730469 L 372.597656 72.988281 L 379.730469 94.515625 L 357.160156 93.515625 L 356.070312 116.175781 L 335.382812 107.054688 L 326.214844 127.792969 L 310.207031 111.78125 L 294.199219 127.792969 L 285.03125 107.054688 L 264.34375 116.175781 L 263.253906 93.515625 L 240.683594 94.515625 L 247.816406 72.988281 L 226.414062 65.730469 L 240.808594 48.246094 L 223.457031 33.714844 L 243.171875 22.632812 L 232.21875 2.789062 L 254.589844 -0.390625 L 251.515625 -22.871094 L 273.515625 -17.722656 L 278.734375 -39.796875 L 297.398438 -27.015625 Z M 310.207031 -45.703125 " clip-rule="nonzero"/></clipPath><clipPath id="d0537af982"><path d="M 567.882812 0 L 741.390625 0 L 741.390625 127.800781 L 567.882812 127.800781 Z M 567.882812 0 " clip-rule="nonzero"/></clipPath><clipPath id="cfb3b96067"><path d="M 654.636719 -45.703125 L 667.441406 -27.011719 L 686.109375 -39.796875 L 691.328125 -17.71875 L 713.332031 -22.867188 L 710.257812 -0.390625 L 732.625 2.792969 L 721.675781 22.636719 L 741.390625 33.71875 L 724.039062 48.25 L 738.433594 65.738281 L 717.027344 72.996094 L 724.164062 94.523438 L 701.59375 93.523438 L 700.5 116.1875 L 679.8125 107.066406 L 670.644531 127.800781 L 654.636719 111.792969 L 638.625 127.800781 L 629.457031 107.066406 L 608.769531 116.1875 L 607.679688 93.523438 L 585.109375 94.523438 L 592.242188 72.996094 L 570.835938 65.738281 L 585.234375 48.25 L 567.882812 33.71875 L 587.597656 22.636719 L 576.644531 2.792969 L 599.015625 -0.390625 L 595.941406 -22.867188 L 617.945312 -17.71875 L 623.164062 -39.796875 L 641.828125 -27.011719 Z M 654.636719 -45.703125 " clip-rule="nonzero"/></clipPath><clipPath id="f4e6418793"><path d="M 567.882812 0 L 741.273438 0 L 741.273438 127.6875 L 567.882812 127.6875 Z M 567.882812 0 " clip-rule="nonzero"/></clipPath><clipPath id="d400288f9d"><path d="M 654.632812 -45.703125 L 667.4375 -27.015625 L 686.101562 -39.796875 L 691.320312 -17.722656 L 713.324219 -22.871094 L 710.25 -0.390625 L 732.617188 2.789062 L 721.667969 22.632812 L 741.378906 33.714844 L 724.03125 48.246094 L 738.425781 65.730469 L 717.019531 72.988281 L 724.15625 94.515625 L 701.585938 93.515625 L 700.492188 116.175781 L 679.808594 107.054688 L 670.640625 127.792969 L 654.632812 111.78125 L 638.621094 127.792969 L 629.453125 107.054688 L 608.769531 116.175781 L 607.675781 93.515625 L 585.109375 94.515625 L 592.242188 72.988281 L 570.835938 65.730469 L 585.230469 48.246094 L 567.882812 33.714844 L 587.59375 22.632812 L 576.644531 2.789062 L 599.011719 -0.390625 L 595.9375 -22.871094 L 617.941406 -17.722656 L 623.160156 -39.796875 L 641.824219 -27.015625 Z M 654.632812 -45.703125 " clip-rule="nonzero"/></clipPath><clipPath id="7fb2d6a049"><path d="M 683.0625 0 L 856.566406 0 L 856.566406 127.800781 L 683.0625 127.800781 Z M 683.0625 0 " clip-rule="nonzero"/></clipPath><clipPath id="62452a6183"><path d="M 769.8125 -45.703125 L 782.621094 -27.011719 L 801.289062 -39.796875 L 806.507812 -17.71875 L 828.507812 -22.867188 L 825.4375 -0.390625 L 847.804688 2.792969 L 836.851562 22.636719 L 856.566406 33.71875 L 839.214844 48.25 L 853.613281 65.738281 L 832.207031 72.996094 L 839.339844 94.523438 L 816.769531 93.523438 L 815.679688 116.1875 L 794.992188 107.066406 L 785.824219 127.800781 L 769.8125 111.792969 L 753.804688 127.800781 L 744.636719 107.066406 L 723.949219 116.1875 L 722.855469 93.523438 L 700.285156 94.523438 L 707.421875 72.996094 L 686.015625 65.738281 L 700.410156 48.25 L 683.0625 33.71875 L 702.773438 22.636719 L 691.824219 2.792969 L 714.191406 -0.390625 L 711.117188 -22.867188 L 733.121094 -17.71875 L 738.339844 -39.796875 L 757.007812 -27.011719 Z M 769.8125 -45.703125 " clip-rule="nonzero"/></clipPath><clipPath id="f8e1dce174"><path d="M 683.0625 0 L 856.453125 0 L 856.453125 127.6875 L 683.0625 127.6875 Z M 683.0625 0 " clip-rule="nonzero"/></clipPath><clipPath id="cfff0f1cde"><path d="M 769.808594 -45.703125 L 782.617188 -27.015625 L 801.28125 -39.796875 L 806.5 -17.722656 L 828.5 -22.871094 L 825.429688 -0.390625 L 847.796875 2.789062 L 836.84375 22.632812 L 856.558594 33.714844 L 839.207031 48.246094 L 853.601562 65.730469 L 832.199219 72.988281 L 839.332031 94.515625 L 816.761719 93.515625 L 815.671875 116.175781 L 794.984375 107.054688 L 785.816406 127.792969 L 769.808594 111.78125 L 753.800781 127.792969 L 744.632812 107.054688 L 723.945312 116.175781 L 722.855469 93.515625 L 700.285156 94.515625 L 707.417969 72.988281 L 686.015625 65.730469 L 700.410156 48.246094 L 683.0625 33.714844 L 702.773438 22.632812 L 691.824219 2.789062 L 714.191406 -0.390625 L 711.117188 -22.871094 L 733.117188 -17.722656 L 738.335938 -39.796875 L 757.003906 -27.015625 Z M 769.808594 -45.703125 " clip-rule="nonzero"/></clipPath><clipPath id="8daf2f3c19"><path d="M 1.542969 0 L 1022.460938 0 L 1022.460938 91.367188 L 1.542969 91.367188 Z M 1.542969 0 " clip-rule="nonzero"/></clipPath></defs><g clip-path="url(#3205098207)"><path fill="#ffffff" d="M 1.542969 0 L 1022.460938 0 L 1022.460938 142 L 1.542969 142 Z M 1.542969 0 " fill-opacity="1" fill-rule="nonzero"/><path fill="#f4c846" d="M 1.542969 0 L 1022.460938 0 L 1022.460938 142 L 1.542969 142 Z M 1.542969 0 " fill-opacity="1" fill-rule="nonzero"/></g><g clip-path="url(#b7395d1683)"><g clip-path="url(#2489c28cdf)"><path fill="#7ea1c4" d="M -120.964844 -45.703125 L 52.539062 -45.703125 L 52.539062 127.800781 L -120.964844 127.800781 Z M -120.964844 -45.703125 " fill-opacity="1" fill-rule="nonzero"/></g></g><g clip-path="url(#b2a39ddca7)"><g clip-path="url(#c37af8928f)"><path stroke-linecap="butt" transform="matrix(0.747378, 0, 0, 0.747378, -120.966012, -45.7047)" fill="none" stroke-linejoin="miter" d="M 116.06886 0.00210702 L 133.206909 25.006202 L 158.179645 7.904739 L 165.162394 37.440304 L 194.60388 30.551634 L 190.490539 60.630766 L 220.4181 64.885226 L 205.762689 91.436397 L 232.141383 106.264286 L 208.924788 125.70727 L 228.190067 149.101569 L 199.548252 158.812608 L 209.092039 187.616448 L 178.892695 186.278436 L 177.434471 216.597992 L 149.759579 204.393861 L 137.487502 232.141926 L 116.06886 210.718058 L 94.650218 232.141926 L 82.383368 204.393861 L 54.703249 216.597992 L 53.245025 186.278436 L 23.045681 187.616448 L 32.594695 158.812608 L 3.95288 149.101569 L 23.212932 125.70727 L 0.00156358 106.264286 L 26.37503 91.436397 L 11.724847 64.885226 L 41.652407 60.630766 L 37.539066 30.551634 L 66.980552 37.440304 L 73.963301 7.904739 L 98.936037 25.006202 Z M 116.06886 0.00210702 " stroke="#000000" stroke-width="8" stroke-opacity="1" stroke-miterlimit="4"/></g></g><g clip-path="url(#5ddaa07aa8)"><g clip-path="url(#de02abea57)"><path fill="#7ea1c4" d="M 223.457031 -45.703125 L 396.964844 -45.703125 L 396.964844 127.800781 L 223.457031 127.800781 Z M 223.457031 -45.703125 " fill-opacity="1" fill-rule="nonzero"/></g></g><g clip-path="url(#a1f378ff00)"><g clip-path="url(#6f291ad910)"><path stroke-linecap="butt" transform="matrix(0.747378, 0, 0, 0.747378, 223.458372, -45.7047)" fill="none" stroke-linejoin="miter" d="M 116.070729 0.00210702 L 133.203552 25.006202 L 158.181514 7.904739 L 165.164263 37.440304 L 194.600522 30.551634 L 190.487181 60.630766 L 220.414742 64.885226 L 205.764558 91.436397 L 232.138025 106.264286 L 208.926656 125.70727 L 228.186709 149.101569 L 199.550121 158.812608 L 209.093908 187.616448 L 178.894564 186.278436 L 177.43634 216.597992 L 149.756221 204.393861 L 137.489371 232.141926 L 116.070729 210.718058 L 94.652087 232.141926 L 82.385237 204.393861 L 54.705118 216.597992 L 53.246894 186.278436 L 23.04755 187.616448 L 32.591337 158.812608 L 3.954748 149.101569 L 23.214801 125.70727 L -0.00179424 106.264286 L 26.376899 91.436397 L 11.721489 64.885226 L 41.654276 60.630766 L 37.540935 30.551634 L 66.977194 37.440304 L 73.959944 7.904739 L 98.932679 25.006202 Z M 116.070729 0.00210702 " stroke="#000000" stroke-width="8" stroke-opacity="1" stroke-miterlimit="4"/></g></g><g clip-path="url(#4101ec4d47)"><g clip-path="url(#f152fd878d)"><path fill="#7ea1c4" d="M 338.636719 -45.703125 L 512.144531 -45.703125 L 512.144531 127.800781 L 338.636719 127.800781 Z M 338.636719 -45.703125 " fill-opacity="1" fill-rule="nonzero"/></g></g><g clip-path="url(#447c9d2054)"><g clip-path="url(#6b6a903baa)"><path stroke-linecap="butt" transform="matrix(0.747378, 0, 0, 0.747378, 338.636409, -45.7047)" fill="none" stroke-linejoin="miter" d="M 116.067711 0.00210702 L 133.20576 25.006202 L 158.178496 7.904739 L 165.161245 37.440304 L 194.602731 30.551634 L 190.48939 60.630766 L 220.416951 64.885226 L 205.766767 91.436397 L 232.140234 106.264286 L 208.928865 125.70727 L 228.188918 149.101569 L 199.547103 158.812608 L 209.09089 187.616448 L 178.896773 186.278436 L 177.433322 216.597992 L 149.75843 204.393861 L 137.491579 232.141926 L 116.067711 210.718058 L 94.649069 232.141926 L 82.382219 204.393861 L 54.707326 216.597992 L 53.243876 186.278436 L 23.049758 187.616448 L 32.593546 158.812608 L 3.951731 149.101569 L 23.211783 125.70727 L 0.00041464 106.264286 L 26.373881 91.436397 L 11.723698 64.885226 L 41.651258 60.630766 L 37.537917 30.551634 L 66.979403 37.440304 L 73.962152 7.904739 L 98.934888 25.006202 Z M 116.067711 0.00210702 " stroke="#000000" stroke-width="8" stroke-opacity="1" stroke-miterlimit="4"/></g></g><g clip-path="url(#ee36c8bf85)"><g clip-path="url(#c71e2bfca2)"><path fill="#7ea1c4" d="M 683.0625 -45.703125 L 856.566406 -45.703125 L 856.566406 127.800781 L 683.0625 127.800781 Z M 683.0625 -45.703125 " fill-opacity="1" fill-rule="nonzero"/></g></g><g clip-path="url(#78590c38d2)"><g clip-path="url(#bcc7bb3f95)"><path stroke-linecap="butt" transform="matrix(0.747378, 0, 0, 0.747378, 683.06075, -45.7047)" fill="none" stroke-linejoin="miter" d="M 116.069637 0.00210702 L 133.207687 25.006202 L 158.180423 7.904739 L 165.163172 37.440304 L 194.599431 30.551634 L 190.491317 60.630766 L 220.418877 64.885226 L 205.763467 91.436397 L 232.14216 106.264286 L 208.925565 125.70727 L 228.185618 149.101569 L 199.549029 158.812608 L 209.092817 187.616448 L 178.893472 186.278436 L 177.435249 216.597992 L 149.75513 204.393861 L 137.488279 232.141926 L 116.069637 210.718058 L 94.650995 232.141926 L 82.384145 204.393861 L 54.704026 216.597992 L 53.245802 186.278436 L 23.046458 187.616448 L 32.590245 158.812608 L 3.953657 149.101569 L 23.21371 125.70727 L 0.00234103 106.264286 L 26.375808 91.436397 L 11.725624 64.885226 L 41.653185 60.630766 L 37.539844 30.551634 L 66.976103 37.440304 L 73.958852 7.904739 L 98.936815 25.006202 Z M 116.069637 0.00210702 " stroke="#000000" stroke-width="8" stroke-opacity="1" stroke-miterlimit="4"/></g></g><g clip-path="url(#9906064f1d)"><g clip-path="url(#4da6898700)"><path fill="#7ea1c4" d="M 108.648438 -45.703125 L 282.15625 -45.703125 L 282.15625 127.800781 L 108.648438 127.800781 Z M 108.648438 -45.703125 " fill-opacity="1" fill-rule="nonzero"/></g></g><g clip-path="url(#5a7bd40898)"><g clip-path="url(#ade1d97c3a)"><path stroke-linecap="butt" transform="matrix(0.747378, 0, 0, 0.747378, 108.650236, -45.7047)" fill="none" stroke-linejoin="miter" d="M 116.070116 0.00210702 L 133.202939 25.006202 L 158.180902 7.904739 L 165.163651 37.440304 L 194.59991 30.551634 L 190.486569 60.630766 L 220.419356 64.885226 L 205.763946 91.436397 L 232.142639 106.264286 L 208.926044 125.70727 L 228.186097 149.101569 L 199.549508 158.812608 L 209.093296 187.616448 L 178.893951 186.278436 L 177.435728 216.597992 L 149.755609 204.393861 L 137.488758 232.141926 L 116.070116 210.718058 L 94.651475 232.141926 L 82.384624 204.393861 L 54.704505 216.597992 L 53.246282 186.278436 L 23.046937 187.616448 L 32.590724 158.812608 L 3.954136 149.101569 L 23.214189 125.70727 L -0.0024065 106.264286 L 26.376287 91.436397 L 11.720877 64.885226 L 41.653664 60.630766 L 37.540323 30.551634 L 66.976582 37.440304 L 73.959331 7.904739 L 98.937294 25.006202 Z M 116.070116 0.00210702 " stroke="#000000" stroke-width="8" stroke-opacity="1" stroke-miterlimit="4"/></g></g><g clip-path="url(#ec41faf920)"><g clip-path="url(#a118d6be5e)"><path fill="#7ea1c4" d="M 453.074219 -45.703125 L 626.582031 -45.703125 L 626.582031 127.800781 L 453.074219 127.800781 Z M 453.074219 -45.703125 " fill-opacity="1" fill-rule="nonzero"/></g></g><g clip-path="url(#d6e5990860)"><g clip-path="url(#63f16b4726)"><path stroke-linecap="butt" transform="matrix(0.747378, 0, 0, 0.747378, 453.074616, -45.7047)" fill="none" stroke-linejoin="miter" d="M 116.071992 0.00210702 L 133.204815 25.006202 L 158.17755 7.904739 L 165.160299 37.440304 L 194.601785 30.551634 L 190.488444 60.630766 L 220.416005 64.885226 L 205.765821 91.436397 L 232.139288 106.264286 L 208.927919 125.70727 L 228.187972 149.101569 L 199.546157 158.812608 L 209.095171 187.616448 L 178.895827 186.278436 L 177.437603 216.597992 L 149.757484 204.393861 L 137.490634 232.141926 L 116.071992 210.718058 L 94.65335 232.141926 L 82.381273 204.393861 L 54.706381 216.597992 L 53.24293 186.278436 L 23.048812 187.616448 L 32.5926 158.812608 L 3.950785 149.101569 L 23.216064 125.70727 L -0.00053131 106.264286 L 26.378162 91.436397 L 11.722752 64.885226 L 41.650312 60.630766 L 37.536971 30.551634 L 66.978457 37.440304 L 73.961206 7.904739 L 98.933942 25.006202 Z M 116.071992 0.00210702 " stroke="#000000" stroke-width="8" stroke-opacity="1" stroke-miterlimit="4"/></g></g><g clip-path="url(#326d82f837)"><g clip-path="url(#fd4087a3ac)"><path fill="#7ea1c4" d="M 568.253906 -45.703125 L 741.757812 -45.703125 L 741.757812 127.800781 L 568.253906 127.800781 Z M 568.253906 -45.703125 " fill-opacity="1" fill-rule="nonzero"/></g></g><g clip-path="url(#4e0694e17c)"><g clip-path="url(#6433143fb9)"><path stroke-linecap="butt" transform="matrix(0.747378, 0, 0, 0.747378, 568.252626, -45.7047)" fill="none" stroke-linejoin="miter" d="M 116.069009 0.00210702 L 133.207059 25.006202 L 158.179794 7.904739 L 165.162543 37.440304 L 194.598803 30.551634 L 190.490688 60.630766 L 220.418249 64.885226 L 205.762839 91.436397 L 232.141532 106.264286 L 208.924937 125.70727 L 228.190216 149.101569 L 199.548401 158.812608 L 209.092188 187.616448 L 178.892844 186.278436 L 177.43462 216.597992 L 149.759728 204.393861 L 137.487651 232.141926 L 116.069009 210.718058 L 94.650367 232.141926 L 82.383517 204.393861 L 54.703398 216.597992 L 53.245174 186.278436 L 23.04583 187.616448 L 32.594844 158.812608 L 3.953029 149.101569 L 23.213081 125.70727 L 0.00171277 106.264286 L 26.37518 91.436397 L 11.724996 64.885226 L 41.652556 60.630766 L 37.539215 30.551634 L 66.980701 37.440304 L 73.963451 7.904739 L 98.936186 25.006202 Z M 116.069009 0.00210702 " stroke="#000000" stroke-width="8" stroke-opacity="1" stroke-miterlimit="4"/></g></g><g clip-path="url(#ed676b2b41)"><g clip-path="url(#774cfc4a3e)"><path fill="#7ea1c4" d="M 912.675781 -45.703125 L 1086.183594 -45.703125 L 1086.183594 127.800781 L 912.675781 127.800781 Z M 912.675781 -45.703125 " fill-opacity="1" fill-rule="nonzero"/></g></g><g clip-path="url(#d7165910f3)"><g clip-path="url(#4fda1c6558)"><path stroke-linecap="butt" transform="matrix(0.747378, 0, 0, 0.747378, 912.677094, -45.7047)" fill="none" stroke-linejoin="miter" d="M 116.070766 0.00210702 L 133.203589 25.006202 L 158.181551 7.904739 L 165.1643 37.440304 L 194.60056 30.551634 L 190.487219 60.630766 L 220.414779 64.885226 L 205.764595 91.436397 L 232.138062 106.264286 L 208.926694 125.70727 L 228.186746 149.101569 L 199.550158 158.812608 L 209.093945 187.616448 L 178.894601 186.278436 L 177.436377 216.597992 L 149.756258 204.393861 L 137.489408 232.141926 L 116.070766 210.718058 L 94.652124 232.141926 L 82.385274 204.393861 L 54.705155 216.597992 L 53.246931 186.278436 L 23.047587 187.616448 L 32.591374 158.812608 L 3.954786 149.101569 L 23.214838 125.70727 L -0.00175705 106.264286 L 26.376936 91.436397 L 11.721526 64.885226 L 41.654313 60.630766 L 37.540972 30.551634 L 66.977232 37.440304 L 73.959981 7.904739 L 98.932716 25.006202 Z M 116.070766 0.00210702 " stroke="#000000" stroke-width="8" stroke-opacity="1" stroke-miterlimit="4"/></g></g><g clip-path="url(#01c2c3ad34)"><g clip-path="url(#8513c1b7ab)"><path fill="#7ea1c4" d="M -6.15625 -45.703125 L 167.347656 -45.703125 L 167.347656 127.800781 L -6.15625 127.800781 Z M -6.15625 -45.703125 " fill-opacity="1" fill-rule="nonzero"/></g></g><g clip-path="url(#820e5f3417)"><g clip-path="url(#d89614d174)"><path stroke-linecap="butt" transform="matrix(0.747378, 0, 0, 0.747378, -6.157888, -45.7047)" fill="none" stroke-linejoin="miter" d="M 116.069488 0.00210702 L 133.207537 25.006202 L 158.180273 7.904739 L 165.163022 37.440304 L 194.599281 30.551634 L 190.491167 60.630766 L 220.418728 64.885226 L 205.763317 91.436397 L 232.142011 106.264286 L 208.925415 125.70727 L 228.185468 149.101569 L 199.54888 158.812608 L 209.092667 187.616448 L 178.893322 186.278436 L 177.435099 216.597992 L 149.75498 204.393861 L 137.488129 232.141926 L 116.069488 210.718058 L 94.650846 232.141926 L 82.383995 204.393861 L 54.703876 216.597992 L 53.245653 186.278436 L 23.046308 187.616448 L 32.590096 158.812608 L 3.953507 149.101569 L 23.21356 125.70727 L 0.0021912 106.264286 L 26.375658 91.436397 L 11.725474 64.885226 L 41.653035 60.630766 L 37.539694 30.551634 L 66.975953 37.440304 L 73.958702 7.904739 L 98.936665 25.006202 Z M 116.069488 0.00210702 " stroke="#000000" stroke-width="8" stroke-opacity="1" stroke-miterlimit="4"/></g></g><g clip-path="url(#52d6948b11)"><g clip-path="url(#40ba2cb5ce)"><path fill="#7ea1c4" d="M 338.265625 -45.703125 L 511.773438 -45.703125 L 511.773438 127.800781 L 338.265625 127.800781 Z M 338.265625 -45.703125 " fill-opacity="1" fill-rule="nonzero"/></g></g><g clip-path="url(#2274e05eb0)"><g clip-path="url(#10e7cc92a5)"><path stroke-linecap="butt" transform="matrix(0.747378, 0, 0, 0.747378, 338.266484, -45.7047)" fill="none" stroke-linejoin="miter" d="M 116.071373 0.00210702 L 133.204196 25.006202 L 158.176932 7.904739 L 165.159681 37.440304 L 194.601167 30.551634 L 190.487826 60.630766 L 220.415386 64.885226 L 205.765203 91.436397 L 232.138669 106.264286 L 208.927301 125.70727 L 228.187353 149.101569 L 199.545538 158.812608 L 209.094552 187.616448 L 178.895208 186.278436 L 177.436984 216.597992 L 149.756865 204.393861 L 137.490015 232.141926 L 116.071373 210.718058 L 94.652731 232.141926 L 82.380654 204.393861 L 54.705762 216.597992 L 53.247538 186.278436 L 23.048194 187.616448 L 32.591981 158.812608 L 3.950166 149.101569 L 23.215445 125.70727 L -0.00114997 106.264286 L 26.377543 91.436397 L 11.722133 64.885226 L 41.649694 60.630766 L 37.541579 30.551634 L 66.977839 37.440304 L 73.960588 7.904739 L 98.933324 25.006202 Z M 116.071373 0.00210702 " stroke="#000000" stroke-width="8" stroke-opacity="1" stroke-miterlimit="4"/></g></g><g clip-path="url(#4d903eeaf8)"><g clip-path="url(#ef00adb42b)"><path fill="#7ea1c4" d="M 453.445312 -45.703125 L 626.949219 -45.703125 L 626.949219 127.800781 L 453.445312 127.800781 Z M 453.445312 -45.703125 " fill-opacity="1" fill-rule="nonzero"/></g></g><g clip-path="url(#e66f57eb5a)"><g clip-path="url(#bc7bc16c24)"><path stroke-linecap="butt" transform="matrix(0.747378, 0, 0, 0.747378, 453.444526, -45.7047)" fill="none" stroke-linejoin="miter" d="M 116.068349 0.00210702 L 133.206398 25.006202 L 158.179134 7.904739 L 165.161883 37.440304 L 194.603369 30.551634 L 190.490028 60.630766 L 220.417589 64.885226 L 205.762178 91.436397 L 232.140872 106.264286 L 208.924277 125.70727 L 228.189556 149.101569 L 199.547741 158.812608 L 209.091528 187.616448 L 178.89741 186.278436 L 177.43396 216.597992 L 149.759068 204.393861 L 137.492217 232.141926 L 116.068349 210.718058 L 94.649707 232.141926 L 82.382857 204.393861 L 54.707964 216.597992 L 53.244514 186.278436 L 23.04517 187.616448 L 32.594184 158.812608 L 3.952369 149.101569 L 23.212421 125.70727 L 0.0010525 106.264286 L 26.374519 91.436397 L 11.724336 64.885226 L 41.651896 60.630766 L 37.538555 30.551634 L 66.980041 37.440304 L 73.96279 7.904739 L 98.935526 25.006202 Z M 116.068349 0.00210702 " stroke="#000000" stroke-width="8" stroke-opacity="1" stroke-miterlimit="4"/></g></g><g clip-path="url(#4f62904a28)"><g clip-path="url(#88be9abcc1)"><path fill="#7ea1c4" d="M 797.867188 -45.703125 L 971.375 -45.703125 L 971.375 127.800781 L 797.867188 127.800781 Z M 797.867188 -45.703125 " fill-opacity="1" fill-rule="nonzero"/></g></g><g clip-path="url(#fceb78ec16)"><g clip-path="url(#3cab7e276d)"><path stroke-linecap="butt" transform="matrix(0.747378, 0, 0, 0.747378, 797.868922, -45.7047)" fill="none" stroke-linejoin="miter" d="M 116.070202 0.00210702 L 133.203025 25.006202 L 158.180987 7.904739 L 165.163736 37.440304 L 194.599995 30.551634 L 190.486654 60.630766 L 220.419442 64.885226 L 205.764031 91.436397 L 232.142725 106.264286 L 208.926129 125.70727 L 228.186182 149.101569 L 199.549594 158.812608 L 209.093381 187.616448 L 178.894037 186.278436 L 177.435813 216.597992 L 149.755694 204.393861 L 137.488844 232.141926 L 116.070202 210.718058 L 94.65156 232.141926 L 82.384709 204.393861 L 54.704591 216.597992 L 53.246367 186.278436 L 23.047022 187.616448 L 32.59081 158.812608 L 3.954221 149.101569 L 23.214274 125.70727 L -0.00232131 106.264286 L 26.376372 91.436397 L 11.720962 64.885226 L 41.653749 60.630766 L 37.540408 30.551634 L 66.976667 37.440304 L 73.959416 7.904739 L 98.937379 25.006202 Z M 116.070202 0.00210702 " stroke="#000000" stroke-width="8" stroke-opacity="1" stroke-miterlimit="4"/></g></g><g clip-path="url(#00c985ec98)"><g clip-path="url(#cb96877751)"><path fill="#7ea1c4" d="M 223.457031 -45.703125 L 396.964844 -45.703125 L 396.964844 127.800781 L 223.457031 127.800781 Z M 223.457031 -45.703125 " fill-opacity="1" fill-rule="nonzero"/></g></g><g clip-path="url(#afd9dfd1f1)"><g clip-path="url(#70a97275cb)"><path stroke-linecap="butt" transform="matrix(0.747378, 0, 0, 0.747378, 223.458372, -45.7047)" fill="none" stroke-linejoin="miter" d="M 116.070729 0.00210702 L 133.203552 25.006202 L 158.181514 7.904739 L 165.164263 37.440304 L 194.600522 30.551634 L 190.487181 60.630766 L 220.414742 64.885226 L 205.764558 91.436397 L 232.138025 106.264286 L 208.926656 125.70727 L 228.186709 149.101569 L 199.550121 158.812608 L 209.093908 187.616448 L 178.894564 186.278436 L 177.43634 216.597992 L 149.756221 204.393861 L 137.489371 232.141926 L 116.070729 210.718058 L 94.652087 232.141926 L 82.385237 204.393861 L 54.705118 216.597992 L 53.246894 186.278436 L 23.04755 187.616448 L 32.591337 158.812608 L 3.954748 149.101569 L 23.214801 125.70727 L -0.00179424 106.264286 L 26.376899 91.436397 L 11.721489 64.885226 L 41.654276 60.630766 L 37.540935 30.551634 L 66.977194 37.440304 L 73.959944 7.904739 L 98.932679 25.006202 Z M 116.070729 0.00210702 " stroke="#000000" stroke-width="8" stroke-opacity="1" stroke-miterlimit="4"/></g></g><g clip-path="url(#d0537af982)"><g clip-path="url(#cfb3b96067)"><path fill="#7ea1c4" d="M 567.882812 -45.703125 L 741.390625 -45.703125 L 741.390625 127.800781 L 567.882812 127.800781 Z M 567.882812 -45.703125 " fill-opacity="1" fill-rule="nonzero"/></g></g><g clip-path="url(#f4e6418793)"><g clip-path="url(#d400288f9d)"><path stroke-linecap="butt" transform="matrix(0.747378, 0, 0, 0.747378, 567.88274, -45.7047)" fill="none" stroke-linejoin="miter" d="M 116.07262 0.00210702 L 133.205443 25.006202 L 158.178178 7.904739 L 165.160928 37.440304 L 194.602414 30.551634 L 190.489073 60.630766 L 220.416633 64.885226 L 205.766449 91.436397 L 232.139916 106.264286 L 208.928548 125.70727 L 228.1886 149.101569 L 199.546785 158.812608 L 209.095799 187.616448 L 178.896455 186.278436 L 177.433004 216.597992 L 149.758112 204.393861 L 137.491262 232.141926 L 116.07262 210.718058 L 94.648751 232.141926 L 82.381901 204.393861 L 54.707009 216.597992 L 53.243558 186.278436 L 23.049441 187.616448 L 32.593228 158.812608 L 3.951413 149.101569 L 23.211466 125.70727 L 0.0000969545 106.264286 L 26.37879 91.436397 L 11.72338 64.885226 L 41.650941 60.630766 L 37.5376 30.551634 L 66.979086 37.440304 L 73.961835 7.904739 L 98.93457 25.006202 Z M 116.07262 0.00210702 " stroke="#000000" stroke-width="8" stroke-opacity="1" stroke-miterlimit="4"/></g></g><g clip-path="url(#7fb2d6a049)"><g clip-path="url(#62452a6183)"><path fill="#7ea1c4" d="M 683.0625 -45.703125 L 856.566406 -45.703125 L 856.566406 127.800781 L 683.0625 127.800781 Z M 683.0625 -45.703125 " fill-opacity="1" fill-rule="nonzero"/></g></g><g clip-path="url(#f8e1dce174)"><g clip-path="url(#cfff0f1cde)"><path stroke-linecap="butt" transform="matrix(0.747378, 0, 0, 0.747378, 683.06075, -45.7047)" fill="none" stroke-linejoin="miter" d="M 116.069637 0.00210702 L 133.207687 25.006202 L 158.180423 7.904739 L 165.163172 37.440304 L 194.599431 30.551634 L 190.491317 60.630766 L 220.418877 64.885226 L 205.763467 91.436397 L 232.14216 106.264286 L 208.925565 125.70727 L 228.185618 149.101569 L 199.549029 158.812608 L 209.092817 187.616448 L 178.893472 186.278436 L 177.435249 216.597992 L 149.75513 204.393861 L 137.488279 232.141926 L 116.069637 210.718058 L 94.650995 232.141926 L 82.384145 204.393861 L 54.704026 216.597992 L 53.245802 186.278436 L 23.046458 187.616448 L 32.590245 158.812608 L 3.953657 149.101569 L 23.21371 125.70727 L 0.00234103 106.264286 L 26.375808 91.436397 L 11.725624 64.885226 L 41.653185 60.630766 L 37.539844 30.551634 L 66.976103 37.440304 L 73.958852 7.904739 L 98.936815 25.006202 Z M 116.069637 0.00210702 " stroke="#000000" stroke-width="8" stroke-opacity="1" stroke-miterlimit="4"/></g></g><g clip-path="url(#8daf2f3c19)"><path fill="#7ea1c4" d="M -6.15625 0 L 1022.425781 0 L 1022.425781 91.367188 L -6.15625 91.367188 Z M -6.15625 0 " fill-opacity="1" fill-rule="nonzero"/></g></svg>