<svg xmlns="http://www.w3.org/2000/svg" xmlns:xlink="http://www.w3.org/1999/xlink" width="1080" zoomAndPan="magnify" viewBox="0 0 810 809.999993" height="1080" preserveAspectRatio="xMidYMid meet" version="1.0"><defs><clipPath id="fd6f012808"><path d="M 268 240 L 801 240 L 801 474 L 268 474 Z M 268 240 " clip-rule="nonzero"/></clipPath><clipPath id="3a2dad5386"><path d="M 736.25 602.28125 L 268.605469 510.847656 L 339.050781 150.542969 L 806.695312 241.976562 Z M 736.25 602.28125 " clip-rule="nonzero"/></clipPath><clipPath id="1b351bb781"><path d="M 736.25 602.28125 L 268.605469 510.847656 L 339.050781 150.542969 L 806.695312 241.976562 Z M 736.25 602.28125 " clip-rule="nonzero"/></clipPath><clipPath id="0920597d8b"><path d="M 736.25 602.28125 L 97.445312 477.382812 L 167.890625 117.078125 L 806.695312 241.976562 Z M 736.25 602.28125 " clip-rule="nonzero"/></clipPath><clipPath id="fdde668653"><path d="M 213 339 L 355 339 L 355 480 L 213 480 Z M 213 339 " clip-rule="nonzero"/></clipPath><clipPath id="e066f9804f"><path d="M 290.398438 305.230469 L 377.804688 442.3125 L 276.109375 507.152344 L 188.707031 370.066406 Z M 290.398438 305.230469 " clip-rule="nonzero"/></clipPath><clipPath id="a66a523903"><path d="M 290.398438 305.230469 L 377.804688 442.3125 L 276.109375 507.152344 L 188.707031 370.066406 Z M 290.398438 305.230469 " clip-rule="nonzero"/></clipPath><clipPath id="d282bcf1a5"><path d="M 290.398438 305.230469 L 377.804688 442.3125 L 276.109375 507.152344 L 188.707031 370.066406 Z M 290.398438 305.230469 " clip-rule="nonzero"/></clipPath><clipPath id="847b3b8d31"><path d="M 220 348 L 331 348 L 331 469 L 220 469 Z M 220 348 " clip-rule="nonzero"/></clipPath><clipPath id="b6a59d61f6"><path d="M 290.398438 305.230469 L 377.804688 442.3125 L 276.109375 507.152344 L 188.707031 370.066406 Z M 290.398438 305.230469 " clip-rule="nonzero"/></clipPath><clipPath id="63a2fe2c6d"><path d="M 290.398438 305.230469 L 377.804688 442.3125 L 276.109375 507.152344 L 188.707031 370.066406 Z M 290.398438 305.230469 " clip-rule="nonzero"/></clipPath><clipPath id="862871d44e"><path d="M 290.398438 305.230469 L 377.804688 442.3125 L 276.109375 507.152344 L 188.707031 370.066406 Z M 290.398438 305.230469 " clip-rule="nonzero"/></clipPath><clipPath id="62f8554ec9"><path d="M 220 346 L 348 346 L 348 474 L 220 474 Z M 220 346 " clip-rule="nonzero"/></clipPath><clipPath id="c2e6d6b7de"><path d="M 290.398438 305.230469 L 377.804688 442.3125 L 276.109375 507.152344 L 188.707031 370.066406 Z M 290.398438 305.230469 " clip-rule="nonzero"/></clipPath><clipPath id="18365f88fa"><path d="M 290.398438 305.230469 L 377.804688 442.3125 L 276.109375 507.152344 L 188.707031 370.066406 Z M 290.398438 305.230469 " clip-rule="nonzero"/></clipPath><clipPath id="9795c72462"><path d="M 290.398438 305.230469 L 377.804688 442.3125 L 276.109375 507.152344 L 188.707031 370.066406 Z M 290.398438 305.230469 " clip-rule="nonzero"/></clipPath></defs><g clip-path="url(#fd6f012808)"><g clip-path="url(#3a2dad5386)"><g clip-path="url(#1b351bb781)"><g clip-path="url(#0920597d8b)"><path fill="#000000" d="M 207.304688 388.941406 C 204.425781 403.65625 201.839844 416.882812 199.253906 430.125 C 189.707031 419.246094 178.652344 409.160156 171.132812 397.210938 C 165.476562 388.210938 163.746094 376.90625 161.535156 366.433594 C 160.414062 361.117188 160.441406 351.132812 162.707031 350.421875 C 192.441406 341.132812 222.582031 332.835938 252.980469 325.457031 C 255.117188 324.941406 262.75 333.570312 262.898438 337.972656 C 263.042969 342.164062 257.679688 348.21875 253.046875 350.203125 C 244.007812 354.085938 233.804688 355.691406 220.40625 359.210938 C 257.703125 397.058594 301.605469 418.160156 349.625 431.257812 C 492.527344 470.195312 639.453125 421.835938 736.125 304.605469 C 749.792969 288.023438 759.980469 268.898438 773.730469 252.378906 C 778.804688 246.28125 789.476562 244.28125 797.582031 240.421875 C 798.460938 248.925781 803.265625 259.507812 799.675781 265.625 C 669.265625 486.996094 392.316406 534.933594 212.972656 392.621094 C 210.023438 390.292969 206.605469 388.488281 207.304688 388.941406 Z M 207.304688 388.941406 " fill-opacity="1" fill-rule="nonzero"/></g></g></g></g><g clip-path="url(#fdde668653)"><g clip-path="url(#e066f9804f)"><g clip-path="url(#a66a523903)"><g clip-path="url(#d282bcf1a5)"><path fill="#000000" d="M 316.859375 479.242188 C 312.945312 480.519531 310.046875 479.695312 308.316406 478.757812 C 305.894531 477.476562 303.96875 475.734375 302.625 473.695312 C 301.101562 474.078125 299.550781 474.339844 297.992188 474.519531 C 289.144531 475.472656 278.820312 474.789062 270.371094 472.707031 C 259.007812 469.898438 250.605469 464.589844 245.933594 457.265625 C 245.605469 456.753906 245.292969 456.226562 245.007812 455.707031 C 241.125 448.585938 240.625 440.070312 243.480469 430.394531 C 245.878906 422.300781 250.773438 413.203125 258.050781 403.289062 C 252.886719 400.761719 245.785156 397.070312 238.820312 392.75 C 230.972656 387.859375 224.921875 383.15625 220.824219 378.75 C 218.046875 375.746094 216.125 372.871094 214.972656 369.960938 C 213.488281 366.109375 213.367188 362.226562 214.707031 358.722656 C 216.605469 353.617188 220.386719 350.074219 225.617188 348.480469 C 233.15625 346.1875 243.421875 348.023438 257.007812 354.074219 C 264.628906 357.480469 273.121094 362.140625 282.398438 368 C 281.160156 361.519531 281.402344 355.796875 283.125 350.941406 C 285.207031 345.085938 290.265625 340.816406 296.039062 340.078125 C 301.355469 339.40625 306.445312 341.820312 309.652344 346.566406 C 312.414062 350.648438 313.917969 354.039062 315.351562 357.3125 C 316.871094 360.757812 318.308594 364.007812 321.367188 368.554688 C 322.085938 369.613281 322.9375 371.269531 324.253906 373.867188 C 324.816406 374.960938 325.5625 376.453125 325.839844 376.886719 C 325.851562 376.902344 325.863281 376.917969 325.863281 376.917969 C 326.199219 377.449219 327.007812 378.183594 327.785156 378.910156 C 328.003906 379.109375 328.230469 379.324219 328.449219 379.527344 C 333.386719 384.144531 337.304688 389.933594 339.828125 396.269531 C 339.945312 396.558594 340.042969 396.859375 340.160156 397.144531 C 345.074219 396.730469 348.222656 399.113281 349.582031 400.464844 C 353.734375 404.566406 355.257812 411.8125 354.105469 422.035156 C 353.222656 429.839844 350.839844 438.378906 347.710938 444.859375 C 344.429688 451.636719 339.335938 459.253906 333.746094 465.738281 C 329.359375 470.820312 322.882812 477.261719 316.859375 479.242188 Z M 316.859375 479.242188 " fill-opacity="1" fill-rule="nonzero"/></g></g></g></g><g clip-path="url(#847b3b8d31)"><g clip-path="url(#b6a59d61f6)"><g clip-path="url(#63a2fe2c6d)"><g clip-path="url(#862871d44e)"><path fill="#ffffff" d="M 307.34375 464.28125 C 311.867188 459.878906 315.679688 454.933594 318.839844 449.816406 C 323.957031 441.484375 327.335938 432.695312 329.101562 425.070312 C 330.417969 419.363281 330.867188 414.324219 330.5 410.59375 C 330.496094 410.550781 330.503906 410.523438 330.484375 410.492188 C 330.214844 407.945312 329.414062 405.515625 328.257812 403.101562 C 328.136719 402.839844 328.011719 402.605469 327.886719 402.34375 C 325.039062 396.847656 320.375 391.554688 315.917969 385.839844 C 315.648438 385.492188 315.382812 385.140625 315.113281 384.792969 C 311.101562 379.5625 307.375 373.96875 305.402344 367.503906 C 305.230469 366.914062 305.054688 366.320312 304.914062 365.710938 C 302.414062 355.578125 297.175781 350.695312 292.9375 348.375 C 292.886719 348.40625 292.832031 348.460938 292.785156 348.492188 C 292.722656 348.535156 292.667969 348.589844 292.617188 348.621094 C 292.5 348.71875 292.382812 348.820312 292.277344 348.90625 C 292.226562 348.964844 292.160156 349.003906 292.121094 349.050781 C 292.054688 349.117188 291.964844 349.195312 291.894531 349.265625 C 291.84375 349.320312 291.804688 349.367188 291.738281 349.410156 C 291.632812 349.523438 291.523438 349.636719 291.414062 349.75 C 291.378906 349.796875 291.355469 349.835938 291.308594 349.867188 C 291.230469 349.960938 291.140625 350.0625 291.0625 350.15625 C 291.027344 350.203125 290.988281 350.25 290.964844 350.289062 C 290.851562 350.429688 290.765625 350.574219 290.648438 350.714844 C 290.574219 350.808594 290.523438 350.910156 290.449219 351 C 290.433594 351.011719 290.425781 351.039062 290.425781 351.039062 C 290.378906 351.136719 290.300781 351.230469 290.25 351.332031 C 290.234375 351.339844 290.246094 351.359375 290.230469 351.367188 C 290.113281 351.578125 290 351.785156 289.894531 352.011719 C 289.886719 352.039062 289.867188 352.074219 289.859375 352.101562 C 289.816406 352.175781 289.78125 352.265625 289.753906 352.328125 C 289.734375 352.363281 289.710938 352.398438 289.714844 352.441406 C 289.671875 352.515625 289.65625 352.59375 289.609375 352.667969 C 289.589844 352.703125 289.582031 352.730469 289.570312 352.785156 C 289.53125 352.898438 289.480469 353 289.460938 353.105469 C 289.460938 353.105469 289.460938 353.105469 289.453125 353.128906 C 289.367188 353.386719 289.273438 353.628906 289.207031 353.878906 C 289.1875 353.957031 289.160156 354.019531 289.144531 354.097656 C 289.085938 354.292969 289.023438 354.515625 288.964844 354.707031 C 288.953125 354.761719 288.925781 354.824219 288.925781 354.894531 C 288.867188 355.15625 288.800781 355.40625 288.765625 355.671875 C 288.765625 355.742188 288.738281 355.804688 288.738281 355.875 C 288.691406 356.085938 288.660156 356.285156 288.628906 356.484375 C 288.613281 356.566406 288.59375 356.644531 288.601562 356.730469 C 288.5625 356.984375 288.53125 357.25 288.503906 357.496094 C 288.496094 357.519531 288.492188 357.546875 288.484375 357.574219 C 288.460938 357.816406 288.445312 358.074219 288.429688 358.335938 C 288.421875 358.429688 288.417969 358.5 288.414062 358.59375 C 288.410156 358.800781 288.378906 359 288.375 359.207031 C 288.371094 359.277344 288.355469 359.355469 288.363281 359.441406 C 288.359375 359.714844 288.359375 359.964844 288.351562 360.238281 C 288.363281 360.324219 288.34375 360.402344 288.351562 360.488281 C 288.347656 360.695312 288.359375 360.890625 288.375 361.085938 C 288.367188 361.183594 288.375 361.265625 288.378906 361.378906 C 288.378906 361.628906 288.394531 361.867188 288.421875 362.121094 C 288.421875 362.1875 288.433594 362.246094 288.433594 362.316406 C 288.449219 362.554688 288.464844 362.792969 288.5 363.023438 C 288.519531 363.125 288.511719 363.21875 288.53125 363.320312 C 288.542969 363.515625 288.578125 363.71875 288.59375 363.914062 C 288.601562 364 288.609375 364.082031 288.617188 364.167969 C 288.65625 364.4375 288.683594 364.695312 288.71875 364.964844 C 288.726562 365.050781 288.746094 365.152344 288.757812 365.234375 C 288.785156 365.421875 288.824219 365.625 288.851562 365.808594 C 288.871094 365.910156 288.878906 365.996094 288.898438 366.097656 C 288.941406 366.339844 288.984375 366.585938 289.035156 366.84375 C 289.050781 366.902344 289.066406 366.960938 289.082031 367.019531 C 289.121094 367.265625 289.171875 367.484375 289.230469 367.71875 C 289.25 367.820312 289.273438 367.894531 289.292969 367.996094 C 289.332031 368.195312 289.398438 368.402344 289.433594 368.605469 C 289.460938 368.679688 289.457031 368.75 289.484375 368.824219 C 289.546875 369.101562 289.617188 369.351562 289.679688 369.628906 C 289.695312 369.6875 289.71875 369.761719 289.734375 369.820312 C 289.78125 370.039062 289.847656 370.246094 289.910156 370.453125 C 289.9375 370.527344 289.949219 370.585938 289.976562 370.660156 C 290.117188 371.203125 290.277344 371.738281 290.453125 372.257812 C 290.46875 372.316406 290.488281 372.351562 290.503906 372.410156 C 290.570312 372.660156 290.65625 372.898438 290.742188 373.140625 C 290.75 373.15625 290.761719 373.171875 290.757812 373.199219 C 290.847656 373.480469 290.941406 373.734375 291.03125 374.019531 C 291.03125 374.019531 291.042969 374.035156 291.042969 374.035156 C 291.136719 374.289062 291.226562 374.574219 291.320312 374.828125 C 291.332031 374.84375 291.332031 374.84375 291.34375 374.863281 C 291.425781 375.101562 291.523438 375.359375 291.609375 375.597656 C 291.613281 375.640625 291.644531 375.6875 291.664062 375.71875 C 291.75 375.960938 291.835938 376.199219 291.933594 376.429688 C 292.03125 376.6875 292.125 376.941406 292.226562 377.171875 C 292.226562 377.171875 292.238281 377.1875 292.238281 377.1875 C 292.726562 378.417969 293.222656 379.550781 293.679688 380.550781 L 295.902344 384.996094 L 299.46875 391.757812 C 299.46875 391.757812 289.007812 386.175781 276.089844 379.605469 C 262.445312 372.683594 246.050781 364.707031 236.304688 361.09375 C 235.476562 360.785156 234.679688 360.5 233.945312 360.265625 C 226.765625 358.050781 222.75 360.269531 220.4375 363.738281 C 220.320312 378.28125 259.109375 396.542969 267.027344 400.125 C 267.027344 400.125 267.035156 400.140625 267.050781 400.128906 C 267.113281 400.15625 267.152344 400.179688 267.203125 400.191406 C 267.230469 400.195312 267.242188 400.210938 267.265625 400.21875 C 267.304688 400.242188 267.339844 400.261719 267.382812 400.257812 C 267.410156 400.265625 267.445312 400.285156 267.472656 400.292969 C 267.5 400.296875 267.523438 400.304688 267.535156 400.320312 C 267.570312 400.339844 267.609375 400.363281 267.652344 400.359375 C 267.660156 400.375 267.675781 400.363281 267.6875 400.382812 C 268.164062 400.597656 268.417969 400.707031 268.417969 400.707031 L 274.039062 404.347656 L 274.96875 404.953125 C 273.832031 405.722656 272.746094 406.507812 271.6875 407.292969 C 259.597656 416.359375 252.832031 426.539062 249.078125 435.339844 C 244.347656 457.328125 262.828125 465.5625 280.039062 467.648438 C 280.066406 467.65625 280.082031 467.644531 280.09375 467.660156 C 280.214844 467.675781 280.335938 467.6875 280.457031 467.703125 C 280.484375 467.707031 280.523438 467.703125 280.550781 467.707031 C 280.671875 467.722656 280.792969 467.734375 280.914062 467.746094 C 280.941406 467.753906 280.96875 467.757812 280.984375 467.75 C 281.203125 467.769531 281.417969 467.789062 281.632812 467.8125 C 281.6875 467.820312 281.757812 467.824219 281.808594 467.835938 C 281.902344 467.84375 281.984375 467.859375 282.066406 467.851562 C 282.148438 467.867188 282.214844 467.871094 282.3125 467.878906 C 282.390625 467.894531 282.472656 467.886719 282.554688 467.902344 C 282.648438 467.910156 282.742188 467.917969 282.839844 467.925781 C 282.90625 467.925781 282.960938 467.9375 283.027344 467.941406 C 283.191406 467.949219 283.339844 467.96875 283.503906 467.976562 C 283.519531 467.964844 283.53125 467.980469 283.546875 467.972656 C 284.238281 468.027344 284.921875 468.070312 285.601562 468.109375 C 285.644531 468.105469 285.699219 468.117188 285.742188 468.113281 C 285.878906 468.117188 286.042969 468.125 286.179688 468.128906 C 286.222656 468.125 286.273438 468.136719 286.316406 468.128906 C 286.765625 468.160156 287.222656 468.164062 287.660156 468.179688 C 287.730469 468.179688 287.796875 468.183594 287.867188 468.183594 C 287.988281 468.195312 288.117188 468.183594 288.238281 468.195312 C 288.304688 468.199219 288.402344 468.207031 288.46875 468.207031 C 288.582031 468.203125 288.703125 468.21875 288.8125 468.214844 C 288.910156 468.222656 288.992188 468.210938 289.089844 468.21875 C 289.269531 468.21875 289.449219 468.214844 289.640625 468.230469 C 289.734375 468.238281 289.820312 468.230469 289.929688 468.226562 C 290.023438 468.234375 290.136719 468.230469 290.222656 468.222656 C 290.316406 468.230469 290.417969 468.210938 290.511719 468.21875 C 290.609375 468.226562 290.691406 468.214844 290.804688 468.214844 C 290.914062 468.210938 291.050781 468.214844 291.164062 468.210938 C 291.273438 468.207031 291.386719 468.203125 291.496094 468.203125 C 291.636719 468.203125 291.761719 468.191406 291.898438 468.195312 C 291.984375 468.183594 292.054688 468.1875 292.136719 468.175781 C 292.25 468.175781 292.359375 468.171875 292.472656 468.167969 C 292.558594 468.160156 292.625 468.160156 292.710938 468.152344 C 292.835938 468.140625 292.960938 468.152344 293.085938 468.140625 C 293.15625 468.140625 293.199219 468.136719 293.265625 468.136719 C 293.445312 468.136719 293.617188 468.117188 293.796875 468.117188 C 293.863281 468.117188 293.921875 468.101562 293.976562 468.113281 C 294.101562 468.101562 294.214844 468.097656 294.339844 468.085938 C 294.410156 468.085938 294.46875 468.074219 294.539062 468.074219 C 294.664062 468.0625 294.777344 468.058594 294.902344 468.042969 C 294.960938 468.03125 295.015625 468.042969 295.074219 468.027344 C 295.242188 468.007812 295.421875 468.007812 295.59375 467.988281 C 295.636719 467.984375 295.675781 467.980469 295.71875 467.976562 C 295.847656 467.964844 295.972656 467.949219 296.113281 467.953125 C 296.171875 467.9375 296.222656 467.949219 296.28125 467.933594 C 296.394531 467.933594 296.519531 467.917969 296.621094 467.898438 C 296.679688 467.886719 296.734375 467.898438 296.789062 467.882812 C 296.945312 467.875 297.105469 467.839844 297.257812 467.835938 C 297.257812 467.835938 297.273438 467.824219 297.285156 467.839844 C 297.605469 467.816406 297.921875 467.773438 298.25 467.722656 C 298.308594 467.707031 298.378906 467.710938 298.417969 467.703125 C 298.691406 467.667969 298.949219 467.613281 299.222656 467.578125 C 299.347656 467.566406 299.464844 467.535156 299.582031 467.507812 C 299.785156 467.46875 299.984375 467.429688 300.179688 467.375 C 300.277344 467.355469 300.371094 467.320312 300.46875 467.300781 C 302.449219 466.855469 304.335938 466.195312 306.152344 465.355469 C 306.554688 465.03125 306.945312 464.648438 307.34375 464.28125 Z M 284.332031 424.570312 C 284.03125 424.351562 283.800781 424.089844 283.617188 423.800781 C 283 422.835938 282.992188 421.550781 283.722656 420.5625 C 284.652344 419.292969 286.4375 419.039062 287.699219 419.953125 C 287.820312 420.035156 293.667969 424.136719 309.679688 428.738281 C 310.757812 429.046875 311.511719 429.945312 311.707031 431 C 311.785156 431.402344 311.769531 431.84375 311.632812 432.269531 C 311.453125 432.90625 311.0625 433.425781 310.566406 433.785156 C 309.890625 434.285156 308.992188 434.472656 308.109375 434.222656 C 290.824219 429.257812 284.582031 424.75 284.332031 424.570312 Z M 301.757812 451.832031 C 284.378906 449.054688 277.304688 444.625 277.015625 444.425781 C 276.667969 444.195312 276.359375 443.890625 276.144531 443.554688 C 275.570312 442.652344 275.519531 441.4375 276.148438 440.472656 C 276.996094 439.140625 278.75 438.769531 280.070312 439.601562 C 280.191406 439.683594 286.710938 443.628906 302.632812 446.179688 C 304.023438 446.40625 305.003906 447.589844 305.035156 448.953125 C 305.027344 449.117188 305.027344 449.296875 304.992188 449.453125 C 304.914062 449.933594 304.71875 450.375 304.433594 450.738281 C 303.867188 451.554688 302.839844 452.003906 301.757812 451.832031 Z M 301.757812 451.832031 " fill-opacity="1" fill-rule="nonzero"/></g></g></g></g><g clip-path="url(#62f8554ec9)"><g clip-path="url(#c2e6d6b7de)"><g clip-path="url(#18365f88fa)"><g clip-path="url(#9795c72462)"><path fill="#cccccc" d="M 311.441406 472.875 C 310.550781 472.398438 309.828125 471.867188 309.246094 471.308594 C 317.019531 467.640625 323.988281 461.046875 329.773438 451.8125 C 335.933594 441.996094 340.660156 428.976562 342.441406 416.972656 C 343.078125 412.71875 342.929688 408.265625 342.042969 403.824219 C 351.269531 405.027344 348.101562 428.761719 341.703125 441.964844 C 334.320312 457.242188 317.375 476.042969 311.441406 472.875 Z M 295.746094 385.070312 C 255.785156 356.484375 226.566406 345.996094 220.921875 361.054688 C 220.878906 361.167969 220.839844 361.285156 220.800781 361.402344 C 220.773438 361.464844 220.757812 361.542969 220.738281 361.621094 C 220.71875 361.660156 220.722656 361.699219 220.699219 361.738281 C 220.527344 362.390625 220.433594 363.0625 220.4375 363.738281 C 222.75 360.269531 226.765625 358.050781 233.773438 360.351562 C 234.511719 360.585938 235.304688 360.871094 236.132812 361.179688 C 245.894531 364.78125 262.273438 372.769531 275.917969 379.691406 C 288.84375 386.234375 299.296875 391.84375 299.296875 391.84375 Z M 293.523438 380.625 C 294.648438 383.101562 295.558594 384.738281 295.71875 385.023438 C 295.738281 385.054688 295.746094 385.070312 295.746094 385.070312 Z M 333.644531 426.203125 C 333.65625 426.152344 333.683594 426.089844 333.695312 426.035156 C 333.757812 425.816406 333.8125 425.578125 333.890625 425.347656 C 333.925781 425.257812 333.929688 425.160156 333.964844 425.074219 C 334.011719 424.863281 334.074219 424.640625 334.128906 424.445312 C 334.152344 424.339844 334.175781 424.234375 334.214844 424.121094 C 334.273438 423.925781 334.320312 423.714844 334.359375 423.53125 C 334.398438 423.414062 334.414062 423.292969 334.453125 423.175781 C 334.492188 422.992188 334.535156 422.808594 334.589844 422.613281 C 334.648438 422.417969 334.679688 422.21875 334.71875 422.03125 C 334.78125 421.8125 334.816406 421.585938 334.863281 421.375 C 334.90625 421.191406 334.945312 421.003906 334.96875 420.832031 C 335 420.699219 335.027344 420.566406 335.058594 420.4375 C 335.097656 420.25 335.125 420.078125 335.175781 419.910156 C 335.203125 419.777344 335.214844 419.65625 335.246094 419.523438 C 335.285156 419.339844 335.3125 419.164062 335.351562 418.980469 C 335.363281 418.859375 335.402344 418.742188 335.417969 418.621094 C 335.457031 418.4375 335.488281 418.238281 335.511719 418.0625 C 335.535156 417.957031 335.550781 417.835938 335.574219 417.730469 C 335.601562 417.53125 335.648438 417.320312 335.679688 417.117188 C 335.699219 417.039062 335.703125 416.945312 335.722656 416.867188 C 335.757812 416.570312 335.808594 416.289062 335.855469 416.011719 C 335.945312 415.410156 336.007812 414.828125 336.070312 414.21875 C 336.304688 411.355469 336.132812 408.5 335.632812 405.691406 C 335.21875 403.445312 334.601562 401.234375 333.757812 399.097656 C 332.042969 394.667969 329.527344 390.542969 326.441406 387.054688 C 326.230469 386.828125 326.035156 386.589844 325.820312 386.363281 C 325.597656 386.121094 325.375 385.878906 325.136719 385.644531 C 324.730469 385.222656 324.3125 384.8125 323.875 384.414062 C 323.085938 383.671875 322.265625 382.949219 321.523438 382.175781 C 321.007812 381.621094 320.519531 381.027344 320.132812 380.390625 C 319.242188 378.921875 316.78125 373.746094 315.832031 372.332031 C 311.515625 365.914062 310.035156 361.605469 307.96875 357.195312 C 307.902344 357.058594 307.839844 356.917969 307.761719 356.761719 C 307.695312 356.625 307.621094 356.46875 307.542969 356.3125 C 307.511719 356.265625 307.496094 356.207031 307.46875 356.160156 C 307.285156 355.800781 307.105469 355.414062 306.921875 355.054688 C 306.148438 353.558594 305.257812 352.019531 304.121094 350.34375 C 304.039062 350.214844 303.941406 350.097656 303.859375 349.96875 C 303.839844 349.9375 303.816406 349.902344 303.796875 349.871094 C 303.734375 349.773438 303.660156 349.6875 303.582031 349.601562 C 303.558594 349.570312 303.539062 349.539062 303.511719 349.53125 C 303.425781 349.429688 303.328125 349.3125 303.238281 349.207031 C 303.230469 349.191406 303.207031 349.160156 303.183594 349.15625 C 303.105469 349.066406 303.027344 348.980469 302.933594 348.90625 C 302.914062 348.875 302.875 348.851562 302.855469 348.820312 C 302.777344 348.734375 302.683594 348.65625 302.605469 348.570312 C 302.597656 348.554688 302.585938 348.539062 302.558594 348.53125 C 302.457031 348.441406 302.363281 348.363281 302.257812 348.273438 C 302.222656 348.25 302.210938 348.234375 302.175781 348.210938 C 302.089844 348.152344 302.007812 348.09375 301.925781 348.03125 C 301.886719 348.011719 301.878906 347.996094 301.839844 347.972656 C 301.730469 347.90625 301.636719 347.832031 301.527344 347.765625 C 301.417969 347.699219 301.308594 347.632812 301.207031 347.582031 C 301.179688 347.578125 301.160156 347.546875 301.132812 347.539062 C 301.035156 347.488281 300.953125 347.429688 300.863281 347.394531 C 300.835938 347.390625 300.824219 347.375 300.800781 347.367188 C 300.691406 347.300781 300.574219 347.261719 300.457031 347.222656 C 300.449219 347.207031 300.433594 347.21875 300.421875 347.203125 C 300.320312 347.152344 300.214844 347.128906 300.117188 347.078125 C 300.089844 347.074219 300.082031 347.058594 300.054688 347.050781 C 299.824219 346.972656 299.589844 346.894531 299.355469 346.839844 C 299.355469 346.839844 299.328125 346.835938 299.328125 346.835938 C 299.222656 346.8125 299.117188 346.789062 298.996094 346.773438 C 298.996094 346.773438 298.96875 346.769531 298.96875 346.769531 C 298.714844 346.726562 298.472656 346.699219 298.230469 346.675781 C 298.230469 346.675781 298.230469 346.675781 298.214844 346.683594 C 298.050781 346.675781 297.886719 346.667969 297.734375 346.675781 C 297.691406 346.679688 297.648438 346.683594 297.605469 346.6875 C 297.453125 346.695312 297.296875 346.703125 297.144531 346.710938 C 297.117188 346.703125 297.085938 346.722656 297.058594 346.71875 C 296.933594 346.730469 296.804688 346.746094 296.660156 346.769531 C 296.621094 346.773438 296.5625 346.789062 296.519531 346.792969 C 296.375 346.816406 296.230469 346.839844 296.074219 346.871094 C 296.03125 346.878906 295.972656 346.890625 295.9375 346.914062 C 295.824219 346.941406 295.722656 346.960938 295.613281 347.007812 C 295.554688 347.019531 295.496094 347.035156 295.464844 347.054688 C 295.332031 347.097656 295.183594 347.144531 295.058594 347.203125 C 295 347.214844 294.953125 347.246094 294.894531 347.261719 C 294.804688 347.296875 294.699219 347.34375 294.605469 347.378906 C 294.558594 347.40625 294.5 347.421875 294.453125 347.453125 C 294.328125 347.507812 294.191406 347.574219 294.078125 347.648438 C 294.027344 347.675781 293.964844 347.71875 293.90625 347.734375 C 293.824219 347.785156 293.71875 347.828125 293.640625 347.882812 C 293.589844 347.910156 293.527344 347.953125 293.476562 347.984375 C 293.367188 348.054688 293.238281 348.136719 293.125 348.210938 C 293.058594 348.25 293.011719 348.28125 292.957031 348.339844 C 292.925781 348.359375 292.894531 348.378906 292.878906 348.390625 C 297.128906 350.726562 302.371094 355.582031 304.855469 365.722656 C 305.015625 366.324219 305.171875 366.925781 305.34375 367.519531 C 307.304688 373.964844 311.042969 379.574219 315.054688 384.804688 C 315.324219 385.15625 315.589844 385.503906 315.859375 385.855469 C 320.316406 391.570312 324.992188 396.878906 327.828125 402.359375 C 327.96875 402.609375 328.078125 402.855469 328.199219 403.117188 C 329.371094 405.519531 330.15625 407.960938 330.425781 410.507812 C 330.429688 410.550781 330.421875 410.578125 330.445312 410.609375 C 330.808594 414.339844 330.359375 419.378906 329.042969 425.085938 C 327.277344 432.710938 323.925781 441.503906 318.78125 449.832031 C 315.621094 454.949219 311.808594 459.894531 307.285156 464.292969 C 306.894531 464.679688 306.496094 465.046875 306.082031 465.421875 C 306.433594 465.265625 306.777344 465.09375 307.132812 464.910156 C 310.335938 463.300781 313.265625 461.113281 315.921875 458.539062 C 324.625 450.160156 330.480469 437.59375 333.644531 426.203125 Z M 274.988281 404.984375 L 274.058594 404.378906 L 268.4375 400.742188 C 268.058594 401.210938 267.695312 401.667969 267.328125 402.125 C 267.199219 402.277344 267.097656 402.433594 266.980469 402.574219 C 266.75 402.882812 266.503906 403.171875 266.269531 403.480469 C 266.117188 403.667969 265.984375 403.84375 265.839844 404.046875 C 265.644531 404.308594 265.433594 404.582031 265.238281 404.839844 C 265.078125 405.054688 264.929688 405.242188 264.785156 405.445312 C 264.597656 405.679688 264.433594 405.921875 264.242188 406.152344 C 264.085938 406.367188 263.925781 406.582031 263.769531 406.796875 C 263.613281 407.007812 263.4375 407.234375 263.289062 407.464844 C 263.132812 407.675781 262.957031 407.902344 262.8125 408.132812 C 262.667969 408.335938 262.511719 408.546875 262.371094 408.75 C 262.207031 408.992188 262.050781 409.207031 261.886719 409.445312 C 261.761719 409.640625 261.625 409.816406 261.5 410.007812 C 261.335938 410.25 261.171875 410.488281 261.007812 410.730469 C 260.886719 410.898438 260.769531 411.0625 260.664062 411.222656 C 260.484375 411.472656 260.316406 411.738281 260.152344 411.976562 C 260.0625 412.125 259.964844 412.253906 259.863281 412.410156 C 259.675781 412.6875 259.507812 412.953125 259.320312 413.230469 C 259.257812 413.339844 259.179688 413.433594 259.113281 413.542969 C 258.921875 413.847656 258.714844 414.160156 258.523438 414.464844 C 258.503906 414.5 258.480469 414.539062 258.460938 414.574219 C 258.273438 414.851562 258.113281 415.132812 257.929688 415.410156 C 257.863281 415.519531 257.78125 415.640625 257.714844 415.75 C 257.613281 415.90625 257.519531 416.078125 257.414062 416.234375 C 257.34375 416.371094 257.246094 416.503906 257.175781 416.636719 C 257.101562 416.773438 257.003906 416.90625 256.933594 417.042969 C 256.84375 417.1875 256.757812 417.332031 256.671875 417.480469 C 256.621094 417.578125 256.542969 417.671875 256.496094 417.773438 C 256.140625 418.386719 255.796875 418.988281 255.457031 419.589844 C 255.421875 419.636719 255.410156 419.6875 255.371094 419.734375 C 255.253906 419.945312 255.140625 420.152344 255.039062 420.351562 C 255.019531 420.390625 254.996094 420.425781 254.992188 420.453125 C 251.957031 426.054688 250.074219 431.011719 249.125 435.445312 C 252.863281 426.65625 259.628906 416.476562 271.734375 407.402344 C 272.75 406.546875 273.851562 405.757812 274.988281 404.984375 Z M 274.988281 404.984375 " fill-opacity="1" fill-rule="nonzero"/></g></g></g></g></svg>