<svg xmlns="http://www.w3.org/2000/svg" xmlns:xlink="http://www.w3.org/1999/xlink" width="1080" zoomAndPan="magnify" viewBox="0 0 810 809.999993" height="1080" preserveAspectRatio="xMidYMid meet" version="1.0"><defs><clipPath id="ef5e85b103"><path d="M 532.445312 183 L 614.613281 183 L 614.613281 380.191406 L 532.445312 380.191406 Z M 532.445312 183 " clip-rule="nonzero"/></clipPath><clipPath id="166266fb2e"><path d="M 587.210938 185.203125 C 583 183.878906 578.210938 183.007812 573.507812 183.007812 C 568.808594 183.007812 564.285156 183.753906 560.117188 185.078125 C 560.027344 185.117188 559.941406 185.117188 559.851562 185.160156 C 544.199219 190.453125 532.667969 204.433594 532.445312 223.074219 L 532.445312 380.191406 L 614.613281 380.191406 L 614.613281 223.191406 C 614.394531 204.351562 603.042969 190.371094 587.210938 185.203125 Z M 587.210938 185.203125 " clip-rule="nonzero"/></clipPath><clipPath id="5fb8031421"><path d="M 185.453125 183 L 267.617188 183 L 267.617188 380.191406 L 185.453125 380.191406 Z M 185.453125 183 " clip-rule="nonzero"/></clipPath><clipPath id="534e5f2f9d"><path d="M 240.214844 185.203125 C 236.003906 183.878906 231.214844 183.007812 226.511719 183.007812 C 221.8125 183.007812 217.289062 183.753906 213.121094 185.078125 C 213.03125 185.117188 212.945312 185.117188 212.855469 185.160156 C 197.203125 190.453125 185.671875 204.433594 185.453125 223.074219 L 185.453125 380.191406 L 267.617188 380.191406 L 267.617188 223.191406 C 267.398438 204.351562 256.046875 190.371094 240.214844 185.203125 Z M 240.214844 185.203125 " clip-rule="nonzero"/></clipPath><clipPath id="98ba3c0453"><path d="M 674.542969 183 L 756.972656 183 L 756.972656 380.191406 L 674.542969 380.191406 Z M 674.542969 183 " clip-rule="nonzero"/></clipPath><clipPath id="0438046f0d"><path d="M 729.480469 185.164062 C 725.253906 183.863281 720.449219 183.007812 715.734375 183.007812 C 711.019531 183.007812 706.480469 183.742188 702.300781 185.039062 C 702.210938 185.082031 702.121094 185.082031 702.035156 185.121094 C 686.332031 190.324219 674.765625 204.054688 674.542969 222.445312 L 674.542969 380.191406 L 756.972656 380.191406 L 756.972656 222.5625 C 756.75 203.972656 745.359375 190.242188 729.480469 185.164062 Z M 729.480469 185.164062 " clip-rule="nonzero"/></clipPath><clipPath id="48b489aa03"><path d="M 746.113281 183 L 810 183 L 810 380.191406 L 746.113281 380.191406 Z M 746.113281 183 " clip-rule="nonzero"/></clipPath><clipPath id="9db89a3ecc"><path d="M 801.050781 185.164062 C 796.828125 183.863281 792.023438 183.007812 787.308594 183.007812 C 782.589844 183.007812 778.054688 183.742188 773.871094 185.039062 C 773.785156 185.082031 773.695312 185.082031 773.605469 185.121094 C 757.902344 190.324219 746.335938 204.054688 746.113281 222.445312 L 746.113281 380.191406 L 828.542969 380.191406 L 828.542969 222.5625 C 828.320312 203.972656 816.933594 190.242188 801.050781 185.164062 Z M 801.050781 185.164062 " clip-rule="nonzero"/></clipPath><clipPath id="252b14f607"><path d="M 327.617188 183 L 410.042969 183 L 410.042969 380.191406 L 327.617188 380.191406 Z M 327.617188 183 " clip-rule="nonzero"/></clipPath><clipPath id="c78c1f6a88"><path d="M 382.554688 185.164062 C 378.328125 183.863281 373.523438 183.007812 368.808594 183.007812 C 364.09375 183.007812 359.554688 183.742188 355.375 185.039062 C 355.285156 185.082031 355.195312 185.082031 355.105469 185.121094 C 339.402344 190.324219 327.839844 204.054688 327.617188 222.445312 L 327.617188 380.191406 L 410.042969 380.191406 L 410.042969 222.5625 C 409.824219 203.972656 398.433594 190.242188 382.554688 185.164062 Z M 382.554688 185.164062 " clip-rule="nonzero"/></clipPath><clipPath id="7964c63be5"><path d="M 399.253906 183 L 475.164062 183 L 475.164062 380.191406 L 399.253906 380.191406 Z M 399.253906 183 " clip-rule="nonzero"/></clipPath><clipPath id="78d3040fb7"><path d="M 449.847656 185.203125 C 445.957031 183.878906 441.53125 183.007812 437.1875 183.007812 C 432.847656 183.007812 428.667969 183.753906 424.816406 185.078125 C 424.734375 185.117188 424.652344 185.117188 424.570312 185.160156 C 410.109375 190.453125 399.460938 204.433594 399.253906 223.074219 L 399.253906 380.191406 L 475.164062 380.191406 L 475.164062 223.191406 C 474.960938 204.351562 464.472656 190.371094 449.847656 185.203125 Z M 449.847656 185.203125 " clip-rule="nonzero"/></clipPath><clipPath id="eb9ebadab1"><path d="M 49.539062 183 L 125.449219 183 L 125.449219 380.191406 L 49.539062 380.191406 Z M 49.539062 183 " clip-rule="nonzero"/></clipPath><clipPath id="69851db2b3"><path d="M 100.132812 185.203125 C 96.242188 183.878906 91.816406 183.007812 87.476562 183.007812 C 83.132812 183.007812 78.953125 183.753906 75.101562 185.078125 C 75.019531 185.117188 74.9375 185.117188 74.855469 185.160156 C 60.394531 190.453125 49.746094 204.433594 49.539062 223.074219 L 49.539062 380.191406 L 125.449219 380.191406 L 125.449219 223.191406 C 125.246094 204.351562 114.757812 190.371094 100.132812 185.203125 Z M 100.132812 185.203125 " clip-rule="nonzero"/></clipPath><clipPath id="d813596c5e"><path d="M 0 183 L 57.347656 183 L 57.347656 380.191406 L 0 380.191406 Z M 0 183 " clip-rule="nonzero"/></clipPath><clipPath id="f6847aec60"><path d="M 32.03125 185.203125 C 28.140625 183.878906 23.714844 183.007812 19.371094 183.007812 C 15.03125 183.007812 10.851562 183.753906 7 185.078125 C 6.917969 185.117188 6.835938 185.117188 6.753906 185.160156 C -7.707031 190.453125 -18.359375 204.433594 -18.5625 223.074219 L -18.5625 380.191406 L 57.347656 380.191406 L 57.347656 223.191406 C 57.144531 204.351562 46.65625 190.371094 32.03125 185.203125 Z M 32.03125 185.203125 " clip-rule="nonzero"/></clipPath><clipPath id="21f124a55e"><path d="M 606.457031 183 L 682.367188 183 L 682.367188 380.191406 L 606.457031 380.191406 Z M 606.457031 183 " clip-rule="nonzero"/></clipPath><clipPath id="f95682d2f4"><path d="M 657.050781 185.203125 C 653.160156 183.878906 648.734375 183.007812 644.390625 183.007812 C 640.050781 183.007812 635.871094 183.753906 632.019531 185.078125 C 631.9375 185.117188 631.855469 185.117188 631.773438 185.160156 C 617.3125 190.453125 606.660156 204.433594 606.457031 223.074219 L 606.457031 380.191406 L 682.367188 380.191406 L 682.367188 223.191406 C 682.164062 204.351562 671.675781 190.371094 657.050781 185.203125 Z M 657.050781 185.203125 " clip-rule="nonzero"/></clipPath><clipPath id="1e8ccbed9e"><path d="M 259.59375 183 L 335.503906 183 L 335.503906 380.191406 L 259.59375 380.191406 Z M 259.59375 183 " clip-rule="nonzero"/></clipPath><clipPath id="67b3b7de34"><path d="M 310.1875 185.203125 C 306.296875 183.878906 301.871094 183.007812 297.527344 183.007812 C 293.1875 183.007812 289.007812 183.753906 285.15625 185.078125 C 285.074219 185.117188 284.992188 185.117188 284.910156 185.160156 C 270.449219 190.453125 259.796875 204.433594 259.59375 223.074219 L 259.59375 380.191406 L 335.503906 380.191406 L 335.503906 223.191406 C 335.300781 204.351562 324.8125 190.371094 310.1875 185.203125 Z M 310.1875 185.203125 " clip-rule="nonzero"/></clipPath><clipPath id="3187351183"><path d="M 461.085938 183 L 542.582031 183 L 542.582031 381.175781 L 461.085938 381.175781 Z M 461.085938 183 " clip-rule="nonzero"/></clipPath><clipPath id="4cd4e01369"><path d="M 515.402344 185.195312 C 511.222656 183.871094 506.472656 183.003906 501.8125 183.003906 C 497.148438 183.003906 492.664062 183.746094 488.527344 185.070312 C 488.441406 185.113281 488.351562 185.113281 488.265625 185.152344 C 472.738281 190.449219 461.304688 204.425781 461.085938 223.089844 L 461.085938 381.175781 L 542.582031 381.175781 L 542.582031 223.207031 C 542.359375 204.34375 531.101562 190.363281 515.402344 185.195312 Z M 515.402344 185.195312 " clip-rule="nonzero"/></clipPath><clipPath id="cd9d5bf4f7"><path d="M 114.351562 183 L 195.847656 183 L 195.847656 381.175781 L 114.351562 381.175781 Z M 114.351562 183 " clip-rule="nonzero"/></clipPath><clipPath id="5f0e415207"><path d="M 168.667969 185.195312 C 164.492188 183.871094 159.742188 183.003906 155.078125 183.003906 C 150.417969 183.003906 145.929688 183.746094 141.796875 185.070312 C 141.707031 185.113281 141.621094 185.113281 141.53125 185.152344 C 126.007812 190.449219 114.574219 204.425781 114.351562 223.089844 L 114.351562 381.175781 L 195.847656 381.175781 L 195.847656 223.207031 C 195.628906 204.34375 184.371094 190.363281 168.667969 185.195312 Z M 168.667969 185.195312 " clip-rule="nonzero"/></clipPath></defs><g clip-path="url(#ef5e85b103)"><g clip-path="url(#166266fb2e)"><path fill="#7ea1c4" d="M 614.613281 380.191406 L 532.445312 380.191406 L 532.445312 183.117188 L 614.613281 183.117188 Z M 614.613281 380.191406 " fill-opacity="1" fill-rule="nonzero"/></g></g><g clip-path="url(#5fb8031421)"><g clip-path="url(#534e5f2f9d)"><path fill="#7ea1c4" d="M 267.617188 380.191406 L 185.453125 380.191406 L 185.453125 183.117188 L 267.617188 183.117188 Z M 267.617188 380.191406 " fill-opacity="1" fill-rule="nonzero"/></g></g><g clip-path="url(#98ba3c0453)"><g clip-path="url(#0438046f0d)"><path fill="#7ea1c4" d="M 756.972656 380.191406 L 674.542969 380.191406 L 674.542969 183.132812 L 756.972656 183.132812 Z M 756.972656 380.191406 " fill-opacity="1" fill-rule="nonzero"/></g></g><g clip-path="url(#48b489aa03)"><g clip-path="url(#9db89a3ecc)"><path fill="#7ea1c4" d="M 828.542969 380.191406 L 746.113281 380.191406 L 746.113281 183.132812 L 828.542969 183.132812 Z M 828.542969 380.191406 " fill-opacity="1" fill-rule="nonzero"/></g></g><g clip-path="url(#252b14f607)"><g clip-path="url(#c78c1f6a88)"><path fill="#7ea1c4" d="M 410.042969 380.191406 L 327.617188 380.191406 L 327.617188 183.132812 L 410.042969 183.132812 Z M 410.042969 380.191406 " fill-opacity="1" fill-rule="nonzero"/></g></g><g clip-path="url(#7964c63be5)"><g clip-path="url(#78d3040fb7)"><path fill="#7ea1c4" d="M 475.164062 380.191406 L 399.253906 380.191406 L 399.253906 183 L 475.164062 183 Z M 475.164062 380.191406 " fill-opacity="1" fill-rule="nonzero"/></g></g><g clip-path="url(#eb9ebadab1)"><g clip-path="url(#69851db2b3)"><path fill="#7ea1c4" d="M 125.449219 380.191406 L 49.539062 380.191406 L 49.539062 183 L 125.449219 183 Z M 125.449219 380.191406 " fill-opacity="1" fill-rule="nonzero"/></g></g><g clip-path="url(#d813596c5e)"><g clip-path="url(#f6847aec60)"><path fill="#7ea1c4" d="M 57.347656 380.191406 L -18.5625 380.191406 L -18.5625 183 L 57.347656 183 Z M 57.347656 380.191406 " fill-opacity="1" fill-rule="nonzero"/></g></g><g clip-path="url(#21f124a55e)"><g clip-path="url(#f95682d2f4)"><path fill="#7ea1c4" d="M 682.367188 380.191406 L 606.457031 380.191406 L 606.457031 183 L 682.367188 183 Z M 682.367188 380.191406 " fill-opacity="1" fill-rule="nonzero"/></g></g><g clip-path="url(#1e8ccbed9e)"><g clip-path="url(#67b3b7de34)"><path fill="#7ea1c4" d="M 335.503906 380.191406 L 259.59375 380.191406 L 259.59375 183 L 335.503906 183 Z M 335.503906 380.191406 " fill-opacity="1" fill-rule="nonzero"/></g></g><g clip-path="url(#3187351183)"><g clip-path="url(#4cd4e01369)"><path fill="#7ea1c4" d="M 542.582031 381.175781 L 461.085938 381.175781 L 461.085938 182.847656 L 542.582031 182.847656 Z M 542.582031 381.175781 " fill-opacity="1" fill-rule="nonzero"/></g></g><g clip-path="url(#cd9d5bf4f7)"><g clip-path="url(#5f0e415207)"><path fill="#7ea1c4" d="M 195.847656 381.175781 L 114.351562 381.175781 L 114.351562 182.847656 L 195.847656 182.847656 Z M 195.847656 381.175781 " fill-opacity="1" fill-rule="nonzero"/></g></g></svg>