<svg xmlns="http://www.w3.org/2000/svg" xmlns:xlink="http://www.w3.org/1999/xlink" width="1080" zoomAndPan="magnify" viewBox="0 0 810 809.999993" height="1080" preserveAspectRatio="xMidYMid meet" version="1.0"><defs><clipPath id="a6d333e743"><path d="M 0 348.222656 L 193.53125 348.222656 L 193.53125 810 L 0 810 Z M 0 348.222656 " clip-rule="nonzero"/></clipPath><clipPath id="008439d295"><path d="M 59.335938 353.921875 C 69.625 350.480469 81.394531 348.222656 92.914062 348.222656 C 104.429688 348.222656 115.515625 350.15625 125.726562 353.601562 C 125.945312 353.707031 126.164062 353.707031 126.378906 353.816406 C 164.734375 367.585938 192.988281 403.941406 193.53125 451.292969 L 193.53125 810 L -7.8125 810 L -7.8125 451.558594 C -7.269531 403.726562 20.546875 367.371094 59.335938 353.921875 Z M 59.335938 353.921875 " clip-rule="nonzero"/></clipPath><clipPath id="5a75011098"><path d="M 188.175781 348.222656 L 389.519531 348.222656 L 389.519531 810 L 188.175781 810 Z M 188.175781 348.222656 " clip-rule="nonzero"/></clipPath><clipPath id="64a5248ac8"><path d="M 255.328125 353.921875 C 265.617188 350.480469 277.382812 348.222656 288.902344 348.222656 C 300.417969 348.222656 311.503906 350.15625 321.714844 353.601562 C 321.933594 353.707031 322.152344 353.707031 322.367188 353.816406 C 360.726562 367.585938 388.976562 403.941406 389.519531 451.292969 L 389.519531 810 L 188.175781 810 L 188.175781 451.558594 C 188.71875 403.726562 216.535156 367.371094 255.328125 353.921875 Z M 255.328125 353.921875 " clip-rule="nonzero"/></clipPath><clipPath id="181a6c0079"><path d="M 384.164062 348.222656 L 585.507812 348.222656 L 585.507812 810 L 384.164062 810 Z M 384.164062 348.222656 " clip-rule="nonzero"/></clipPath><clipPath id="5b0ef0da5f"><path d="M 451.316406 353.921875 C 461.605469 350.480469 473.371094 348.222656 484.890625 348.222656 C 496.410156 348.222656 507.492188 350.15625 517.707031 353.601562 C 517.921875 353.707031 518.140625 353.707031 518.355469 353.816406 C 556.714844 367.585938 584.964844 403.941406 585.507812 451.292969 L 585.507812 810 L 384.164062 810 L 384.164062 451.558594 C 384.707031 403.726562 412.523438 367.371094 451.316406 353.921875 Z M 451.316406 353.921875 " clip-rule="nonzero"/></clipPath><clipPath id="1b8c8e8ba2"><path d="M 580.152344 348.222656 L 781.496094 348.222656 L 781.496094 810 L 580.152344 810 Z M 580.152344 348.222656 " clip-rule="nonzero"/></clipPath><clipPath id="c26cf80597"><path d="M 647.304688 353.921875 C 657.59375 350.480469 669.363281 348.222656 680.878906 348.222656 C 692.398438 348.222656 703.480469 350.15625 713.695312 353.601562 C 713.910156 353.707031 714.128906 353.707031 714.347656 353.816406 C 752.703125 367.585938 780.953125 403.941406 781.496094 451.292969 L 781.496094 810 L 580.152344 810 L 580.152344 451.558594 C 580.695312 403.726562 608.511719 367.371094 647.304688 353.921875 Z M 647.304688 353.921875 " clip-rule="nonzero"/></clipPath><clipPath id="506dfe8b41"><path d="M 181.578125 348.222656 L 394.875 348.222656 L 394.875 810 L 181.578125 810 Z M 181.578125 348.222656 " clip-rule="nonzero"/></clipPath><clipPath id="df853d4a01"><path d="M 252.714844 353.921875 C 263.617188 350.480469 276.082031 348.222656 288.285156 348.222656 C 300.484375 348.222656 312.226562 350.15625 323.046875 353.601562 C 323.277344 353.707031 323.507812 353.707031 323.738281 353.816406 C 364.371094 367.585938 394.300781 403.941406 394.875 451.292969 L 394.875 810 L 181.578125 810 L 181.578125 451.558594 C 182.152344 403.726562 211.621094 367.371094 252.714844 353.921875 Z M 252.714844 353.921875 " clip-rule="nonzero"/></clipPath><clipPath id="63c7dde8f2"><path d="M 377.566406 348.222656 L 590.863281 348.222656 L 590.863281 810 L 377.566406 810 Z M 377.566406 348.222656 " clip-rule="nonzero"/></clipPath><clipPath id="5030ad706a"><path d="M 448.703125 353.921875 C 459.605469 350.480469 472.070312 348.222656 484.273438 348.222656 C 496.476562 348.222656 508.214844 350.15625 519.035156 353.601562 C 519.265625 353.707031 519.496094 353.707031 519.726562 353.816406 C 560.359375 367.585938 590.289062 403.941406 590.863281 451.292969 L 590.863281 810 L 377.566406 810 L 377.566406 451.558594 C 378.144531 403.726562 407.609375 367.371094 448.703125 353.921875 Z M 448.703125 353.921875 " clip-rule="nonzero"/></clipPath><clipPath id="0e65098ea6"><path d="M 573.554688 348.222656 L 786.851562 348.222656 L 786.851562 810 L 573.554688 810 Z M 573.554688 348.222656 " clip-rule="nonzero"/></clipPath><clipPath id="6ac85788a1"><path d="M 644.691406 353.921875 C 655.59375 350.480469 668.058594 348.222656 680.261719 348.222656 C 692.464844 348.222656 704.203125 350.15625 715.023438 353.601562 C 715.253906 353.707031 715.484375 353.707031 715.714844 353.816406 C 756.347656 367.585938 786.277344 403.941406 786.851562 451.292969 L 786.851562 810 L 573.554688 810 L 573.554688 451.558594 C 574.132812 403.726562 603.597656 367.371094 644.691406 353.921875 Z M 644.691406 353.921875 " clip-rule="nonzero"/></clipPath><clipPath id="031c98c77b"><path d="M 769.542969 348.222656 L 810 348.222656 L 810 810 L 769.542969 810 Z M 769.542969 348.222656 " clip-rule="nonzero"/></clipPath><clipPath id="a18958172e"><path d="M 840.683594 353.921875 C 851.582031 350.480469 864.050781 348.222656 876.25 348.222656 C 888.453125 348.222656 900.195312 350.15625 911.011719 353.601562 C 911.242188 353.707031 911.472656 353.707031 911.703125 353.816406 C 952.335938 367.585938 982.265625 403.941406 982.839844 451.292969 L 982.839844 810 L 769.542969 810 L 769.542969 451.558594 C 770.121094 403.726562 799.589844 367.371094 840.683594 353.921875 Z M 840.683594 353.921875 " clip-rule="nonzero"/></clipPath></defs><g clip-path="url(#a6d333e743)"><g clip-path="url(#008439d295)"><path fill="#f161ac" d="M -7.8125 348.222656 L 193.53125 348.222656 L 193.53125 809.898438 L -7.8125 809.898438 Z M -7.8125 348.222656 " fill-opacity="1" fill-rule="nonzero"/></g></g><g clip-path="url(#5a75011098)"><g clip-path="url(#64a5248ac8)"><path fill="#f161ac" d="M 188.175781 348.222656 L 389.519531 348.222656 L 389.519531 809.898438 L 188.175781 809.898438 Z M 188.175781 348.222656 " fill-opacity="1" fill-rule="nonzero"/></g></g><g clip-path="url(#181a6c0079)"><g clip-path="url(#5b0ef0da5f)"><path fill="#f161ac" d="M 384.164062 348.222656 L 585.507812 348.222656 L 585.507812 809.898438 L 384.164062 809.898438 Z M 384.164062 348.222656 " fill-opacity="1" fill-rule="nonzero"/></g></g><g clip-path="url(#1b8c8e8ba2)"><g clip-path="url(#c26cf80597)"><path fill="#f161ac" d="M 580.152344 348.222656 L 781.496094 348.222656 L 781.496094 809.898438 L 580.152344 809.898438 Z M 580.152344 348.222656 " fill-opacity="1" fill-rule="nonzero"/></g></g><g clip-path="url(#506dfe8b41)"><g clip-path="url(#df853d4a01)"><path fill="#f161ac" d="M 181.578125 348.222656 L 394.875 348.222656 L 394.875 809.808594 L 181.578125 809.808594 Z M 181.578125 348.222656 " fill-opacity="1" fill-rule="nonzero"/></g></g><g clip-path="url(#63c7dde8f2)"><g clip-path="url(#5030ad706a)"><path fill="#f161ac" d="M 377.566406 348.222656 L 590.863281 348.222656 L 590.863281 809.808594 L 377.566406 809.808594 Z M 377.566406 348.222656 " fill-opacity="1" fill-rule="nonzero"/></g></g><g clip-path="url(#0e65098ea6)"><g clip-path="url(#6ac85788a1)"><path fill="#f161ac" d="M 573.554688 348.222656 L 786.851562 348.222656 L 786.851562 809.808594 L 573.554688 809.808594 Z M 573.554688 348.222656 " fill-opacity="1" fill-rule="nonzero"/></g></g><g clip-path="url(#031c98c77b)"><g clip-path="url(#a18958172e)"><path fill="#f161ac" d="M 769.542969 348.222656 L 982.839844 348.222656 L 982.839844 809.808594 L 769.542969 809.808594 Z M 769.542969 348.222656 " fill-opacity="1" fill-rule="nonzero"/></g></g></svg>