<svg xmlns="http://www.w3.org/2000/svg" xmlns:xlink="http://www.w3.org/1999/xlink" width="1080" zoomAndPan="magnify" viewBox="0 0 810 809.999993" height="1080" preserveAspectRatio="xMidYMid meet" version="1.0"><defs><clipPath id="6f788d7a68"><path d="M 201.585938 0 L 283.753906 0 L 283.753906 180 L 201.585938 180 Z M 201.585938 0 " clip-rule="nonzero"/></clipPath><clipPath id="4921479a32"><path d="M 228.992188 177.894531 C 233.203125 179.21875 237.992188 180.085938 242.695312 180.085938 C 247.394531 180.085938 251.917969 179.339844 256.085938 178.019531 C 256.175781 177.976562 256.261719 177.976562 256.351562 177.9375 C 272.003906 172.640625 283.535156 158.664062 283.753906 140.019531 L 283.753906 -17.09375 L 201.585938 -17.09375 L 201.585938 139.90625 C 201.808594 158.746094 213.160156 172.722656 228.992188 177.894531 Z M 228.992188 177.894531 " clip-rule="nonzero"/></clipPath><clipPath id="b414d07752"><path d="M 548.582031 0 L 630.75 0 L 630.75 180 L 548.582031 180 Z M 548.582031 0 " clip-rule="nonzero"/></clipPath><clipPath id="c5b0b8180c"><path d="M 575.988281 177.894531 C 580.199219 179.21875 584.988281 180.085938 589.6875 180.085938 C 594.390625 180.085938 598.914062 179.339844 603.082031 178.019531 C 603.167969 177.976562 603.257812 177.976562 603.347656 177.9375 C 619 172.640625 630.53125 158.664062 630.75 140.019531 L 630.75 -17.09375 L 548.582031 -17.09375 L 548.582031 139.90625 C 548.804688 158.746094 560.15625 172.722656 575.988281 177.894531 Z M 575.988281 177.894531 " clip-rule="nonzero"/></clipPath><clipPath id="b265d58fc5"><path d="M 59.226562 0 L 141.65625 0 L 141.65625 180 L 59.226562 180 Z M 59.226562 0 " clip-rule="nonzero"/></clipPath><clipPath id="915a24e680"><path d="M 86.71875 177.933594 C 90.945312 179.234375 95.75 180.085938 100.464844 180.085938 C 105.179688 180.085938 109.71875 179.355469 113.898438 178.054688 C 113.988281 178.015625 114.078125 178.015625 114.164062 177.972656 C 129.867188 172.773438 141.433594 159.039062 141.65625 140.652344 L 141.65625 -17.09375 L 59.226562 -17.09375 L 59.226562 140.535156 C 59.449219 159.121094 70.839844 172.855469 86.71875 177.933594 Z M 86.71875 177.933594 " clip-rule="nonzero"/></clipPath><clipPath id="b5cf787941"><path d="M 0 0 L 70.085938 0 L 70.085938 180 L 0 180 Z M 0 0 " clip-rule="nonzero"/></clipPath><clipPath id="f6a161afc7"><path d="M 15.148438 177.933594 C 19.371094 179.234375 24.175781 180.085938 28.890625 180.085938 C 33.609375 180.085938 38.144531 179.355469 42.328125 178.054688 C 42.414062 178.015625 42.503906 178.015625 42.59375 177.972656 C 58.296875 172.773438 69.863281 159.039062 70.085938 140.652344 L 70.085938 -17.09375 L -12.34375 -17.09375 L -12.34375 140.535156 C -12.121094 159.121094 -0.734375 172.855469 15.148438 177.933594 Z M 15.148438 177.933594 " clip-rule="nonzero"/></clipPath><clipPath id="6e738b4567"><path d="M 406.15625 0 L 488.582031 0 L 488.582031 180 L 406.15625 180 Z M 406.15625 0 " clip-rule="nonzero"/></clipPath><clipPath id="5853775bc4"><path d="M 433.644531 177.933594 C 437.871094 179.234375 442.675781 180.085938 447.390625 180.085938 C 452.105469 180.085938 456.644531 179.355469 460.824219 178.054688 C 460.914062 178.015625 461.003906 178.015625 461.09375 177.972656 C 476.796875 172.773438 488.359375 159.039062 488.582031 140.652344 L 488.582031 -17.09375 L 406.15625 -17.09375 L 406.15625 140.535156 C 406.378906 159.121094 417.765625 172.855469 433.644531 177.933594 Z M 433.644531 177.933594 " clip-rule="nonzero"/></clipPath><clipPath id="306db6b611"><path d="M 341.035156 0 L 416.949219 0 L 416.949219 180.09375 L 341.035156 180.09375 Z M 341.035156 0 " clip-rule="nonzero"/></clipPath><clipPath id="cf91aaf277"><path d="M 366.355469 177.894531 C 370.246094 179.21875 374.671875 180.085938 379.011719 180.085938 C 383.355469 180.085938 387.535156 179.339844 391.382812 178.019531 C 391.464844 177.976562 391.546875 177.976562 391.628906 177.9375 C 406.089844 172.640625 416.742188 158.664062 416.949219 140.019531 L 416.949219 -17.09375 L 341.035156 -17.09375 L 341.035156 139.90625 C 341.242188 158.746094 351.730469 172.722656 366.355469 177.894531 Z M 366.355469 177.894531 " clip-rule="nonzero"/></clipPath><clipPath id="41c8269c6a"><path d="M 690.75 0 L 766.660156 0 L 766.660156 180.09375 L 690.75 180.09375 Z M 690.75 0 " clip-rule="nonzero"/></clipPath><clipPath id="c4a34f9e54"><path d="M 716.070312 177.894531 C 719.960938 179.21875 724.382812 180.085938 728.726562 180.085938 C 733.070312 180.085938 737.246094 179.339844 741.097656 178.019531 C 741.179688 177.976562 741.261719 177.976562 741.34375 177.9375 C 755.804688 172.640625 766.457031 158.664062 766.660156 140.019531 L 766.660156 -17.09375 L 690.75 -17.09375 L 690.75 139.90625 C 690.957031 158.746094 701.445312 172.722656 716.070312 177.894531 Z M 716.070312 177.894531 " clip-rule="nonzero"/></clipPath><clipPath id="9a58c5be19"><path d="M 758.855469 0 L 810 0 L 810 180.09375 L 758.855469 180.09375 Z M 758.855469 0 " clip-rule="nonzero"/></clipPath><clipPath id="0285625252"><path d="M 784.171875 177.894531 C 788.0625 179.21875 792.488281 180.085938 796.828125 180.085938 C 801.171875 180.085938 805.351562 179.339844 809.203125 178.019531 C 809.285156 177.976562 809.367188 177.976562 809.445312 177.9375 C 823.910156 172.640625 834.558594 158.664062 834.765625 140.019531 L 834.765625 -17.09375 L 758.855469 -17.09375 L 758.855469 139.90625 C 759.058594 158.746094 769.546875 172.722656 784.171875 177.894531 Z M 784.171875 177.894531 " clip-rule="nonzero"/></clipPath><clipPath id="1982f131cf"><path d="M 133.835938 0 L 209.746094 0 L 209.746094 180.09375 L 133.835938 180.09375 Z M 133.835938 0 " clip-rule="nonzero"/></clipPath><clipPath id="51ddf8a248"><path d="M 159.152344 177.894531 C 163.042969 179.21875 167.46875 180.085938 171.808594 180.085938 C 176.152344 180.085938 180.332031 179.339844 184.183594 178.019531 C 184.265625 177.976562 184.347656 177.976562 184.429688 177.9375 C 198.890625 172.640625 209.539062 158.664062 209.746094 140.019531 L 209.746094 -17.09375 L 133.835938 -17.09375 L 133.835938 139.90625 C 134.039062 158.746094 144.527344 172.722656 159.152344 177.894531 Z M 159.152344 177.894531 " clip-rule="nonzero"/></clipPath><clipPath id="e13bd626e9"><path d="M 480.699219 0 L 556.609375 0 L 556.609375 180.09375 L 480.699219 180.09375 Z M 480.699219 0 " clip-rule="nonzero"/></clipPath><clipPath id="3677e8f7dc"><path d="M 506.015625 177.894531 C 509.90625 179.21875 514.332031 180.085938 518.671875 180.085938 C 523.015625 180.085938 527.195312 179.339844 531.046875 178.019531 C 531.128906 177.976562 531.207031 177.976562 531.289062 177.9375 C 545.753906 172.640625 556.402344 158.664062 556.609375 140.019531 L 556.609375 -17.09375 L 480.699219 -17.09375 L 480.699219 139.90625 C 480.902344 158.746094 491.390625 172.722656 506.015625 177.894531 Z M 506.015625 177.894531 " clip-rule="nonzero"/></clipPath><clipPath id="1d19c6c716"><path d="M 273.625 0 L 355.121094 0 L 355.121094 180.242188 L 273.625 180.242188 Z M 273.625 0 " clip-rule="nonzero"/></clipPath><clipPath id="d8f4d8cc59"><path d="M 300.804688 177.894531 C 304.984375 179.21875 309.734375 180.085938 314.394531 180.085938 C 319.058594 180.085938 323.542969 179.339844 327.679688 178.019531 C 327.765625 177.976562 327.855469 177.976562 327.941406 177.9375 C 343.46875 172.640625 354.902344 158.664062 355.121094 140 L 355.121094 -18.085938 L 273.625 -18.085938 L 273.625 139.882812 C 273.847656 158.746094 285.105469 172.722656 300.804688 177.894531 Z M 300.804688 177.894531 " clip-rule="nonzero"/></clipPath><clipPath id="be2c356959"><path d="M 620.359375 0 L 701.855469 0 L 701.855469 180.242188 L 620.359375 180.242188 Z M 620.359375 0 " clip-rule="nonzero"/></clipPath><clipPath id="3981e66eeb"><path d="M 647.539062 177.894531 C 651.714844 179.21875 656.464844 180.085938 661.128906 180.085938 C 665.789062 180.085938 670.277344 179.339844 674.410156 178.019531 C 674.496094 177.976562 674.585938 177.976562 674.675781 177.9375 C 690.199219 172.640625 701.632812 158.664062 701.855469 140 L 701.855469 -18.085938 L 620.359375 -18.085938 L 620.359375 139.882812 C 620.578125 158.746094 631.835938 172.722656 647.539062 177.894531 Z M 647.539062 177.894531 " clip-rule="nonzero"/></clipPath></defs><g clip-path="url(#6f788d7a68)"><g clip-path="url(#4921479a32)"><path fill="#ed97df" d="M 201.585938 -17.09375 L 283.753906 -17.09375 L 283.753906 179.980469 L 201.585938 179.980469 Z M 201.585938 -17.09375 " fill-opacity="1" fill-rule="nonzero"/></g></g><g clip-path="url(#b414d07752)"><g clip-path="url(#c5b0b8180c)"><path fill="#ed97df" d="M 548.582031 -17.09375 L 630.75 -17.09375 L 630.75 179.980469 L 548.582031 179.980469 Z M 548.582031 -17.09375 " fill-opacity="1" fill-rule="nonzero"/></g></g><g clip-path="url(#b265d58fc5)"><g clip-path="url(#915a24e680)"><path fill="#ed97df" d="M 59.226562 -17.09375 L 141.65625 -17.09375 L 141.65625 179.960938 L 59.226562 179.960938 Z M 59.226562 -17.09375 " fill-opacity="1" fill-rule="nonzero"/></g></g><g clip-path="url(#b5cf787941)"><g clip-path="url(#f6a161afc7)"><path fill="#ed97df" d="M -12.34375 -17.09375 L 70.085938 -17.09375 L 70.085938 179.960938 L -12.34375 179.960938 Z M -12.34375 -17.09375 " fill-opacity="1" fill-rule="nonzero"/></g></g><g clip-path="url(#6e738b4567)"><g clip-path="url(#5853775bc4)"><path fill="#ed97df" d="M 406.15625 -17.09375 L 488.582031 -17.09375 L 488.582031 179.960938 L 406.15625 179.960938 Z M 406.15625 -17.09375 " fill-opacity="1" fill-rule="nonzero"/></g></g><g clip-path="url(#306db6b611)"><g clip-path="url(#cf91aaf277)"><path fill="#ed97df" d="M 341.035156 -17.09375 L 416.949219 -17.09375 L 416.949219 180.09375 L 341.035156 180.09375 Z M 341.035156 -17.09375 " fill-opacity="1" fill-rule="nonzero"/></g></g><g clip-path="url(#41c8269c6a)"><g clip-path="url(#c4a34f9e54)"><path fill="#ed97df" d="M 690.75 -17.09375 L 766.660156 -17.09375 L 766.660156 180.09375 L 690.75 180.09375 Z M 690.75 -17.09375 " fill-opacity="1" fill-rule="nonzero"/></g></g><g clip-path="url(#9a58c5be19)"><g clip-path="url(#0285625252)"><path fill="#ed97df" d="M 758.855469 -17.09375 L 834.765625 -17.09375 L 834.765625 180.09375 L 758.855469 180.09375 Z M 758.855469 -17.09375 " fill-opacity="1" fill-rule="nonzero"/></g></g><g clip-path="url(#1982f131cf)"><g clip-path="url(#51ddf8a248)"><path fill="#ed97df" d="M 133.835938 -17.09375 L 209.746094 -17.09375 L 209.746094 180.09375 L 133.835938 180.09375 Z M 133.835938 -17.09375 " fill-opacity="1" fill-rule="nonzero"/></g></g><g clip-path="url(#e13bd626e9)"><g clip-path="url(#3677e8f7dc)"><path fill="#ed97df" d="M 480.699219 -17.09375 L 556.609375 -17.09375 L 556.609375 180.09375 L 480.699219 180.09375 Z M 480.699219 -17.09375 " fill-opacity="1" fill-rule="nonzero"/></g></g><g clip-path="url(#1d19c6c716)"><g clip-path="url(#d8f4d8cc59)"><path fill="#ed97df" d="M 273.625 -18.085938 L 355.121094 -18.085938 L 355.121094 180.242188 L 273.625 180.242188 Z M 273.625 -18.085938 " fill-opacity="1" fill-rule="nonzero"/></g></g><g clip-path="url(#be2c356959)"><g clip-path="url(#3981e66eeb)"><path fill="#ed97df" d="M 620.359375 -18.085938 L 701.855469 -18.085938 L 701.855469 180.242188 L 620.359375 180.242188 Z M 620.359375 -18.085938 " fill-opacity="1" fill-rule="nonzero"/></g></g></svg>