<svg xmlns="http://www.w3.org/2000/svg" xmlns:xlink="http://www.w3.org/1999/xlink" width="1080" zoomAndPan="magnify" viewBox="0 0 810 809.999993" height="1080" preserveAspectRatio="xMidYMid meet" version="1.0"><defs><clipPath id="bc698f4aea"><path d="M 195.378906 0 L 277.546875 0 L 277.546875 70.796875 L 195.378906 70.796875 Z M 195.378906 0 " clip-rule="nonzero"/></clipPath><clipPath id="05762e889a"><path d="M 222.78125 68.390625 C 226.992188 69.714844 231.78125 70.582031 236.484375 70.582031 C 241.183594 70.582031 245.707031 69.835938 249.875 68.515625 C 249.964844 68.472656 250.050781 68.472656 250.140625 68.429688 C 265.792969 63.136719 277.324219 49.160156 277.546875 30.515625 L 277.546875 -126.601562 L 195.378906 -126.601562 L 195.378906 30.402344 C 195.597656 49.242188 206.949219 63.21875 222.78125 68.390625 Z M 222.78125 68.390625 " clip-rule="nonzero"/></clipPath><clipPath id="4cdc5a9290"><path d="M 542.375 0 L 624.539062 0 L 624.539062 70.796875 L 542.375 70.796875 Z M 542.375 0 " clip-rule="nonzero"/></clipPath><clipPath id="9fa3d92925"><path d="M 569.777344 68.390625 C 573.988281 69.714844 578.777344 70.582031 583.480469 70.582031 C 588.179688 70.582031 592.703125 69.835938 596.871094 68.515625 C 596.960938 68.472656 597.046875 68.472656 597.136719 68.429688 C 612.789062 63.136719 624.320312 49.160156 624.539062 30.515625 L 624.539062 -126.601562 L 542.375 -126.601562 L 542.375 30.402344 C 542.59375 49.242188 553.945312 63.21875 569.777344 68.390625 Z M 569.777344 68.390625 " clip-rule="nonzero"/></clipPath><clipPath id="e965f69abd"><path d="M 53.019531 0 L 135.445312 0 L 135.445312 70.777344 L 53.019531 70.777344 Z M 53.019531 0 " clip-rule="nonzero"/></clipPath><clipPath id="34d610f9e0"><path d="M 80.507812 68.429688 C 84.734375 69.730469 89.539062 70.582031 94.253906 70.582031 C 98.96875 70.582031 103.507812 69.851562 107.6875 68.550781 C 107.777344 68.511719 107.867188 68.511719 107.957031 68.46875 C 123.660156 63.269531 135.222656 49.535156 135.445312 31.148438 L 135.445312 -126.601562 L 53.019531 -126.601562 L 53.019531 31.03125 C 53.242188 49.617188 64.628906 63.351562 80.507812 68.429688 Z M 80.507812 68.429688 " clip-rule="nonzero"/></clipPath><clipPath id="8c8a0f35f8"><path d="M 0 0 L 63.875 0 L 63.875 70.777344 L 0 70.777344 Z M 0 0 " clip-rule="nonzero"/></clipPath><clipPath id="b437761888"><path d="M 8.9375 68.429688 C 13.164062 69.730469 17.96875 70.582031 22.683594 70.582031 C 27.398438 70.582031 31.933594 69.851562 36.117188 68.550781 C 36.207031 68.511719 36.292969 68.511719 36.382812 68.46875 C 52.085938 63.269531 63.652344 49.535156 63.875 31.148438 L 63.875 -126.601562 L -18.554688 -126.601562 L -18.554688 31.03125 C -18.332031 49.617188 -6.945312 63.351562 8.9375 68.429688 Z M 8.9375 68.429688 " clip-rule="nonzero"/></clipPath><clipPath id="48ea4876d9"><path d="M 399.945312 0 L 482.375 0 L 482.375 70.777344 L 399.945312 70.777344 Z M 399.945312 0 " clip-rule="nonzero"/></clipPath><clipPath id="beab617ee6"><path d="M 427.4375 68.429688 C 431.660156 69.730469 436.464844 70.582031 441.179688 70.582031 C 445.894531 70.582031 450.433594 69.851562 454.613281 68.550781 C 454.703125 68.511719 454.792969 68.511719 454.882812 68.46875 C 470.585938 63.269531 482.152344 49.535156 482.375 31.148438 L 482.375 -126.601562 L 399.945312 -126.601562 L 399.945312 31.03125 C 400.167969 49.617188 411.554688 63.351562 427.4375 68.429688 Z M 427.4375 68.429688 " clip-rule="nonzero"/></clipPath><clipPath id="8fc15201f3"><path d="M 334.828125 0 L 410.738281 0 L 410.738281 70.589844 L 334.828125 70.589844 Z M 334.828125 0 " clip-rule="nonzero"/></clipPath><clipPath id="185a701738"><path d="M 360.144531 68.390625 C 364.035156 69.714844 368.460938 70.582031 372.800781 70.582031 C 377.144531 70.582031 381.324219 69.835938 385.175781 68.515625 C 385.257812 68.472656 385.339844 68.472656 385.421875 68.429688 C 399.882812 63.136719 410.53125 49.160156 410.738281 30.515625 L 410.738281 -126.601562 L 334.828125 -126.601562 L 334.828125 30.402344 C 335.03125 49.242188 345.519531 63.21875 360.144531 68.390625 Z M 360.144531 68.390625 " clip-rule="nonzero"/></clipPath><clipPath id="b5ecb8f948"><path d="M 684.542969 0 L 760.453125 0 L 760.453125 70.589844 L 684.542969 70.589844 Z M 684.542969 0 " clip-rule="nonzero"/></clipPath><clipPath id="9edcab1786"><path d="M 709.859375 68.390625 C 713.75 69.714844 718.175781 70.582031 722.515625 70.582031 C 726.859375 70.582031 731.039062 69.835938 734.886719 68.515625 C 734.96875 68.472656 735.050781 68.472656 735.132812 68.429688 C 749.59375 63.136719 760.246094 49.160156 760.453125 30.515625 L 760.453125 -126.601562 L 684.542969 -126.601562 L 684.542969 30.402344 C 684.746094 49.242188 695.234375 63.21875 709.859375 68.390625 Z M 709.859375 68.390625 " clip-rule="nonzero"/></clipPath><clipPath id="17b53b47ed"><path d="M 752.644531 0 L 810 0 L 810 70.589844 L 752.644531 70.589844 Z M 752.644531 0 " clip-rule="nonzero"/></clipPath><clipPath id="f8f257e153"><path d="M 777.960938 68.390625 C 781.851562 69.714844 786.277344 70.582031 790.621094 70.582031 C 794.960938 70.582031 799.140625 69.835938 802.992188 68.515625 C 803.074219 68.472656 803.15625 68.472656 803.238281 68.429688 C 817.699219 63.136719 828.347656 49.160156 828.554688 30.515625 L 828.554688 -126.601562 L 752.644531 -126.601562 L 752.644531 30.402344 C 752.847656 49.242188 763.335938 63.21875 777.960938 68.390625 Z M 777.960938 68.390625 " clip-rule="nonzero"/></clipPath><clipPath id="0925b52605"><path d="M 127.625 0 L 203.535156 0 L 203.535156 70.589844 L 127.625 70.589844 Z M 127.625 0 " clip-rule="nonzero"/></clipPath><clipPath id="cbfd0767bd"><path d="M 152.941406 68.390625 C 156.832031 69.714844 161.257812 70.582031 165.601562 70.582031 C 169.941406 70.582031 174.121094 69.835938 177.972656 68.515625 C 178.054688 68.472656 178.136719 68.472656 178.21875 68.429688 C 192.679688 63.136719 203.332031 49.160156 203.535156 30.515625 L 203.535156 -126.601562 L 127.625 -126.601562 L 127.625 30.402344 C 127.828125 49.242188 138.316406 63.21875 152.941406 68.390625 Z M 152.941406 68.390625 " clip-rule="nonzero"/></clipPath><clipPath id="831a1da92a"><path d="M 474.488281 0 L 550.398438 0 L 550.398438 70.589844 L 474.488281 70.589844 Z M 474.488281 0 " clip-rule="nonzero"/></clipPath><clipPath id="e4e65cba4f"><path d="M 499.804688 68.390625 C 503.695312 69.714844 508.121094 70.582031 512.464844 70.582031 C 516.804688 70.582031 520.984375 69.835938 524.835938 68.515625 C 524.917969 68.472656 525 68.472656 525.082031 68.429688 C 539.542969 63.136719 550.191406 49.160156 550.398438 30.515625 L 550.398438 -126.601562 L 474.488281 -126.601562 L 474.488281 30.402344 C 474.691406 49.242188 485.179688 63.21875 499.804688 68.390625 Z M 499.804688 68.390625 " clip-rule="nonzero"/></clipPath><clipPath id="8ed208c15b"><path d="M 267.414062 0 L 348.910156 0 L 348.910156 70.738281 L 267.414062 70.738281 Z M 267.414062 0 " clip-rule="nonzero"/></clipPath><clipPath id="3985ff9542"><path d="M 294.597656 68.390625 C 298.773438 69.714844 303.523438 70.582031 308.1875 70.582031 C 312.847656 70.582031 317.332031 69.835938 321.46875 68.515625 C 321.554688 68.472656 321.644531 68.472656 321.730469 68.429688 C 337.257812 63.136719 348.691406 49.160156 348.910156 30.496094 L 348.910156 -127.589844 L 267.414062 -127.589844 L 267.414062 30.378906 C 267.636719 49.242188 278.894531 63.21875 294.597656 68.390625 Z M 294.597656 68.390625 " clip-rule="nonzero"/></clipPath><clipPath id="e9133a8f59"><path d="M 614.148438 0 L 695.644531 0 L 695.644531 70.738281 L 614.148438 70.738281 Z M 614.148438 0 " clip-rule="nonzero"/></clipPath><clipPath id="d5b267dca0"><path d="M 641.328125 68.390625 C 645.507812 69.714844 650.257812 70.582031 654.917969 70.582031 C 659.578125 70.582031 664.066406 69.835938 668.199219 68.515625 C 668.289062 68.472656 668.375 68.472656 668.464844 68.429688 C 683.988281 63.136719 695.421875 49.160156 695.644531 30.496094 L 695.644531 -127.589844 L 614.148438 -127.589844 L 614.148438 30.378906 C 614.367188 49.242188 625.625 63.21875 641.328125 68.390625 Z M 641.328125 68.390625 " clip-rule="nonzero"/></clipPath></defs><g clip-path="url(#bc698f4aea)"><g clip-path="url(#05762e889a)"><path fill="#ed97df" d="M 195.378906 -126.601562 L 277.546875 -126.601562 L 277.546875 70.476562 L 195.378906 70.476562 Z M 195.378906 -126.601562 " fill-opacity="1" fill-rule="nonzero"/></g></g><g clip-path="url(#4cdc5a9290)"><g clip-path="url(#9fa3d92925)"><path fill="#ed97df" d="M 542.375 -126.601562 L 624.539062 -126.601562 L 624.539062 70.476562 L 542.375 70.476562 Z M 542.375 -126.601562 " fill-opacity="1" fill-rule="nonzero"/></g></g><g clip-path="url(#e965f69abd)"><g clip-path="url(#34d610f9e0)"><path fill="#ed97df" d="M 53.019531 -126.601562 L 135.445312 -126.601562 L 135.445312 70.457031 L 53.019531 70.457031 Z M 53.019531 -126.601562 " fill-opacity="1" fill-rule="nonzero"/></g></g><g clip-path="url(#8c8a0f35f8)"><g clip-path="url(#b437761888)"><path fill="#ed97df" d="M -18.554688 -126.601562 L 63.875 -126.601562 L 63.875 70.457031 L -18.554688 70.457031 Z M -18.554688 -126.601562 " fill-opacity="1" fill-rule="nonzero"/></g></g><g clip-path="url(#48ea4876d9)"><g clip-path="url(#beab617ee6)"><path fill="#ed97df" d="M 399.945312 -126.601562 L 482.375 -126.601562 L 482.375 70.457031 L 399.945312 70.457031 Z M 399.945312 -126.601562 " fill-opacity="1" fill-rule="nonzero"/></g></g><g clip-path="url(#8fc15201f3)"><g clip-path="url(#185a701738)"><path fill="#ed97df" d="M 334.828125 -126.601562 L 410.738281 -126.601562 L 410.738281 70.589844 L 334.828125 70.589844 Z M 334.828125 -126.601562 " fill-opacity="1" fill-rule="nonzero"/></g></g><g clip-path="url(#b5ecb8f948)"><g clip-path="url(#9edcab1786)"><path fill="#ed97df" d="M 684.542969 -126.601562 L 760.453125 -126.601562 L 760.453125 70.589844 L 684.542969 70.589844 Z M 684.542969 -126.601562 " fill-opacity="1" fill-rule="nonzero"/></g></g><g clip-path="url(#17b53b47ed)"><g clip-path="url(#f8f257e153)"><path fill="#ed97df" d="M 752.644531 -126.601562 L 828.554688 -126.601562 L 828.554688 70.589844 L 752.644531 70.589844 Z M 752.644531 -126.601562 " fill-opacity="1" fill-rule="nonzero"/></g></g><g clip-path="url(#0925b52605)"><g clip-path="url(#cbfd0767bd)"><path fill="#ed97df" d="M 127.625 -126.601562 L 203.535156 -126.601562 L 203.535156 70.589844 L 127.625 70.589844 Z M 127.625 -126.601562 " fill-opacity="1" fill-rule="nonzero"/></g></g><g clip-path="url(#831a1da92a)"><g clip-path="url(#e4e65cba4f)"><path fill="#ed97df" d="M 474.488281 -126.601562 L 550.398438 -126.601562 L 550.398438 70.589844 L 474.488281 70.589844 Z M 474.488281 -126.601562 " fill-opacity="1" fill-rule="nonzero"/></g></g><g clip-path="url(#8ed208c15b)"><g clip-path="url(#3985ff9542)"><path fill="#ed97df" d="M 267.414062 -127.589844 L 348.910156 -127.589844 L 348.910156 70.738281 L 267.414062 70.738281 Z M 267.414062 -127.589844 " fill-opacity="1" fill-rule="nonzero"/></g></g><g clip-path="url(#e9133a8f59)"><g clip-path="url(#d5b267dca0)"><path fill="#ed97df" d="M 614.148438 -127.589844 L 695.644531 -127.589844 L 695.644531 70.738281 L 614.148438 70.738281 Z M 614.148438 -127.589844 " fill-opacity="1" fill-rule="nonzero"/></g></g></svg>