<svg xmlns="http://www.w3.org/2000/svg" xmlns:xlink="http://www.w3.org/1999/xlink" width="1080" zoomAndPan="magnify" viewBox="0 0 810 809.999993" height="1080" preserveAspectRatio="xMidYMid meet" version="1.0"><defs><clipPath id="1ce7dcb607"><path d="M 594.769531 0 L 676.9375 0 L 676.9375 190.332031 L 594.769531 190.332031 Z M 594.769531 0 " clip-rule="nonzero"/></clipPath><clipPath id="f551c68440"><path d="M 622.175781 188.015625 C 626.386719 189.339844 631.175781 190.207031 635.878906 190.207031 C 640.578125 190.207031 645.101562 189.464844 649.269531 188.140625 C 649.355469 188.097656 649.445312 188.097656 649.535156 188.058594 C 665.1875 182.761719 676.71875 168.785156 676.9375 150.296875 L 676.9375 0 L 594.769531 0 L 594.769531 150.1875 C 594.992188 168.867188 606.34375 182.847656 622.175781 188.015625 Z M 622.175781 188.015625 " clip-rule="nonzero"/></clipPath><clipPath id="a42ba76b47"><path d="M 163.742188 0 L 245.910156 0 L 245.910156 190.332031 L 163.742188 190.332031 Z M 163.742188 0 " clip-rule="nonzero"/></clipPath><clipPath id="0449bf4e88"><path d="M 191.148438 188.015625 C 195.359375 189.339844 200.148438 190.207031 204.851562 190.207031 C 209.550781 190.207031 214.074219 189.464844 218.242188 188.140625 C 218.332031 188.097656 218.417969 188.097656 218.507812 188.058594 C 234.160156 182.761719 245.691406 168.785156 245.910156 150.296875 L 245.910156 0 L 163.742188 0 L 163.742188 150.1875 C 163.964844 168.867188 175.316406 182.847656 191.148438 188.015625 Z M 191.148438 188.015625 " clip-rule="nonzero"/></clipPath><clipPath id="4bfb5c6178"><path d="M 452.410156 0 L 534.839844 0 L 534.839844 190.292969 L 452.410156 190.292969 Z M 452.410156 0 " clip-rule="nonzero"/></clipPath><clipPath id="f0f69f19af"><path d="M 479.902344 188.054688 C 484.128906 189.355469 488.933594 190.207031 493.648438 190.207031 C 498.363281 190.207031 502.902344 189.476562 507.082031 188.175781 C 507.171875 188.136719 507.261719 188.136719 507.347656 188.09375 C 523.050781 182.894531 534.617188 169.164062 534.839844 150.929688 L 534.839844 0 L 452.410156 0 L 452.410156 150.816406 C 452.632812 169.242188 464.023438 182.976562 479.902344 188.054688 Z M 479.902344 188.054688 " clip-rule="nonzero"/></clipPath><clipPath id="9a5ca345d0"><path d="M 380.839844 0 L 463.269531 0 L 463.269531 190.292969 L 380.839844 190.292969 Z M 380.839844 0 " clip-rule="nonzero"/></clipPath><clipPath id="6d5ca8de78"><path d="M 408.332031 188.054688 C 412.554688 189.355469 417.359375 190.207031 422.074219 190.207031 C 426.792969 190.207031 431.328125 189.476562 435.511719 188.175781 C 435.597656 188.136719 435.6875 188.136719 435.777344 188.09375 C 451.480469 182.894531 463.046875 169.164062 463.269531 150.929688 L 463.269531 0 L 380.839844 0 L 380.839844 150.816406 C 381.0625 169.242188 392.449219 182.976562 408.332031 188.054688 Z M 408.332031 188.054688 " clip-rule="nonzero"/></clipPath><clipPath id="2483742823"><path d="M 734.089844 0 L 810 0 L 810 190.960938 L 734.089844 190.960938 Z M 734.089844 0 " clip-rule="nonzero"/></clipPath><clipPath id="f91bc277a7"><path d="M 759.40625 188.496094 C 763.296875 189.816406 767.722656 190.6875 772.066406 190.6875 C 776.40625 190.6875 780.585938 189.941406 784.4375 188.617188 C 784.519531 188.578125 784.601562 188.578125 784.683594 188.535156 C 799.144531 183.242188 809.796875 169.261719 810 150.765625 L 810 0 L 734.089844 0 L 734.089844 150.65625 C 734.292969 169.347656 744.78125 183.324219 759.40625 188.496094 Z M 759.40625 188.496094 " clip-rule="nonzero"/></clipPath><clipPath id="bb4d3c0f03"><path d="M 311.207031 0 L 387.117188 0 L 387.117188 190.371094 L 311.207031 190.371094 Z M 311.207031 0 " clip-rule="nonzero"/></clipPath><clipPath id="f174adda52"><path d="M 336.523438 188.015625 C 340.414062 189.339844 344.839844 190.207031 349.183594 190.207031 C 353.523438 190.207031 357.703125 189.464844 361.554688 188.140625 C 361.636719 188.097656 361.71875 188.097656 361.800781 188.058594 C 376.261719 182.761719 386.910156 168.785156 387.117188 150.296875 L 387.117188 0 L 311.207031 0 L 311.207031 150.1875 C 311.410156 168.867188 321.898438 182.847656 336.523438 188.015625 Z M 336.523438 188.015625 " clip-rule="nonzero"/></clipPath><clipPath id="b96820e27f"><path d="M 527.019531 0 L 602.929688 0 L 602.929688 190.371094 L 527.019531 190.371094 Z M 527.019531 0 " clip-rule="nonzero"/></clipPath><clipPath id="339254d7a0"><path d="M 552.335938 188.015625 C 556.226562 189.339844 560.652344 190.207031 564.992188 190.207031 C 569.335938 190.207031 573.515625 189.464844 577.367188 188.140625 C 577.449219 188.097656 577.53125 188.097656 577.613281 188.058594 C 592.074219 182.761719 602.722656 168.785156 602.929688 150.296875 L 602.929688 0 L 527.019531 0 L 527.019531 150.1875 C 527.222656 168.867188 537.710938 182.847656 552.335938 188.015625 Z M 552.335938 188.015625 " clip-rule="nonzero"/></clipPath><clipPath id="1f986189f6"><path d="M 666.679688 0 L 748.175781 0 L 748.175781 190.6875 L 666.679688 190.6875 Z M 666.679688 0 " clip-rule="nonzero"/></clipPath><clipPath id="7b4742d453"><path d="M 693.859375 188.496094 C 698.035156 189.816406 702.785156 190.6875 707.449219 190.6875 C 712.109375 190.6875 716.597656 189.941406 720.730469 188.617188 C 720.820312 188.578125 720.90625 188.578125 720.996094 188.535156 C 736.519531 183.242188 747.953125 169.261719 748.175781 150.765625 L 748.175781 0 L 666.679688 0 L 666.679688 150.65625 C 666.898438 169.347656 678.15625 183.324219 693.859375 188.496094 Z M 693.859375 188.496094 " clip-rule="nonzero"/></clipPath><clipPath id="d88e4d5cf1"><path d="M 235.519531 0 L 317.015625 0 L 317.015625 190.367188 L 235.519531 190.367188 Z M 235.519531 0 " clip-rule="nonzero"/></clipPath><clipPath id="248ab0ba48"><path d="M 262.699219 188.015625 C 266.875 189.339844 271.625 190.207031 276.289062 190.207031 C 280.949219 190.207031 285.4375 189.464844 289.570312 188.140625 C 289.660156 188.097656 289.746094 188.097656 289.835938 188.058594 C 305.359375 182.761719 316.792969 168.785156 317.015625 150.296875 L 317.015625 0 L 235.519531 0 L 235.519531 150.1875 C 235.738281 168.867188 246.996094 182.847656 262.699219 188.015625 Z M 262.699219 188.015625 " clip-rule="nonzero"/></clipPath></defs><g clip-path="url(#1ce7dcb607)"><g clip-path="url(#f551c68440)"><path fill="#ed97df" d="M 594.769531 0 L 676.9375 0 L 676.9375 190.332031 L 594.769531 190.332031 Z M 594.769531 0 " fill-opacity="1" fill-rule="nonzero"/></g></g><g clip-path="url(#a42ba76b47)"><g clip-path="url(#0449bf4e88)"><path fill="#ed97df" d="M 163.742188 0 L 245.910156 0 L 245.910156 190.332031 L 163.742188 190.332031 Z M 163.742188 0 " fill-opacity="1" fill-rule="nonzero"/></g></g><g clip-path="url(#4bfb5c6178)"><g clip-path="url(#f0f69f19af)"><path fill="#ed97df" d="M 452.410156 0 L 534.839844 0 L 534.839844 190.292969 L 452.410156 190.292969 Z M 452.410156 0 " fill-opacity="1" fill-rule="nonzero"/></g></g><g clip-path="url(#9a5ca345d0)"><g clip-path="url(#6d5ca8de78)"><path fill="#ed97df" d="M 380.839844 0 L 463.269531 0 L 463.269531 190.292969 L 380.839844 190.292969 Z M 380.839844 0 " fill-opacity="1" fill-rule="nonzero"/></g></g><g clip-path="url(#2483742823)"><g clip-path="url(#f91bc277a7)"><path fill="#ed97df" d="M 734.089844 0 L 810 0 L 810 190.667969 L 734.089844 190.667969 Z M 734.089844 0 " fill-opacity="1" fill-rule="nonzero"/></g></g><g clip-path="url(#bb4d3c0f03)"><g clip-path="url(#f174adda52)"><path fill="#ed97df" d="M 311.207031 0 L 387.117188 0 L 387.117188 190.074219 L 311.207031 190.074219 Z M 311.207031 0 " fill-opacity="1" fill-rule="nonzero"/></g></g><g clip-path="url(#b96820e27f)"><g clip-path="url(#339254d7a0)"><path fill="#ed97df" d="M 527.019531 0 L 602.929688 0 L 602.929688 190.074219 L 527.019531 190.074219 Z M 527.019531 0 " fill-opacity="1" fill-rule="nonzero"/></g></g><g clip-path="url(#1f986189f6)"><g clip-path="url(#7b4742d453)"><path fill="#ed97df" d="M 666.679688 0 L 748.175781 0 L 748.175781 190.6875 L 666.679688 190.6875 Z M 666.679688 0 " fill-opacity="1" fill-rule="nonzero"/></g></g><g clip-path="url(#d88e4d5cf1)"><g clip-path="url(#248ab0ba48)"><path fill="#ed97df" d="M 235.519531 0 L 317.015625 0 L 317.015625 190.050781 L 235.519531 190.050781 Z M 235.519531 0 " fill-opacity="1" fill-rule="nonzero"/></g></g></svg>