<svg xmlns="http://www.w3.org/2000/svg" xmlns:xlink="http://www.w3.org/1999/xlink" width="1080" zoomAndPan="magnify" viewBox="0 0 810 809.999993" height="1080" preserveAspectRatio="xMidYMid meet" version="1.0"><defs><clipPath id="23c312c8d8"><path d="M 521.410156 0 L 735.121094 0 L 735.121094 501 L 521.410156 501 Z M 521.410156 0 " clip-rule="nonzero"/></clipPath><clipPath id="bb6e9bd7b4"><path d="M 592.6875 494.882812 C 603.644531 498.324219 616.097656 500.585938 628.324219 500.585938 C 640.550781 500.585938 652.3125 498.648438 663.15625 495.207031 C 663.386719 495.097656 663.617188 495.097656 663.847656 494.992188 C 704.558594 481.222656 734.546875 444.863281 735.121094 396.378906 L 735.121094 -12.269531 L 521.410156 -12.269531 L 521.410156 396.078125 C 521.988281 445.078125 551.511719 481.4375 592.6875 494.882812 Z M 592.6875 494.882812 " clip-rule="nonzero"/></clipPath><clipPath id="2e97b389a1"><path d="M 151.144531 0 L 365.535156 0 L 365.535156 501 L 151.144531 501 Z M 151.144531 0 " clip-rule="nonzero"/></clipPath><clipPath id="e379379d95"><path d="M 222.648438 494.984375 C 233.640625 498.367188 246.136719 500.585938 258.398438 500.585938 C 270.664062 500.585938 282.464844 498.683594 293.339844 495.300781 C 293.570312 495.195312 293.804688 495.195312 294.035156 495.089844 C 334.875 481.5625 364.957031 445.847656 365.535156 398.019531 L 365.535156 -12.269531 L 151.144531 -12.269531 L 151.144531 397.714844 C 151.722656 446.058594 181.34375 481.777344 222.648438 494.984375 Z M 222.648438 494.984375 " clip-rule="nonzero"/></clipPath><clipPath id="5658156030"><path d="M 760.859375 0 L 810 0 L 810 498.03125 L 760.859375 498.03125 Z M 760.859375 0 " clip-rule="nonzero"/></clipPath><clipPath id="1bab756ce5"><path d="M 826.707031 492.308594 C 836.832031 495.75 848.339844 498.007812 859.632812 498.007812 C 870.925781 498.007812 881.792969 496.070312 891.808594 492.628906 C 892.023438 492.523438 892.238281 492.523438 892.449219 492.414062 C 930.0625 478.644531 957.765625 442.289062 958.296875 393.804688 L 958.296875 -14.84375 L 760.859375 -14.84375 L 760.859375 393.5 C 761.394531 442.503906 788.667969 478.859375 826.707031 492.308594 Z M 826.707031 492.308594 " clip-rule="nonzero"/></clipPath><clipPath id="14e3719949"><path d="M 345.191406 0 L 542.628906 0 L 542.628906 500.605469 L 345.191406 500.605469 Z M 345.191406 0 " clip-rule="nonzero"/></clipPath><clipPath id="55d724f54e"><path d="M 411.039062 494.882812 C 421.160156 498.324219 432.667969 500.585938 443.964844 500.585938 C 455.257812 500.585938 466.125 498.648438 476.140625 495.207031 C 476.355469 495.097656 476.566406 495.097656 476.78125 494.992188 C 514.394531 481.222656 542.097656 444.863281 542.628906 396.378906 L 542.628906 -12.269531 L 345.191406 -12.269531 L 345.191406 396.078125 C 345.722656 445.078125 373 481.4375 411.039062 494.882812 Z M 411.039062 494.882812 " clip-rule="nonzero"/></clipPath><clipPath id="e9873b9fce"><path d="M 0 0 L 173.347656 0 L 173.347656 501 L 0 501 Z M 0 0 " clip-rule="nonzero"/></clipPath><clipPath id="43443c041c"><path d="M 21.207031 494.882812 C 32.90625 498.324219 46.214844 500.585938 59.269531 500.585938 C 72.328125 500.585938 84.894531 498.648438 96.472656 495.207031 C 96.722656 495.097656 96.96875 495.097656 97.214844 494.992188 C 140.699219 481.222656 172.730469 444.863281 173.347656 396.378906 L 173.347656 -12.269531 L -54.925781 -12.269531 L -54.925781 396.078125 C -54.3125 445.078125 -22.773438 481.4375 21.207031 494.882812 Z M 21.207031 494.882812 " clip-rule="nonzero"/></clipPath><clipPath id="f6c0f6ea03"><path d="M 714.472656 0 L 810 0 L 810 500.988281 L 714.472656 500.988281 Z M 714.472656 0 " clip-rule="nonzero"/></clipPath><clipPath id="23ef177c71"><path d="M 785.167969 494.882812 C 796.035156 498.328125 808.386719 500.585938 820.511719 500.585938 C 832.636719 500.585938 844.304688 498.648438 855.058594 495.207031 C 855.289062 495.097656 855.515625 495.097656 855.746094 494.992188 C 896.125 481.222656 925.867188 444.863281 926.4375 396.324219 L 926.4375 -14.84375 L 714.472656 -14.84375 L 714.472656 396.015625 C 715.046875 445.078125 744.328125 481.4375 785.167969 494.882812 Z M 785.167969 494.882812 " clip-rule="nonzero"/></clipPath></defs><g clip-path="url(#23c312c8d8)"><g clip-path="url(#bb6e9bd7b4)"><path fill="#7ea1c4" d="M 521.410156 -12.269531 L 735.121094 -12.269531 L 735.121094 500.304688 L 521.410156 500.304688 Z M 521.410156 -12.269531 " fill-opacity="1" fill-rule="nonzero"/></g></g><g clip-path="url(#2e97b389a1)"><g clip-path="url(#e379379d95)"><path fill="#7ea1c4" d="M 151.144531 -12.269531 L 365.535156 -12.269531 L 365.535156 500.257812 L 151.144531 500.257812 Z M 151.144531 -12.269531 " fill-opacity="1" fill-rule="nonzero"/></g></g><g clip-path="url(#5658156030)"><g clip-path="url(#1bab756ce5)"><path fill="#7ea1c4" d="M 760.859375 -14.84375 L 958.296875 -14.84375 L 958.296875 498.03125 L 760.859375 498.03125 Z M 760.859375 -14.84375 " fill-opacity="1" fill-rule="nonzero"/></g></g><g clip-path="url(#14e3719949)"><g clip-path="url(#55d724f54e)"><path fill="#7ea1c4" d="M 345.191406 -12.269531 L 542.628906 -12.269531 L 542.628906 500.605469 L 345.191406 500.605469 Z M 345.191406 -12.269531 " fill-opacity="1" fill-rule="nonzero"/></g></g><g clip-path="url(#e9873b9fce)"><g clip-path="url(#43443c041c)"><path fill="#7ea1c4" d="M -54.925781 -12.269531 L 173.347656 -12.269531 L 173.347656 500.453125 L -54.925781 500.453125 Z M -54.925781 -12.269531 " fill-opacity="1" fill-rule="nonzero"/></g></g><g clip-path="url(#f6c0f6ea03)"><g clip-path="url(#23ef177c71)"><path fill="#7ea1c4" d="M 714.472656 -14.84375 L 926.4375 -14.84375 L 926.4375 500.988281 L 714.472656 500.988281 Z M 714.472656 -14.84375 " fill-opacity="1" fill-rule="nonzero"/></g></g></svg>